<?xml version="1.0" encoding="utf-8"?>
<!-- Generator: Adobe Illustrator 24.2.0, SVG Export Plug-In . SVG Version: 6.00 Build 0)  -->
<svg version="1.1" id="Слой_1" xmlns="http://www.w3.org/2000/svg" xmlns:xlink="http://www.w3.org/1999/xlink" x="0px" y="0px"
	 viewBox="0 0 375 375" style="enable-background:new 0 0 375 375;" xml:space="preserve">
<style type="text/css">
	.st0{fill:none;stroke:#00D1BA;stroke-width:0.6103;stroke-linecap:round;stroke-linejoin:round;}
	.st1{fill:none;stroke:#28FFF2;stroke-width:1.831;stroke-linecap:round;stroke-linejoin:round;}
	.st2{fill:none;stroke:#3DFFF8;stroke-width:1.9073;stroke-linecap:round;stroke-dasharray:9.06,82.01;}
	.st3{fill:none;stroke:#00FFB3;stroke-width:1.9073;stroke-linecap:round;stroke-dasharray:143.04,143.04;}
	.st4{fill:none;stroke:#00FFB3;stroke-width:1.7928;stroke-linecap:round;stroke-dasharray:134.46,134.46;}
	.st5{fill:#FF0000;}
	.st6{fill:none;stroke:#A70000;stroke-width:1.2397;}
	.st7{fill:none;stroke:#28FFF2;stroke-width:2;}
</style>
<path class="st0" d="M255.1,140l-1.9,16.4l-1.4,15.9l-4.7,7.1l-6,2"/>
<path class="st0" d="M119.9,140l1.9,16.4l1.4,15.9l4.7,7.1l6,2"/>
<path class="st1" d="M255.1,140l-1.9,16.4l-1.4,15.9l-4.7,7.1l-6,2"/>
<path class="st1" d="M119.9,140l1.9,16.4l1.4,15.9l4.7,7.1l6,2"/>
<path class="st1" d="M255.1,140l-1.9,16.4l-1.4,15.9l-4.7,7.1l-6,2"/>
<path class="st1" d="M119.9,140l1.9,16.4l1.4,15.9l4.7,7.1l6,2"/>
<path class="st2" d="M352,120.3v140.2c0,42.1-34.2,76.3-76.3,76.3H99.3c-42.1,0-76.3-34.2-76.3-76.3V120.3C23,78.2,57.2,44,99.3,44
	h176.4C317.8,44,352,78.2,352,120.3z"/>
<path class="st3" d="M352,120.3v140.2c0,42.1-34.2,76.3-76.3,76.3H99.3c-42.1,0-76.3-34.2-76.3-76.3V120.3C23,78.2,57.2,44,99.3,44
	h176.4C317.8,44,352,78.2,352,120.3z"/>
<path class="st4" d="M342.1,124.5v131.8c0,39.6-32.1,71.7-71.7,71.7H104.6c-39.6,0-71.7-32.1-71.7-71.7V124.5
	c0-39.6,32.1-71.7,71.7-71.7h165.8C310,52.8,342.1,84.9,342.1,124.5z"/>
<path class="st5" d="M298.6,82.4c5.1,0,9.3,4.2,9.3,9.3c0,5.1-4.2,9.3-9.3,9.3c-5.1,0-9.3-4.2-9.3-9.3
	C289.3,86.5,293.5,82.4,298.6,82.4z"/>
<path class="st6" d="M298.6,82.4c5.1,0,9.3,4.2,9.3,9.3c0,5.1-4.2,9.3-9.3,9.3c-5.1,0-9.3-4.2-9.3-9.3
	C289.3,86.5,293.5,82.4,298.6,82.4z"/>
<path class="st7" d="M131,127.8c2,24.7,4.9,62.7,8.5,73.5c4.5,13.5,33,38.5,48,38.5s42.5-24.5,47.5-38.5c4-11.2,7.5-49,9.5-73.5"/>
<path class="st7" d="M147.1,215.2c-0.3,6.3-1.8,20.2-7,26.1c-9.6,10.9-31.6,19.5-48.2,29"/>
<path class="st7" d="M225.8,215.2c0.3,6.3,1.8,20.2,7,26.1c9.6,10.9,31.6,19.5,48.2,29"/>
<path class="st7" d="M125,127.3c-0.6-24.7-0.2-42.7,4.1-53.5c5.4-13.5,23.8-35.5,58.1-35.5s51.6,21.5,57.5,35.5
	c4.8,11.2,5.9,29,5.3,53.5"/>
</svg>
