<?xml version="1.0" encoding="utf-8"?>
<!-- Generator: Adobe Illustrator 23.0.2, SVG Export Plug-In . SVG Version: 6.00 Build 0)  -->
<svg version="1.1" id="Слой_1" xmlns="http://www.w3.org/2000/svg" xmlns:xlink="http://www.w3.org/1999/xlink" x="0px" y="0px"
	 width="666.5px" height="667.5px" viewBox="0 0 666.5 667.5" style="enable-background:new 0 0 666.5 667.5;" xml:space="preserve"
	>
<style type="text/css">
	.st0{fill-rule:evenodd;clip-rule:evenodd;fill:#1565D8;}
	.st1{fill-rule:evenodd;clip-rule:evenodd;fill:#FFFFFF;filter:url(#Adobe_OpacityMaskFilter);}
	.st2{mask:url(#mask0_1_);}
	.st3{opacity:0.1;fill-rule:evenodd;clip-rule:evenodd;fill:#FFFFFF;enable-background:new    ;}
	.st4{opacity:0.1013;fill-rule:evenodd;clip-rule:evenodd;fill:url(#SVGID_1_);enable-background:new    ;}
</style>
<path class="st0" d="M112.8,112.8c150.5-150.5,394.4-150.4,545,0.1c3,3,5.9,6,8.8,9.1L122,666.6c-3.1-2.9-6.1-5.8-9.1-8.8
	C-37.6,507.3-37.6,263.3,112.8,112.8z"/>
<defs>
	<filter id="Adobe_OpacityMaskFilter" filterUnits="userSpaceOnUse" x="151.7" y="-280.5" width="725" height="725">
		<feColorMatrix  type="matrix" values="1 0 0 0 0  0 1 0 0 0  0 0 1 0 0  0 0 0 1 0"/>
	</filter>
</defs>
<mask maskUnits="userSpaceOnUse" x="151.7" y="-280.5" width="725" height="725" id="mask0_1_">
	<path class="st1" d="M112.8,112.8c150.5-150.5,394.4-150.4,545,0.1c3,3,5.9,6,8.8,9.1L122,666.6c-3.1-2.9-6.1-5.8-9.1-8.8
		C-37.6,507.3-37.6,263.3,112.8,112.8z"/>
</mask>
<g class="st2">
	<path class="st3" d="M490.7,102.1c0,2-1.6,3.6-3.6,3.6c-2,0-3.6-1.6-3.6-3.6c0-2,1.6-3.6,3.6-3.6
		C489.1,98.5,490.7,100.1,490.7,102.1z M487.1,124.9c2,0,3.6-1.6,3.6-3.6s-1.6-3.6-3.6-3.6c-2,0-3.6,1.6-3.6,3.6
		S485.1,124.9,487.1,124.9z M490.7,140.3c0,2-1.6,3.6-3.6,3.6c-2,0-3.6-1.6-3.6-3.6c0-2,1.6-3.6,3.6-3.6
		C489.1,136.7,490.7,138.3,490.7,140.3z M487.1,163.1c2,0,3.6-1.6,3.6-3.6c0-2-1.6-3.6-3.6-3.6c-2,0-3.6,1.6-3.6,3.6
		C483.4,161.4,485.1,163.1,487.1,163.1z M490.7,178.5c0,2-1.6,3.6-3.6,3.6c-2,0-3.6-1.6-3.6-3.6c0-2,1.6-3.6,3.6-3.6
		C489.1,174.9,490.7,176.5,490.7,178.5z M487.1,201.3c2,0,3.6-1.6,3.6-3.6c0-2-1.6-3.6-3.6-3.6c-2,0-3.6,1.6-3.6,3.6
		C483.4,199.6,485.1,201.3,487.1,201.3z M490.7,216.7c0,2-1.6,3.6-3.6,3.6c-2,0-3.6-1.6-3.6-3.6s1.6-3.6,3.6-3.6
		C489.1,213.1,490.7,214.7,490.7,216.7z M372.4,239.5c2,0,3.6-1.6,3.6-3.6c0-2-1.6-3.6-3.6-3.6c-2,0-3.6,1.6-3.6,3.6
		C368.7,237.8,370.3,239.5,372.4,239.5z M395.1,235.8c0,2-1.6,3.6-3.6,3.6c-2,0-3.6-1.6-3.6-3.6c0-2,1.6-3.6,3.6-3.6
		C393.5,232.2,395.1,233.8,395.1,235.8z M410.6,239.5c2,0,3.6-1.6,3.6-3.6c0-2-1.6-3.6-3.6-3.6c-2,0-3.6,1.6-3.6,3.6
		C407,237.8,408.6,239.5,410.6,239.5z M433.4,235.8c0,2-1.6,3.6-3.6,3.6s-3.6-1.6-3.6-3.6c0-2,1.6-3.6,3.6-3.6
		S433.4,233.8,433.4,235.8z M448.8,239.5c2,0,3.6-1.6,3.6-3.6c0-2-1.6-3.6-3.6-3.6c-2,0-3.6,1.6-3.6,3.6
		C445.2,237.8,446.8,239.5,448.8,239.5z M471.6,235.8c0,2-1.6,3.6-3.6,3.6s-3.6-1.6-3.6-3.6c0-2,1.6-3.6,3.6-3.6
		S471.6,233.8,471.6,235.8z M490.7,235.8c0,2-1.6,3.6-3.6,3.6c-2,0-3.6-1.6-3.6-3.6c0-2,1.6-3.6,3.6-3.6
		C489.1,232.2,490.7,233.8,490.7,235.8z M468,220.4c2,0,3.6-1.6,3.6-3.6s-1.6-3.6-3.6-3.6s-3.6,1.6-3.6,3.6S465.9,220.4,468,220.4z
		 M452.5,216.7c0,2-1.6,3.6-3.6,3.6c-2,0-3.6-1.6-3.6-3.6s1.6-3.6,3.6-3.6C450.8,213.1,452.5,214.7,452.5,216.7z M429.7,220.4
		c2,0,3.6-1.6,3.6-3.6s-1.6-3.6-3.6-3.6s-3.6,1.6-3.6,3.6S427.7,220.4,429.7,220.4z M414.2,216.7c0,2-1.6,3.6-3.6,3.6
		c-2,0-3.6-1.6-3.6-3.6s1.6-3.6,3.6-3.6C412.6,213.1,414.2,214.7,414.2,216.7z M391.5,220.4c2,0,3.6-1.6,3.6-3.6s-1.6-3.6-3.6-3.6
		c-2,0-3.6,1.6-3.6,3.6S389.5,220.4,391.5,220.4z M376,216.7c0,2-1.6,3.6-3.6,3.6c-2,0-3.6-1.6-3.6-3.6s1.6-3.6,3.6-3.6
		C374.4,213.1,376,214.7,376,216.7z M471.6,197.6c0,2-1.6,3.6-3.6,3.6s-3.6-1.6-3.6-3.6c0-2,1.6-3.6,3.6-3.6
		S471.6,195.6,471.6,197.6z M448.8,201.3c2,0,3.6-1.6,3.6-3.6c0-2-1.6-3.6-3.6-3.6c-2,0-3.6,1.6-3.6,3.6
		C445.2,199.6,446.8,201.3,448.8,201.3z M433.4,197.6c0,2-1.6,3.6-3.6,3.6s-3.6-1.6-3.6-3.6c0-2,1.6-3.6,3.6-3.6
		S433.4,195.6,433.4,197.6z M410.6,201.3c2,0,3.6-1.6,3.6-3.6c0-2-1.6-3.6-3.6-3.6c-2,0-3.6,1.6-3.6,3.6
		C407,199.6,408.6,201.3,410.6,201.3z M395.1,197.6c0,2-1.6,3.6-3.6,3.6c-2,0-3.6-1.6-3.6-3.6c0-2,1.6-3.6,3.6-3.6
		C393.5,194,395.1,195.6,395.1,197.6z M372.4,201.3c2,0,3.6-1.6,3.6-3.6c0-2-1.6-3.6-3.6-3.6c-2,0-3.6,1.6-3.6,3.6
		C368.7,199.6,370.3,201.3,372.4,201.3z M468,182.2c2,0,3.6-1.6,3.6-3.6c0-2-1.6-3.6-3.6-3.6s-3.6,1.6-3.6,3.6
		C464.3,180.5,465.9,182.2,468,182.2z M452.5,178.5c0,2-1.6,3.6-3.6,3.6c-2,0-3.6-1.6-3.6-3.6c0-2,1.6-3.6,3.6-3.6
		C450.8,174.9,452.5,176.5,452.5,178.5z M429.7,182.2c2,0,3.6-1.6,3.6-3.6c0-2-1.6-3.6-3.6-3.6s-3.6,1.6-3.6,3.6
		C426.1,180.5,427.7,182.2,429.7,182.2z M414.2,178.5c0,2-1.6,3.6-3.6,3.6c-2,0-3.6-1.6-3.6-3.6c0-2,1.6-3.6,3.6-3.6
		C412.6,174.9,414.2,176.5,414.2,178.5z M391.5,182.2c2,0,3.6-1.6,3.6-3.6c0-2-1.6-3.6-3.6-3.6c-2,0-3.6,1.6-3.6,3.6
		C387.8,180.5,389.5,182.2,391.5,182.2z M376,178.5c0,2-1.6,3.6-3.6,3.6c-2,0-3.6-1.6-3.6-3.6c0-2,1.6-3.6,3.6-3.6
		C374.4,174.9,376,176.5,376,178.5z M471.6,159.4c0,2-1.6,3.6-3.6,3.6s-3.6-1.6-3.6-3.6c0-2,1.6-3.6,3.6-3.6
		S471.6,157.4,471.6,159.4z M448.8,163.1c2,0,3.6-1.6,3.6-3.6c0-2-1.6-3.6-3.6-3.6c-2,0-3.6,1.6-3.6,3.6
		C445.2,161.4,446.8,163.1,448.8,163.1z M433.4,159.4c0,2-1.6,3.6-3.6,3.6s-3.6-1.6-3.6-3.6c0-2,1.6-3.6,3.6-3.6
		S433.4,157.4,433.4,159.4z M410.6,163.1c2,0,3.6-1.6,3.6-3.6c0-2-1.6-3.6-3.6-3.6c-2,0-3.6,1.6-3.6,3.6
		C407,161.4,408.6,163.1,410.6,163.1z M395.1,159.4c0,2-1.6,3.6-3.6,3.6c-2,0-3.6-1.6-3.6-3.6c0-2,1.6-3.6,3.6-3.6
		C393.5,155.8,395.1,157.4,395.1,159.4z M372.4,163.1c2,0,3.6-1.6,3.6-3.6c0-2-1.6-3.6-3.6-3.6c-2,0-3.6,1.6-3.6,3.6
		C368.7,161.4,370.3,163.1,372.4,163.1z M468,144c2,0,3.6-1.6,3.6-3.6c0-2-1.6-3.6-3.6-3.6s-3.6,1.6-3.6,3.6
		C464.3,142.3,465.9,144,468,144z M452.5,140.3c0,2-1.6,3.6-3.6,3.6c-2,0-3.6-1.6-3.6-3.6c0-2,1.6-3.6,3.6-3.6
		C450.8,136.7,452.5,138.3,452.5,140.3z M429.7,144c2,0,3.6-1.6,3.6-3.6c0-2-1.6-3.6-3.6-3.6s-3.6,1.6-3.6,3.6
		C426.1,142.3,427.7,144,429.7,144z M414.2,140.3c0,2-1.6,3.6-3.6,3.6c-2,0-3.6-1.6-3.6-3.6c0-2,1.6-3.6,3.6-3.6
		C412.6,136.7,414.2,138.3,414.2,140.3z M391.5,144c2,0,3.6-1.6,3.6-3.6c0-2-1.6-3.6-3.6-3.6c-2,0-3.6,1.6-3.6,3.6
		C387.8,142.3,389.5,144,391.5,144z M376,140.3c0,2-1.6,3.6-3.6,3.6c-2,0-3.6-1.6-3.6-3.6c0-2,1.6-3.6,3.6-3.6
		C374.4,136.7,376,138.3,376,140.3z M471.6,121.2c0,2-1.6,3.6-3.6,3.6s-3.6-1.6-3.6-3.6s1.6-3.6,3.6-3.6S471.6,119.2,471.6,121.2z
		 M448.8,124.9c2,0,3.6-1.6,3.6-3.6s-1.6-3.6-3.6-3.6c-2,0-3.6,1.6-3.6,3.6S446.8,124.9,448.8,124.9z M433.4,121.2
		c0,2-1.6,3.6-3.6,3.6s-3.6-1.6-3.6-3.6s1.6-3.6,3.6-3.6S433.4,119.2,433.4,121.2z M410.6,124.9c2,0,3.6-1.6,3.6-3.6
		s-1.6-3.6-3.6-3.6c-2,0-3.6,1.6-3.6,3.6S408.6,124.9,410.6,124.9z M395.1,121.2c0,2-1.6,3.6-3.6,3.6c-2,0-3.6-1.6-3.6-3.6
		s1.6-3.6,3.6-3.6C393.5,117.6,395.1,119.2,395.1,121.2z M372.4,124.9c2,0,3.6-1.6,3.6-3.6s-1.6-3.6-3.6-3.6c-2,0-3.6,1.6-3.6,3.6
		S370.3,124.9,372.4,124.9z M468,105.8c2,0,3.6-1.6,3.6-3.6c0-2-1.6-3.6-3.6-3.6s-3.6,1.6-3.6,3.6
		C464.3,104.1,465.9,105.8,468,105.8z M452.5,102.1c0,2-1.6,3.6-3.6,3.6c-2,0-3.6-1.6-3.6-3.6c0-2,1.6-3.6,3.6-3.6
		C450.8,98.5,452.5,100.1,452.5,102.1z M429.7,105.8c2,0,3.6-1.6,3.6-3.6c0-2-1.6-3.6-3.6-3.6s-3.6,1.6-3.6,3.6
		C426.1,104.1,427.7,105.8,429.7,105.8z M414.2,102.1c0,2-1.6,3.6-3.6,3.6c-2,0-3.6-1.6-3.6-3.6c0-2,1.6-3.6,3.6-3.6
		C412.6,98.5,414.2,100.1,414.2,102.1z M391.5,105.8c2,0,3.6-1.6,3.6-3.6c0-2-1.6-3.6-3.6-3.6c-2,0-3.6,1.6-3.6,3.6
		C387.8,104.1,389.5,105.8,391.5,105.8z M376,102.1c0,2-1.6,3.6-3.6,3.6c-2,0-3.6-1.6-3.6-3.6c0-2,1.6-3.6,3.6-3.6
		C374.4,98.5,376,100.1,376,102.1z"/>
	
		<linearGradient id="SVGID_1_" gradientUnits="userSpaceOnUse" x1="307.9824" y1="531.1326" x2="736.7254" y2="339.5426" gradientTransform="matrix(1 0 0 -1 0 520.9525)">
		<stop  offset="0" style="stop-color:#FFFFFF"/>
		<stop  offset="1" style="stop-color:#FFFFFF;stop-opacity:1.000000e-02"/>
	</linearGradient>
	<path class="st4" d="M514.2,444.5c200.2,0,362.5-162.3,362.5-362.5S714.4-280.5,514.2-280.5S151.7-118.2,151.7,82
		S314,444.5,514.2,444.5z M514.2,322.4c-132.8,0-240.5-107.7-240.5-240.5s107.7-240.5,240.5-240.5S754.7-50.8,754.7,82
		S647,322.4,514.2,322.4z"/>
</g>
</svg>
