<?xml version="1.0" encoding="utf-8"?>
<!-- Generator: Adobe Illustrator 23.0.2, SVG Export Plug-In . SVG Version: 6.00 Build 0)  -->
<svg version="1.1" id="Слой_1" xmlns="http://www.w3.org/2000/svg" xmlns:xlink="http://www.w3.org/1999/xlink" x="0px" y="0px"
	 width="690px" height="308px" viewBox="0 0 690 308" style="enable-background:new 0 0 690 308;" xml:space="preserve">
<style type="text/css">
	.st0{fill-rule:evenodd;clip-rule:evenodd;fill:#1565D8;}
	.st1{fill-rule:evenodd;clip-rule:evenodd;fill:#FFFFFF;filter:url(#Adobe_OpacityMaskFilter);}
	.st2{mask:url(#mask0_1_);}
	.st3{opacity:0.1013;fill-rule:evenodd;clip-rule:evenodd;fill:url(#SVGID_1_);enable-background:new    ;}
</style>
<path class="st0" d="M688,308H2C20.4,134.9,167,0,345,0c65.6,0,127,18.3,179.2,50.2c32.5,19.8,61.4,44.7,85.6,73.8
	C652.5,174.9,680.6,238.3,688,308z"/>
<defs>
	<filter id="Adobe_OpacityMaskFilter" filterUnits="userSpaceOnUse" x="466" y="50.2" width="143.8" height="257.8">
		<feColorMatrix  type="matrix" values="1 0 0 0 0  0 1 0 0 0  0 0 1 0 0  0 0 0 1 0"/>
	</filter>
</defs>
<mask maskUnits="userSpaceOnUse" x="466" y="50.2" width="143.8" height="257.8" id="mask0_1_">
	<path class="st1" d="M3.2,392h683.7c2.1-15.4,3.2-31.1,3.2-47C690,154.5,535.5,0,345,0S0,154.5,0,345C0,360.9,1.1,376.6,3.2,392z"
		/>
</mask>
<g class="st2">
	
		<linearGradient id="SVGID_1_" gradientUnits="userSpaceOnUse" x1="496.2502" y1="132.0711" x2="596.8539" y2="87.1148" gradientTransform="matrix(1 0 0 -1 0 310)">
		<stop  offset="0" style="stop-color:#FFFFFF"/>
		<stop  offset="1" style="stop-color:#FFFFFF;stop-opacity:1.000000e-02"/>
	</linearGradient>
	<path class="st3" d="M609.8,123.9c-24.2-29-53.2-54-85.6-73.8C487.5,103.6,466,168.3,466,238c0,24,2.5,47.4,7.4,70h116
		c-7.4-22-11.4-45.5-11.4-70C578,196.2,589.6,157.2,609.8,123.9z"/>
</g>
</svg>
