<svg width="20" height="20" viewBox="0 0 20 20" fill="none" xmlns="http://www.w3.org/2000/svg">
<path d="M12.7771 13.5714V17.1428C12.7771 17.8003 12.2441 18.3333 11.5867 18.3333H2.85649C2.19901 18.3333 1.66602 17.8003 1.66602 17.1428V8.41264C1.66602 7.75516 2.19901 7.22217 2.85649 7.22217H6.42792V11.5872C6.42792 12.6831 7.31624 13.5714 8.41205 13.5714H12.7771Z" fill="#B4CCEF"/>
<path fill-rule="evenodd" clip-rule="evenodd" d="M8.41313 1.66663H17.1433C17.8008 1.66663 18.3338 2.19962 18.3338 2.8571V11.5873C18.3338 12.2447 17.8008 12.7777 17.1433 12.7777H8.41313C7.75565 12.7777 7.22266 12.2447 7.22266 11.5873V2.8571C7.22266 2.19962 7.75565 1.66663 8.41313 1.66663Z" fill="#1565D8"/>
</svg>
