<svg width="20" height="20" viewBox="0 0 20 20" fill="none" xmlns="http://www.w3.org/2000/svg">
<path fill-rule="evenodd" clip-rule="evenodd" d="M2.85649 1.66669H12.3803C13.0378 1.66669 13.5708 2.19968 13.5708 2.85716V12.381C13.5708 13.0385 13.0378 13.5714 12.3803 13.5714H2.85649C2.19901 13.5714 1.66602 13.0385 1.66602 12.381V2.85716C1.66602 2.19968 2.19901 1.66669 2.85649 1.66669ZM16.7457 6.42857H17.1425C17.8 6.42857 18.333 6.96157 18.333 7.61905V17.1429C18.333 17.8003 17.8 18.3333 17.1425 18.3333H7.6187C6.96122 18.3333 6.42822 17.8003 6.42822 17.1429V16.746H14.7616C15.8574 16.746 16.7457 15.8577 16.7457 14.7619V6.42857Z" fill="#1565D8"/>
<path d="M14.3653 4.04761H14.7621C15.4196 4.04761 15.9526 4.5806 15.9526 5.23808V14.7619C15.9526 15.4194 15.4196 15.9524 14.7621 15.9524H5.23833C4.58085 15.9524 4.04785 15.4194 4.04785 14.7619V14.3651H12.3812C13.477 14.3651 14.3653 13.4767 14.3653 12.3809V4.04761Z" fill="#B4CCEF"/>
</svg>
