<svg width="20" height="20" viewBox="0 0 20 20" fill="none" xmlns="http://www.w3.org/2000/svg">
<path fill-rule="evenodd" clip-rule="evenodd" d="M10.1501 5.03968H6.22998V3.8492H10.1501L9.57893 3.27804C9.34647 3.04558 9.34647 2.6687 9.57893 2.43624C9.81138 2.20379 10.1883 2.20379 10.4207 2.43624L12.008 4.02354C12.2405 4.256 12.2405 4.63288 12.008 4.86534L10.4207 6.45264C10.1883 6.68509 9.81138 6.68509 9.57893 6.45264C9.34647 6.22019 9.34647 5.8433 9.57893 5.61085L10.1501 5.03968ZM16.722 9.57911L16.1508 10.1503V6.23016H14.9603V10.1503L14.3892 9.57911C14.1567 9.34665 13.7798 9.34665 13.5474 9.57911C13.3149 9.81156 13.3149 10.1884 13.5474 10.4209L15.1347 12.0082C15.2509 12.1244 15.4033 12.1825 15.5556 12.1825C15.7079 12.1825 15.8603 12.1244 15.9765 12.0082L17.5638 10.4209C17.7962 10.1884 17.7962 9.81156 17.5638 9.57911C17.3313 9.34665 16.9544 9.34665 16.722 9.57911ZM10.4208 16.722L9.84965 16.1508H13.7698V14.9603H9.84965L10.4208 14.3892C10.6533 14.1567 10.6533 13.7798 10.4208 13.5474C10.1884 13.3149 9.81148 13.3149 9.57903 13.5474L7.99172 15.1347C7.75927 15.3671 7.75927 15.744 7.99172 15.9765L9.57903 17.5638C9.81148 17.7962 10.1884 17.7962 10.4208 17.5638C10.6533 17.3313 10.6533 16.9544 10.4208 16.722ZM3.27785 10.4209L3.84902 9.84971V13.7698H5.0395V9.84971L5.61066 10.4209C5.84312 10.6533 6.22 10.6533 6.45246 10.4209C6.68491 10.1884 6.68491 9.81154 6.45246 9.57909L4.86516 7.99179C4.6327 7.75933 4.25582 7.75933 4.02336 7.99179L2.43606 9.57909C2.20361 9.81154 2.20361 10.1884 2.43606 10.4209C2.66851 10.6533 3.0454 10.6533 3.27785 10.4209Z" fill="#B4CCEF"/>
<path fill-rule="evenodd" clip-rule="evenodd" d="M17.1429 7.22224H13.9683C13.3108 7.22224 12.7778 6.68925 12.7778 6.03177V2.85716C12.7778 2.19968 13.3108 1.66669 13.9683 1.66669H17.1429C17.8004 1.66669 18.3334 2.19968 18.3334 2.85716V6.03177C18.3334 6.68925 17.8004 7.22224 17.1429 7.22224ZM7.22157 6.03178V2.85718C7.22157 2.1997 6.68858 1.6667 6.0311 1.6667H2.85649C2.19901 1.6667 1.66602 2.1997 1.66602 2.85718V6.03178C1.66602 6.68926 2.19901 7.22226 2.85649 7.22226H6.0311C6.68858 7.22226 7.22157 6.68926 7.22157 6.03178ZM6.0311 12.7778H2.85649C2.19901 12.7778 1.66602 13.3108 1.66602 13.9683V17.1429C1.66602 17.8003 2.19901 18.3333 2.85649 18.3333H6.0311C6.68858 18.3333 7.22157 17.8003 7.22157 17.1429V13.9683C7.22157 13.3108 6.68858 12.7778 6.0311 12.7778ZM12.7773 13.9683V17.1429C12.7773 17.8003 13.3103 18.3333 13.9678 18.3333H17.1424C17.7999 18.3333 18.3329 17.8003 18.3329 17.1429V13.9683C18.3329 13.3108 17.7999 12.7778 17.1424 12.7778H13.9678C13.3103 12.7778 12.7773 13.3108 12.7773 13.9683Z" fill="#1565D8"/>
</svg>
