<?xml version="1.0" encoding="utf-8"?>
<!-- Generator: Adobe Illustrator 24.2.0, SVG Export Plug-In . SVG Version: 6.00 Build 0)  -->
<svg version="1.1" id="Слой_1" xmlns="http://www.w3.org/2000/svg" xmlns:xlink="http://www.w3.org/1999/xlink" x="0px" y="0px"
	 viewBox="0 0 86.7 16" style="enable-background:new 0 0 86.7 16;" xml:space="preserve">
<style type="text/css">
	.st0{fill:#FF5F00;}
	.st1{fill:#EB001B;}
	.st2{fill:#F79E1B;}
	.st3{fill:#7673C0;}
	.st4{fill:#00A1DF;}
	.st5{fill:#0E4595;}
</style>
<path d="M3.5,15.5v-1c0-0.4-0.2-0.6-0.6-0.6c-0.2,0-0.4,0.1-0.6,0.3c-0.1-0.2-0.3-0.3-0.5-0.3c-0.1,0-0.2,0-0.3,0.1
	c-0.1,0-0.2,0.1-0.2,0.2v-0.2H1v1.6h0.3v-0.9c0-0.3,0.2-0.4,0.4-0.4s0.4,0.1,0.4,0.4v0.9h0.3v-0.9c0-0.3,0.2-0.4,0.4-0.4
	c0.2,0,0.4,0.1,0.4,0.4v0.9H3.5z M8.7,13.9H8.1v-0.5H7.8v0.5H7.5v0.3h0.3v0.7c0,0.4,0.1,0.6,0.5,0.6c0.2,0,0.3,0,0.4-0.1l-0.1-0.3
	c-0.1,0.1-0.2,0.1-0.3,0.1c-0.2,0-0.2-0.1-0.2-0.3v-0.8h0.6L8.7,13.9L8.7,13.9z M11.6,13.8c-0.1,0-0.2,0-0.2,0.1
	c-0.1,0-0.1,0.1-0.2,0.2v-0.2h-0.3v1.6h0.3v-0.9c0-0.3,0.1-0.4,0.3-0.4c0.1,0,0.1,0,0.2,0l0.1-0.3C11.8,13.8,11.7,13.8,11.6,13.8z
	 M7.2,14c-0.2-0.1-0.4-0.2-0.6-0.2c-0.4,0-0.6,0.2-0.6,0.5c0,0.3,0.2,0.4,0.5,0.5l0.2,0c0.2,0,0.3,0.1,0.3,0.2
	c0,0.1-0.1,0.2-0.4,0.2c-0.2,0-0.4-0.1-0.5-0.2l-0.2,0.2c0.2,0.2,0.5,0.2,0.7,0.2c0.5,0,0.7-0.2,0.7-0.5c0-0.3-0.2-0.4-0.5-0.5
	l-0.2,0c-0.1,0-0.3-0.1-0.3-0.2c0-0.1,0.1-0.2,0.3-0.2c0.2,0,0.4,0.1,0.5,0.1L7.2,14z M12,14.7c0,0.5,0.3,0.8,0.8,0.8
	c0.2,0,0.4,0,0.6-0.2l-0.2-0.2c-0.1,0.1-0.3,0.1-0.4,0.1c-0.3,0-0.5-0.2-0.5-0.5s0.2-0.5,0.5-0.5c0.2,0,0.3,0.1,0.4,0.1l0.2-0.2
	c-0.2-0.1-0.3-0.2-0.6-0.2C12.3,13.8,12,14.2,12,14.7L12,14.7z M9.8,13.8c-0.5,0-0.8,0.3-0.8,0.8s0.3,0.8,0.8,0.8
	c0.2,0,0.5-0.1,0.6-0.2L10.3,15c-0.1,0.1-0.3,0.2-0.5,0.2c-0.2,0-0.4-0.1-0.5-0.4h1.2v-0.1C10.5,14.2,10.2,13.8,9.8,13.8L9.8,13.8z
	 M9.7,14.1c0.2,0,0.4,0.1,0.4,0.4H9.3C9.4,14.3,9.5,14.1,9.7,14.1z M5.5,14.7v-0.8H5.1v0.2c-0.1-0.1-0.3-0.2-0.5-0.2
	c-0.4,0-0.8,0.3-0.8,0.8s0.3,0.8,0.8,0.8c0.2,0,0.4-0.1,0.5-0.2v0.2h0.3V14.7z M4.2,14.7c0-0.3,0.2-0.5,0.5-0.5
	c0.3,0,0.5,0.2,0.5,0.5c0,0.3-0.2,0.5-0.5,0.5C4.4,15.2,4.2,15,4.2,14.7z M16.4,13.8c-0.1,0-0.2,0-0.2,0.1c-0.1,0-0.1,0.1-0.2,0.2
	v-0.2h-0.3v1.6H16v-0.9c0-0.3,0.1-0.4,0.3-0.4c0.1,0,0.1,0,0.2,0l0.1-0.3C16.6,13.8,16.5,13.8,16.4,13.8L16.4,13.8z M15.2,14.7v-0.8
	h-0.3v0.2c-0.1-0.1-0.3-0.2-0.5-0.2c-0.4,0-0.8,0.3-0.8,0.8s0.3,0.8,0.8,0.8c0.2,0,0.4-0.1,0.5-0.2v0.2h0.3V14.7z M13.9,14.7
	c0-0.3,0.2-0.5,0.5-0.5c0.3,0,0.5,0.2,0.5,0.5c0,0.3-0.2,0.5-0.5,0.5C14.1,15.2,13.9,15,13.9,14.7z M18.4,14.7v-1.4h-0.3v0.8
	c-0.1-0.1-0.3-0.2-0.5-0.2c-0.4,0-0.8,0.3-0.8,0.8s0.3,0.8,0.8,0.8c0.2,0,0.4-0.1,0.5-0.2v0.2h0.3V14.7z M17.1,14.7
	c0-0.3,0.2-0.5,0.5-0.5c0.3,0,0.5,0.2,0.5,0.5c0,0.3-0.2,0.5-0.5,0.5C17.3,15.2,17.1,15,17.1,14.7L17.1,14.7z"/>
<path class="st0" d="M6.8,1.8h5.8v9.4H6.8V1.8z"/>
<path class="st1" d="M7.4,6.5c0-0.9,0.2-1.8,0.6-2.6c0.4-0.8,1-1.5,1.7-2.1C8.8,1.1,7.7,0.7,6.6,0.5C5.5,0.4,4.4,0.6,3.4,1.1
	c-1,0.5-1.9,1.3-2.5,2.2C0.3,4.3,0,5.4,0,6.5s0.3,2.2,0.9,3.2c0.6,1,1.4,1.7,2.5,2.2c1,0.5,2.1,0.7,3.2,0.6c1.1-0.1,2.2-0.6,3.1-1.2
	C9,10.6,8.4,9.9,8,9.1C7.6,8.3,7.4,7.4,7.4,6.5z"/>
<path class="st2" d="M19.3,6.5c0,1.1-0.3,2.2-0.9,3.2c-0.6,0.9-1.4,1.7-2.5,2.2c-1,0.5-2.1,0.7-3.2,0.6c-1.1-0.1-2.2-0.5-3.1-1.2
	c0.7-0.6,1.3-1.3,1.7-2.1C11.8,8.3,12,7.4,12,6.5s-0.2-1.8-0.6-2.6c-0.4-0.8-1-1.5-1.7-2.1c0.9-0.7,1.9-1.1,3.1-1.2
	C13.8,0.4,15,0.6,16,1.1c1,0.5,1.9,1.3,2.5,2.2C19,4.3,19.3,5.4,19.3,6.5z"/>
<path d="M30.2,15.4v-1c0-0.4-0.2-0.6-0.6-0.6c-0.2,0-0.4,0.1-0.6,0.3c-0.1-0.2-0.3-0.3-0.5-0.3c-0.1,0-0.2,0-0.3,0.1
	c-0.1,0-0.2,0.1-0.2,0.2v-0.2h-0.3v1.6H28v-0.9c0-0.3,0.2-0.4,0.4-0.4c0.2,0,0.3,0.1,0.3,0.4v0.9h0.3v-0.9c0-0.3,0.2-0.4,0.4-0.4
	c0.2,0,0.3,0.1,0.3,0.4v0.9L30.2,15.4z M32.1,14.6v-0.8h-0.3V14c-0.1-0.1-0.3-0.2-0.5-0.2c-0.4,0-0.8,0.3-0.8,0.8
	c0,0.5,0.3,0.8,0.8,0.8c0.2,0,0.4-0.1,0.5-0.2v0.2h0.3V14.6z M30.8,14.6c0-0.3,0.2-0.5,0.5-0.5c0.3,0,0.5,0.2,0.5,0.5
	c0,0.3-0.2,0.5-0.5,0.5C31,15.1,30.8,14.9,30.8,14.6L30.8,14.6z M39.5,13.8c0.1,0,0.2,0,0.3,0.1c0.1,0,0.2,0.1,0.3,0.2
	c0.1,0.1,0.1,0.2,0.2,0.3c0.1,0.2,0.1,0.4,0,0.7c0,0.1-0.1,0.2-0.2,0.3c-0.1,0.1-0.2,0.1-0.3,0.2c-0.2,0.1-0.5,0.1-0.7,0
	c-0.1,0-0.2-0.1-0.3-0.2c-0.1-0.1-0.1-0.2-0.2-0.3c-0.1-0.2-0.1-0.4,0-0.7c0-0.1,0.1-0.2,0.2-0.3c0.1-0.1,0.2-0.1,0.3-0.2
	C39.3,13.8,39.4,13.8,39.5,13.8z M39.5,14.1c-0.1,0-0.1,0-0.2,0c-0.1,0-0.1,0.1-0.2,0.1c0,0-0.1,0.1-0.1,0.2c-0.1,0.1-0.1,0.3,0,0.4
	c0,0.1,0.1,0.1,0.1,0.2c0,0,0.1,0.1,0.2,0.1c0.1,0,0.3,0,0.4,0c0.1,0,0.1-0.1,0.2-0.1c0,0,0.1-0.1,0.1-0.2c0.1-0.1,0.1-0.3,0-0.4
	c0-0.1-0.1-0.1-0.1-0.2c0,0-0.1-0.1-0.2-0.1C39.6,14.1,39.5,14.1,39.5,14.1L39.5,14.1z M34,14.6c0-0.5-0.3-0.8-0.8-0.8
	c-0.5,0-0.8,0.3-0.8,0.8c0,0.5,0.3,0.8,0.8,0.8c0.2,0,0.5-0.1,0.6-0.2L33.7,15c-0.1,0.1-0.3,0.2-0.5,0.2c-0.2,0-0.4-0.1-0.5-0.4H34
	C34,14.7,34,14.7,34,14.6z M32.8,14.5c0-0.2,0.2-0.4,0.4-0.4c0.2,0,0.4,0.1,0.4,0.4H32.8z M35.4,14.3c-0.2-0.1-0.3-0.1-0.5-0.1
	c-0.2,0-0.3,0.1-0.3,0.2c0,0.1,0.1,0.1,0.3,0.2l0.2,0c0.3,0,0.6,0.2,0.6,0.5c0,0.3-0.3,0.5-0.7,0.5c-0.3,0-0.5-0.1-0.7-0.2l0.2-0.3
	c0.2,0.1,0.3,0.2,0.5,0.2c0.2,0,0.4-0.1,0.4-0.2c0-0.1-0.1-0.1-0.3-0.2l-0.2,0c-0.4,0-0.5-0.2-0.5-0.5c0-0.3,0.3-0.5,0.7-0.5
	c0.3,0,0.5,0.1,0.6,0.2L35.4,14.3z M37.1,14.2h-0.6v0.7c0,0.2,0.1,0.3,0.2,0.3c0.1,0,0.2,0,0.3-0.1l0.1,0.3
	c-0.1,0.1-0.3,0.1-0.4,0.1c-0.4,0-0.5-0.2-0.5-0.6v-0.7h-0.3v-0.3h0.3v-0.5h0.3v0.5h0.6L37.1,14.2z M38.3,13.8c0.1,0,0.2,0,0.2,0
	l-0.1,0.3c-0.1,0-0.1,0-0.2,0c-0.2,0-0.3,0.1-0.3,0.4v0.9h-0.3v-1.6h0.3V14c0-0.1,0.1-0.1,0.2-0.2C38.1,13.8,38.2,13.8,38.3,13.8
	L38.3,13.8z"/>
<path class="st3" d="M31.4,1.8h5.2v9.4h-5.2V1.8z"/>
<path class="st1" d="M31.7,6.5c0-0.9,0.2-1.8,0.6-2.6c0.4-0.8,1-1.5,1.7-2.1c-0.9-0.7-1.9-1.1-3-1.2c-1.1-0.1-2.2,0.1-3.2,0.6
	c-1,0.5-1.9,1.3-2.4,2.2c-0.6,0.9-0.9,2-0.9,3.2s0.3,2.2,0.9,3.2c0.6,0.9,1.4,1.7,2.4,2.2c1,0.5,2.1,0.7,3.2,0.6
	c1.1-0.1,2.2-0.5,3-1.2c-0.7-0.6-1.3-1.3-1.7-2.1C31.9,8.3,31.7,7.4,31.7,6.5z"/>
<path class="st4" d="M43.6,6.5c0,1.1-0.3,2.2-0.9,3.2c-0.6,0.9-1.4,1.7-2.4,2.2c-1,0.5-2.1,0.7-3.2,0.6s-2.2-0.5-3-1.2
	c0.7-0.6,1.3-1.3,1.7-2.1c0.4-0.8,0.6-1.7,0.6-2.6c0-0.9-0.2-1.8-0.6-2.6c-0.4-0.8-1-1.5-1.7-2.1c0.9-0.7,1.9-1.1,3-1.2
	c1.1-0.1,2.2,0.1,3.2,0.6c1,0.5,1.9,1.3,2.4,2.2C43.3,4.3,43.6,5.4,43.6,6.5z"/>
<path class="st5" d="M62.1,14L64,2.4h3.1L65.2,14H62.1z M76.3,2.6c-0.6-0.2-1.6-0.5-2.8-0.5c-3,0-5.2,1.6-5.2,3.8
	c0,1.7,1.5,2.6,2.7,3.2c1.2,0.6,1.6,0.9,1.6,1.4c0,0.8-1,1.1-1.8,1.1c-1.2,0-1.9-0.2-2.9-0.6l-0.4-0.2l-0.4,2.6
	c0.7,0.3,2,0.6,3.4,0.6c3.2,0,5.3-1.6,5.3-4c0-1.3-0.8-2.3-2.6-3.2c-1.1-0.5-1.7-0.9-1.7-1.4c0-0.5,0.6-1,1.8-1c1,0,1.7,0.2,2.3,0.4
	l0.3,0.1L76.3,2.6z M84.2,2.4h-2.4c-0.7,0-1.3,0.2-1.6,1l-4.6,10.6h3.2c0,0,0.5-1.4,0.6-1.7c0.4,0,3.5,0,3.9,0
	c0.1,0.4,0.4,1.7,0.4,1.7h2.8L84.2,2.4z M80.4,9.8c0.3-0.7,1.2-3.2,1.2-3.2c0,0,0.3-0.7,0.4-1.1l0.2,1c0,0,0.6,2.8,0.7,3.3L80.4,9.8
	L80.4,9.8z"/>
<path class="st5" d="M48.4,2.1l0,0.2c1.2,0.3,2.3,0.7,3.3,1.3l2.8,9.9l3.3,0l4.9-11.4h-3.3l-3.1,7.8L56,8.3c0,0,0-0.1,0-0.1
	l-1.1-5.1c-0.2-0.7-0.7-0.9-1.4-1L48.4,2.1L48.4,2.1z"/>
</svg>
