<?xml version="1.0" encoding="utf-8"?>
<!-- Generator: Adobe Illustrator 24.2.0, SVG Export Plug-In . SVG Version: 6.00 Build 0)  -->
<svg version="1.1" id="Слой_1" xmlns="http://www.w3.org/2000/svg" xmlns:xlink="http://www.w3.org/1999/xlink" x="0px" y="0px"
	 viewBox="0 0 86.7 16" style="enable-background:new 0 0 86.7 16;" xml:space="preserve">
<style type="text/css">
	.st0{fill-rule:evenodd;clip-rule:evenodd;}
	.st1{fill-rule:evenodd;clip-rule:evenodd;fill:#4285F4;}
	.st2{fill-rule:evenodd;clip-rule:evenodd;fill:#34A853;}
	.st3{fill-rule:evenodd;clip-rule:evenodd;fill:#FABB05;}
	.st4{fill-rule:evenodd;clip-rule:evenodd;fill:#E94235;}
</style>
<path class="st0" d="M65.6,2.3v4h2.5c0.6,0,1.1-0.2,1.5-0.6c0.4-0.4,0.6-0.9,0.6-1.4c0-0.5-0.2-1-0.6-1.4c-0.4-0.4-0.9-0.6-1.5-0.6
	L65.6,2.3L65.6,2.3z M65.6,7.8v4.7h-1.5V0.9H68c1,0,1.8,0.3,2.5,1c0.7,0.7,1.1,1.5,1.1,2.4c0,1-0.4,1.8-1.1,2.5
	c-0.7,0.7-1.5,1-2.5,1L65.6,7.8L65.6,7.8z M73.1,10.1c0,0.4,0.2,0.7,0.5,1c0.3,0.3,0.7,0.4,1.1,0.4c0.6,0,1.2-0.2,1.7-0.7
	c0.5-0.5,0.7-1,0.7-1.6c-0.5-0.4-1.1-0.5-1.9-0.5c-0.6,0-1.1,0.1-1.5,0.4C73.3,9.3,73.1,9.6,73.1,10.1z M75,4.3c1.1,0,2,0.3,2.6,0.9
	c0.6,0.6,0.9,1.4,0.9,2.4v4.9h-1.4v-1.1h-0.1c-0.6,0.9-1.4,1.4-2.4,1.4c-0.9,0-1.6-0.3-2.2-0.8c-0.6-0.5-0.9-1.2-0.9-1.9
	c0-0.8,0.3-1.5,0.9-2c0.6-0.5,1.4-0.7,2.5-0.7c0.9,0,1.6,0.2,2.2,0.5V7.5c0-0.5-0.2-1-0.6-1.3c-0.4-0.4-0.9-0.5-1.4-0.5
	c-0.8,0-1.5,0.3-2,1.1l-1.3-0.8C72.6,4.8,73.6,4.3,75,4.3z M86.7,4.6L81.7,16h-1.5l1.8-4l-3.2-7.4h1.6l2.3,5.7h0l2.3-5.7L86.7,4.6z"
	/>
<path class="st1" d="M59.6,6.8c0-0.5,0-0.9-0.1-1.4h-6.2V8h3.6c-0.1,0.4-0.2,0.8-0.5,1.1c-0.2,0.3-0.5,0.6-0.9,0.9v1.7h2.1
	C58.9,10.5,59.6,8.8,59.6,6.8z"/>
<path class="st2" d="M53.3,13.3c1.8,0,3.3-0.6,4.4-1.6L55.5,10c-0.6,0.4-1.4,0.6-2.2,0.6c-1.7,0-3.2-1.2-3.7-2.7h-2.2v1.7
	c0.6,1.1,1.4,2,2.4,2.7C50.8,13,52,13.3,53.3,13.3"/>
<path class="st3" d="M49.6,7.9c-0.3-0.8-0.3-1.7,0-2.5V3.7h-2.2c-0.5,0.9-0.7,1.9-0.7,3c0,1.1,0.3,2.1,0.7,3L49.6,7.9L49.6,7.9z"/>
<path class="st4" d="M53.3,2.6c1,0,1.8,0.3,2.5,1v0l1.9-1.9C56.5,0.7,55.1,0,53.3,0c-1.2,0-2.4,0.3-3.5,1c-1,0.6-1.9,1.6-2.4,2.7
	l2.2,1.7C50.1,3.8,51.5,2.6,53.3,2.6"/>
</svg>
