<svg xmlns="http://www.w3.org/2000/svg" viewBox="0 0 305.35 93.29"><defs><style>.cls-1,.cls-11,.cls-2{fill:#4378bc;}.cls-1,.cls-2,.cls-5,.cls-6{stroke:#231f20;stroke-miterlimit:10;}.cls-2{stroke-width:0.5px;}.cls-3{fill:#fff;}.cls-4{fill:#f15a29;}.cls-5,.cls-6{fill:none;stroke-linecap:round;}.cls-6{stroke-width:0.75px;}.cls-10,.cls-7{font-size:12px;fill:#6d6e71;font-family:Arial-BoldMT, Arial;font-weight:700;}.cls-7{letter-spacing:-0.05em;}.cls-8{letter-spacing:0.03em;}.cls-9{letter-spacing:0.01em;}.cls-10{letter-spacing:0.03em;}.cls-12{fill:#3954a5;}</style></defs><g id="Layer_2" data-name="Layer 2"><g id="Layer_4" data-name="Layer 4"><rect class="cls-1" x="4.61" y="1.95" width="45.77" height="89.4" rx="8.28" transform="translate(5.58 -2.87) rotate(6.64)"/><rect class="cls-2" x="6.77" y="5.96" width="41.45" height="80.04" rx="5.97" transform="translate(5.5 -2.87) rotate(6.64)"/><path class="cls-3" d="M20.94,49.82H13.4a14.57,14.57,0,0,1,1.67-11.54L19,46l1.42,2.79Z"/><path class="cls-4" d="M42.13,46a14.58,14.58,0,0,1-1.49,6.43,13.12,13.12,0,0,1-1,1.71l-.87-1.71-1.31-2.58-2.63-5.16-1.42-2.79L33,41h8.27A14.39,14.39,0,0,1,42.13,46Z"/><path class="cls-3" d="M40.05,38.47H26l1.46-2.72L28.89,33l.78-1.46A14.6,14.6,0,0,1,39,36.93,13.56,13.56,0,0,1,40.05,38.47Z"/><path class="cls-3" d="M26.83,31.37,26,32.94h0l-3,5.51L21.64,41l-1.17,2.18L19.36,41l-1.31-2.58L16.8,36A14.55,14.55,0,0,1,26.83,31.37Z"/><path class="cls-3" d="M27.76,52.41l-1.34,2.5-1.48,2.76h0l-1.3,2.41A14.58,14.58,0,0,1,15,53.49a11.3,11.3,0,0,1-.59-1.08Z"/><path class="cls-3" d="M37.87,56.3A14.72,14.72,0,0,1,27.5,60.61a10,10,0,0,1-1.1,0l0-.08,1.48-2.77,2.85-5.3,1.38-2.58,1.29-2.39,1.21,2.39,1.32,2.58Z"/><line class="cls-5" x1="26.44" y1="3.55" x2="36.12" y2="4.68"/><circle class="cls-6" cx="38.13" cy="4.91" r="0.3"/><text class="cls-7" transform="translate(61.19 83.59) scale(1 1.11)">P<tspan class="cls-8" x="7.44" y="0">ASSPORT PHO</tspan><tspan class="cls-9" x="98.35" y="0">T</tspan><tspan class="cls-8" x="105.78" y="0">OS JUST GOT EASIER</tspan></text><text class="cls-10" transform="translate(301.5 83.59) scale(1 1.14)">.</text><path class="cls-11" d="M72.68,14.43q10.38,0,10.39,8.38Q83.07,32,71.72,32H70.51v5.07c0,.67-.31,1-.93,1H64.37c-.62,0-.93-.34-.93-1V15.44c0-.68.31-1,.93-1ZM72.15,25q3.54,0,3.54-1.92c0-1.11-1.18-1.66-3.54-1.66H70.51V25Z"/><path class="cls-11" d="M110.07,37.27a1.43,1.43,0,0,1,.12.37.35.35,0,0,1,0,.14c0,.15-.1.26-.31.3l-5.67.07A1.66,1.66,0,0,1,102.6,37l-.93-2.37a1.37,1.37,0,0,0-.34-.56,1.09,1.09,0,0,0-.69-.18H93.73a.81.81,0,0,0-.57.18,1.26,1.26,0,0,0-.33.56l-.93,2.3a1.66,1.66,0,0,1-1.64,1.18l-5.61,0c-.21,0-.31-.16-.31-.34a.35.35,0,0,1,0-.14c0-.13.08-.26.12-.37l8.74-21.76a1.76,1.76,0,0,1,.58-.79,1.59,1.59,0,0,1,.91-.22l1.55,0c.27,0,.66,0,1.18,0H100a1.16,1.16,0,0,1,1.12.77ZM97.2,22.47h0l-1.8,5a.89.89,0,0,0-.06.3c0,.25.17.38.5.41l2.73,0c.33,0,.49-.12.49-.37a.89.89,0,0,0-.06-.3Z"/><path class="cls-11" d="M121,38.05a18.28,18.28,0,0,1-7.78-1.73,1.25,1.25,0,0,1-.28-.15,2.07,2.07,0,0,0-.25-.15.67.67,0,0,1-.31-.58.89.89,0,0,1,.06-.3l1.77-4.39a.59.59,0,0,1,.53-.41.87.87,0,0,1,.31.07l1.5.64a12.34,12.34,0,0,0,1.43.54,10.47,10.47,0,0,0,1.49.37,11.62,11.62,0,0,0,1.66.17l.74,0,.37,0a2.37,2.37,0,0,0,.9-.17.84.84,0,0,0,.6-.53,1.89,1.89,0,0,0,.11-.62,1.12,1.12,0,0,0,0-.24.82.82,0,0,0-.65-.64q-.52-.13-.93-.27c-.81-.22-1.61-.44-2.42-.64s-1.6-.43-2.38-.68a7.93,7.93,0,0,1-1.69-.71,7.41,7.41,0,0,1-1.51-1.11,5.58,5.58,0,0,1-1.64-3.68c0-.3,0-.59,0-.88s0-.71.08-1.19a5.55,5.55,0,0,1,.45-1.58,5.86,5.86,0,0,1,1.16-1.86A7.49,7.49,0,0,1,116,16a11,11,0,0,1,5.08-1.56c.37,0,.75,0,1.12,0a19.46,19.46,0,0,1,3.44.33,15.59,15.59,0,0,1,3.81,1.29.81.81,0,0,1,.5.71,1.11,1.11,0,0,1-.1.44l-1.64,4.29a.49.49,0,0,1-.46.34.64.64,0,0,1-.22,0l-1-.35q-.69-.26-1.59-.51a17,17,0,0,0-1.79-.4,9.37,9.37,0,0,0-1.53-.16l-.6,0a1.82,1.82,0,0,0-.92.32,1,1,0,0,0-.46.91v.17a.77.77,0,0,0,.62.78,28.25,28.25,0,0,0,2.82.81c1,.23,1.9.47,2.85.75a8.77,8.77,0,0,1,1.58.62,7.66,7.66,0,0,1,1.46,1,5.68,5.68,0,0,1,2,4.5q0,.41,0,.81a7.32,7.32,0,0,1-1.11,3.38,6.91,6.91,0,0,1-2.55,2.29,9,9,0,0,1-3.07,1.12A20.55,20.55,0,0,1,121,38.05Z"/><path class="cls-11" d="M142.59,38.05a18.36,18.36,0,0,1-7.79-1.73,1.17,1.17,0,0,1-.27-.15l-.25-.15a.65.65,0,0,1-.31-.58.89.89,0,0,1,.06-.3l1.77-4.39a.58.58,0,0,1,.52-.41.82.82,0,0,1,.31.07l1.51.64a12.19,12.19,0,0,0,1.42.54,11.18,11.18,0,0,0,1.49.37,11.78,11.78,0,0,0,1.66.17l.74,0,.38,0a2.28,2.28,0,0,0,.89-.17.85.85,0,0,0,.61-.53,2.2,2.2,0,0,0,.11-.62,1.12,1.12,0,0,0,0-.24.84.84,0,0,0-.65-.64q-.54-.13-.93-.27c-.81-.22-1.62-.44-2.42-.64s-1.6-.43-2.39-.68a8.16,8.16,0,0,1-1.69-.71,7.09,7.09,0,0,1-1.5-1.11,5.63,5.63,0,0,1-1.65-3.68c0-.3,0-.59,0-.88s0-.71.08-1.19a5.55,5.55,0,0,1,.45-1.58,6,6,0,0,1,1.16-1.86A7.72,7.72,0,0,1,137.53,16a11,11,0,0,1,5.09-1.56q.56,0,1.11,0a19.37,19.37,0,0,1,3.44.33A15.8,15.8,0,0,1,151,16.05a.8.8,0,0,1,.49.71,1.28,1.28,0,0,1-.09.44l-1.64,4.29a.5.5,0,0,1-.47.34.69.69,0,0,1-.22,0l-1-.35c-.47-.17-1-.34-1.6-.51a16.79,16.79,0,0,0-1.78-.4,9.48,9.48,0,0,0-1.53-.16l-.61,0a1.79,1.79,0,0,0-.91.32,1,1,0,0,0-.47.91v.17a.78.78,0,0,0,.62.78,28.25,28.25,0,0,0,2.82.81c1,.23,1.9.47,2.85.75a8.49,8.49,0,0,1,1.58.62,7.36,7.36,0,0,1,1.46,1,5.66,5.66,0,0,1,2,4.5q0,.41,0,.81a7.45,7.45,0,0,1-1.12,3.38,7,7,0,0,1-2.54,2.29,9.1,9.1,0,0,1-3.07,1.12A20.65,20.65,0,0,1,142.59,38.05Z"/><path class="cls-11" d="M166,14.43q10.38,0,10.39,8.38,0,9.18-11.35,9.19h-1.21v5.07c0,.67-.31,1-.93,1h-5.21c-.62,0-.93-.34-.93-1V15.44c0-.68.31-1,.93-1ZM165.49,25Q169,25,169,23.08c0-1.11-1.18-1.66-3.54-1.66h-1.64V25Z"/><path class="cls-11" d="M194.82,38a13,13,0,0,1-4.37.75,13.19,13.19,0,0,1-8.26-2.88A9.93,9.93,0,0,1,179.27,32a14.08,14.08,0,0,1-1.1-5.71,14.12,14.12,0,0,1,1.1-5.71,10.07,10.07,0,0,1,2.92-3.92,13.56,13.56,0,0,1,3.9-2.14,13.42,13.42,0,0,1,8.73,0,13.53,13.53,0,0,1,3.92,2.14,10.07,10.07,0,0,1,2.92,3.92,14.12,14.12,0,0,1,1.1,5.71,14.08,14.08,0,0,1-1.1,5.71,9.93,9.93,0,0,1-2.92,3.92A13,13,0,0,1,194.82,38Zm-4.37-6A4.55,4.55,0,0,0,194,30.49a6.07,6.07,0,0,0,1.37-4.24A6.11,6.11,0,0,0,194,22a5,5,0,0,0-7.1,0,6.15,6.15,0,0,0-1.36,4.24,6.12,6.12,0,0,0,1.36,4.24A4.54,4.54,0,0,0,190.45,32Z"/><path class="cls-11" d="M227.15,36.86a1.25,1.25,0,0,1,.19.61.87.87,0,0,1-.12.37q-.14.24-.69.24h-6.26a1.29,1.29,0,0,1-1.12-.68l-3.9-6.55h-1.4v6.22c0,.67-.31,1-.93,1h-5.2c-.62,0-.93-.34-.93-1V15.44c0-.68.31-1,.93-1H216a19.87,19.87,0,0,1,3.74.33A12.44,12.44,0,0,1,223,15.9a5.89,5.89,0,0,1,2.43,2.29,7,7,0,0,1,.89,3.6c0,3.41-1.32,5.87-3.94,7.4ZM215.5,21.42h-1.65v3.25h1.65c2.35,0,3.53-.6,3.53-1.79a1.15,1.15,0,0,0-.85-1.14A8.31,8.31,0,0,0,215.5,21.42Z"/><path class="cls-11" d="M243.92,20.78a.88.88,0,0,0-.69.29,1.05,1.05,0,0,0-.27.76V37.07a1.15,1.15,0,0,1-.21.79,1,1,0,0,1-.72.22H237a1.05,1.05,0,0,1-.79-.22A1.29,1.29,0,0,1,236,37V21.83a1.05,1.05,0,0,0-.27-.76.88.88,0,0,0-.69-.29h-4.59a1.09,1.09,0,0,1-.78-.22,1.22,1.22,0,0,1-.21-.83V15.44c0-.68.31-1,.93-1H248.6c.62,0,.93.33.93,1v4.29a1.22,1.22,0,0,1-.21.83,1.09,1.09,0,0,1-.78.22Z"/><path class="cls-11" d="M72.68,42.43q10.38,0,10.39,8.38Q83.07,60,71.72,60H70.51v5.07c0,.67-.31,1-.93,1H64.37c-.62,0-.93-.34-.93-1V43.44c0-.68.31-1,.93-1ZM72.15,53q3.54,0,3.54-1.92c0-1.11-1.18-1.66-3.54-1.66H70.51V53Z"/><path class="cls-11" d="M101.17,43.44c0-.68.31-1,.93-1h5.21c.62,0,.93.33.93,1V65.07c0,.67-.31,1-.93,1H102.1c-.62,0-.93-.34-.93-1V57.94H94.41v7.13c0,.67-.31,1-.93,1H88.27c-.62,0-.93-.34-.93-1V43.44c0-.68.31-1,.93-1h5.21c.62,0,.93.33.93,1v7.5h6.76Z"/><path class="cls-11" d="M153,48.78a.92.92,0,0,0-.7.29,1.09,1.09,0,0,0-.26.76V65.07a1.1,1.1,0,0,1-.22.79.94.94,0,0,1-.71.22h-5.05a1.05,1.05,0,0,1-.79-.22,1.29,1.29,0,0,1-.2-.86V49.83a1.05,1.05,0,0,0-.27-.76.9.9,0,0,0-.7-.29h-4.58a1.07,1.07,0,0,1-.78-.22,1.22,1.22,0,0,1-.21-.83V43.44c0-.68.31-1,.93-1h18.22c.62,0,.93.33.93,1v4.29a1.22,1.22,0,0,1-.21.83,1.09,1.09,0,0,1-.78.22Z"/><path class="cls-11" d="M176.72,66a13,13,0,0,1-4.37.75,13.25,13.25,0,0,1-8.27-2.88A9.91,9.91,0,0,1,161.17,60a15.37,15.37,0,0,1,0-11.42,10.05,10.05,0,0,1,2.91-3.92A13.61,13.61,0,0,1,168,42.48a13.08,13.08,0,0,1,4.36-.73,13.23,13.23,0,0,1,4.37.73,13.53,13.53,0,0,1,3.92,2.14,10,10,0,0,1,2.91,3.92,14,14,0,0,1,1.1,5.71,13.92,13.92,0,0,1-1.1,5.71,9.82,9.82,0,0,1-2.91,3.92A13,13,0,0,1,176.72,66Zm-4.37-6a4.57,4.57,0,0,0,3.56-1.51,6.07,6.07,0,0,0,1.36-4.24A6.1,6.1,0,0,0,175.91,50a5,5,0,0,0-7.1,0,6.1,6.1,0,0,0-1.36,4.24,6.07,6.07,0,0,0,1.36,4.24A4.54,4.54,0,0,0,172.35,60Z"/><path class="cls-11" d="M197.24,66.05a18.28,18.28,0,0,1-7.78-1.73,1.06,1.06,0,0,1-.28-.15l-.25-.15a.65.65,0,0,1-.31-.58.89.89,0,0,1,.06-.3l1.77-4.39a.58.58,0,0,1,.53-.41.92.92,0,0,1,.31.07l1.5.64a12.34,12.34,0,0,0,1.43.54,10.68,10.68,0,0,0,1.48.37,11.78,11.78,0,0,0,1.66.17l.75,0,.37,0a2.37,2.37,0,0,0,.9-.17.84.84,0,0,0,.6-.53,2.2,2.2,0,0,0,.11-.62,1.12,1.12,0,0,0,0-.24.82.82,0,0,0-.65-.64q-.53-.13-.93-.27c-.81-.22-1.61-.44-2.42-.64s-1.6-.43-2.39-.68a8.16,8.16,0,0,1-1.69-.71,7.64,7.64,0,0,1-1.5-1.11,5.58,5.58,0,0,1-1.64-3.68c0-.3,0-.59,0-.88a11.58,11.58,0,0,1,.07-1.19,6.78,6.78,0,0,1,1.62-3.44A7.43,7.43,0,0,1,192.18,44a11.07,11.07,0,0,1,5.09-1.56c.37,0,.74,0,1.12,0a19.46,19.46,0,0,1,3.44.33,15.59,15.59,0,0,1,3.81,1.29.81.81,0,0,1,.5.71,1.31,1.31,0,0,1-.1.44l-1.64,4.29a.49.49,0,0,1-.47.34.59.59,0,0,1-.21,0l-1-.35c-.46-.17-1-.34-1.6-.51a16.79,16.79,0,0,0-1.78-.4,9.48,9.48,0,0,0-1.53-.16l-.61,0a1.79,1.79,0,0,0-.91.32,1,1,0,0,0-.47.91v.17a.78.78,0,0,0,.62.78,28.25,28.25,0,0,0,2.82.81c.95.23,1.91.47,2.86.75a9.07,9.07,0,0,1,1.58.62,7.59,7.59,0,0,1,1.45,1,5.66,5.66,0,0,1,2.05,4.5q0,.4,0,.81a7.33,7.33,0,0,1-1.12,3.38,6.88,6.88,0,0,1-2.54,2.29,9,9,0,0,1-3.07,1.12A20.65,20.65,0,0,1,197.24,66.05Z"/><path class="cls-11" d="M213.92,59.26a3,3,0,0,1,1.31.28,3.28,3.28,0,0,1,1.06.78,3.84,3.84,0,0,1,.71,1.15,3.67,3.67,0,0,1,.26,1.4,3.77,3.77,0,0,1-.26,1.42,3.82,3.82,0,0,1-.71,1.17,3.4,3.4,0,0,1-1.06.77,3,3,0,0,1-1.31.29,3,3,0,0,1-1.29-.29,3.48,3.48,0,0,1-1-.77,3.84,3.84,0,0,1-.72-1.17,4,4,0,0,1-.26-1.42,3.72,3.72,0,0,1,1-2.55,3.35,3.35,0,0,1,1-.78A3,3,0,0,1,213.92,59.26Z"/><path class="cls-11" d="M232.86,66.76a16,16,0,0,1-3.63-.41A12,12,0,0,1,225.88,65a10.59,10.59,0,0,1-2.79-2.37,11,11,0,0,1-1.89-3.56,16.68,16.68,0,0,1,0-9.63,11.17,11.17,0,0,1,1.89-3.57,10.74,10.74,0,0,1,2.79-2.36,12,12,0,0,1,3.35-1.35,16,16,0,0,1,3.63-.41,12.39,12.39,0,0,1,8.24,2.84,1,1,0,0,1,.41.78,1.5,1.5,0,0,1-.16.6l-2.23,4.2c-.19.36-.41.54-.68.54a1,1,0,0,1-.62-.31,7.42,7.42,0,0,0-5-1.89,4.68,4.68,0,0,0-3.6,1.52,6,6,0,0,0-1.39,4.22,6,6,0,0,0,1.38,4.28A4.72,4.72,0,0,0,232.86,60a7.85,7.85,0,0,0,5-1.83,1,1,0,0,1,.62-.27c.25,0,.46.18.65.54l2.26,4.4a1.6,1.6,0,0,1,.19.67.7.7,0,0,1-.28.58A12.53,12.53,0,0,1,237.46,66,15,15,0,0,1,232.86,66.76Z"/><path class="cls-11" d="M261.22,66a12.91,12.91,0,0,1-4.37.75,13.19,13.19,0,0,1-8.26-2.88A9.93,9.93,0,0,1,245.67,60a15.37,15.37,0,0,1,0-11.42,10.07,10.07,0,0,1,2.92-3.92,13.56,13.56,0,0,1,3.9-2.14,13.42,13.42,0,0,1,8.73,0,13.4,13.4,0,0,1,3.92,2.14,10.07,10.07,0,0,1,2.92,3.92,15.37,15.37,0,0,1,0,11.42,9.93,9.93,0,0,1-2.92,3.92A12.92,12.92,0,0,1,261.22,66Zm-4.37-6a4.57,4.57,0,0,0,3.57-1.51,6.12,6.12,0,0,0,1.36-4.24A6.15,6.15,0,0,0,260.42,50a4.6,4.6,0,0,0-3.57-1.5,4.53,4.53,0,0,0-3.53,1.5A6.11,6.11,0,0,0,252,54.25a6.07,6.07,0,0,0,1.37,4.24A4.5,4.5,0,0,0,256.85,60Z"/><path class="cls-11" d="M290.55,43.34a1.59,1.59,0,0,1,.6-.68,1.61,1.61,0,0,1,.82-.23h5.18a1.24,1.24,0,0,1,1,.44,1.5,1.5,0,0,1,.38,1V64.56a1.55,1.55,0,0,1-.38,1.08,1.27,1.27,0,0,1-1,.44h-4.22a1.27,1.27,0,0,1-1-.44,1.52,1.52,0,0,1-.4-1.08V53.65L287,62.16a1,1,0,0,1-1,.61h-.68a1,1,0,0,1-.93-.61L280,53.65V64.56a1.53,1.53,0,0,1-.41,1.08,1.31,1.31,0,0,1-1,.44h-4.18a1.31,1.31,0,0,1-1-.44,1.52,1.52,0,0,1-.4-1.08V43.91a1.47,1.47,0,0,1,.4-1,1.28,1.28,0,0,1,1-.44h5.17a1.61,1.61,0,0,1,.82.23,1.68,1.68,0,0,1,.61.68l4.77,9.16Z"/><path class="cls-11" d="M118.82,57.79h-6.55a12.3,12.3,0,0,1-.45-3.34,12.61,12.61,0,0,1,1.9-6.69l3.41,6.7,1.23,2.42Z"/><path class="cls-12" d="M137.24,54.45a12.52,12.52,0,0,1-2.15,7.07L134.33,60l-1.14-2.25-2.29-4.48-1.23-2.43-.36-.72h7.18A12.44,12.44,0,0,1,137.24,54.45Z"/><path class="cls-11" d="M135.43,47.92H123.18l1.26-2.36,1.29-2.41.68-1.27a12.68,12.68,0,0,1,8.1,4.71A11.22,11.22,0,0,1,135.43,47.92Z"/><path class="cls-11" d="M123.94,41.76l-.74,1.36h0l-2.57,4.79-1.2,2.24-1,1.9-1-1.9-1.14-2.24-1.09-2.13A12.6,12.6,0,0,1,123.94,41.76Z"/><path class="cls-11" d="M124.75,60l-1.17,2.17-1.28,2.4h0l-1.13,2.1A12.69,12.69,0,0,1,113.62,61a10.62,10.62,0,0,1-.51-.94Z"/><path class="cls-11" d="M133.54,63.42a12.65,12.65,0,0,1-7.49,3.65,11,11,0,0,1-1.53.1c-.32,0-.64,0-1,0l0-.07,1.29-2.41L127.3,60l1.2-2.24,1.12-2.08,1,2.08L131.82,60Z"/></g></g></svg>