<?xml version="1.0" encoding="utf-8"?>
<!-- Generator: Adobe Illustrator 26.5.0, SVG Export Plug-In . SVG Version: 6.00 Build 0)  -->
<svg version="1.1" id="Layer_1" xmlns="http://www.w3.org/2000/svg" xmlns:xlink="http://www.w3.org/1999/xlink" x="0px" y="0px"
	 viewBox="0 0 315.2 83.8" style="enable-background:new 0 0 315.2 83.8;" xml:space="preserve">
<style type="text/css">
	.st0{fill:#231F20;}
	.st1{fill:#1C75BC;}
	.st2{fill:#0DC6ED;}
	.st3{opacity:0.75;fill:#08E1FE;}
	.st4{opacity:0.75;fill:#1C75BC;}
	.st5{opacity:0.5;fill:#1C75BC;}
	.st6{opacity:0.75;}
	.st7{fill:#08E1FE;}
	.st8{opacity:0.5;fill:#08E1FE;}
	.st9{opacity:0.75;fill:#231F20;}
	.st10{opacity:0.5;fill:#231F20;}
	.st11{fill:#FFFFFF;}
	.st12{opacity:0.75;fill:#FFFFFF;}
	.st13{opacity:0.5;fill:#FFFFFF;}
</style>
<g>
	<g>
		<path class="st0" d="M119.9,77.9c-0.2-0.2-0.5-0.3-0.7-0.4c-0.3-0.1-0.5-0.2-0.8-0.3l-0.9-0.3c-0.2-0.1-0.4-0.1-0.6-0.2
			c-0.2-0.1-0.4-0.2-0.5-0.3s-0.3-0.3-0.4-0.4c-0.1-0.2-0.1-0.4-0.1-0.6c0-0.3,0.1-0.6,0.3-0.8c0.2-0.2,0.4-0.4,0.7-0.5
			c0.3-0.1,0.6-0.2,1-0.2c0.5,0,1,0.1,1.4,0.4c0.4,0.3,0.6,0.6,0.6,1.1h0.7c0-0.4-0.1-0.8-0.4-1.1c-0.2-0.3-0.5-0.6-0.9-0.8
			c-0.4-0.2-0.9-0.3-1.4-0.3c-0.5,0-1,0.1-1.4,0.3s-0.7,0.5-1,0.8c-0.2,0.3-0.4,0.7-0.4,1.2c0,0.5,0.2,1,0.5,1.3
			c0.4,0.3,0.9,0.6,1.5,0.8l1,0.3c0.3,0.1,0.6,0.2,0.9,0.3s0.5,0.3,0.6,0.5s0.2,0.4,0.2,0.7c0,0.3-0.1,0.6-0.3,0.9
			c-0.2,0.3-0.4,0.4-0.8,0.6c-0.3,0.1-0.7,0.2-1.1,0.2c-0.4,0-0.7-0.1-1-0.2c-0.3-0.1-0.5-0.3-0.7-0.5c-0.2-0.2-0.3-0.5-0.3-0.8
			h-0.8c0,0.4,0.2,0.8,0.4,1.2c0.2,0.3,0.6,0.6,1,0.8c0.4,0.2,0.9,0.3,1.5,0.3c0.6,0,1.1-0.1,1.5-0.3c0.4-0.2,0.8-0.5,1-0.8
			c0.2-0.4,0.3-0.8,0.3-1.2c0-0.3-0.1-0.6-0.2-0.9C120.3,78.3,120.2,78.1,119.9,77.9z"/>
		<polygon class="st0" points="122.7,77.8 126.5,77.8 126.5,77.1 122.7,77.1 122.7,74 126.7,74 126.7,73.3 121.9,73.3 121.9,81.6 
			126.8,81.6 126.8,81 122.7,81 		"/>
		<polygon class="st0" points="128.9,77.8 132.7,77.8 132.7,77.1 128.9,77.1 128.9,74 133,74 133,73.3 128.1,73.3 128.1,81.6 
			133,81.6 133,81 128.9,81 		"/>
		<rect x="134.3" y="73.3" class="st0" width="0.8" height="8.3"/>
		<polygon class="st0" points="142.5,80.3 142.4,80.3 137.5,73.3 136.7,73.3 136.7,81.6 137.5,81.6 137.5,74.7 137.6,74.7 
			142.5,81.6 143.2,81.6 143.2,73.3 142.5,73.3 		"/>
		<path class="st0" d="M148.3,78.3h2.4c0,0.5-0.1,1-0.3,1.4c-0.2,0.4-0.5,0.7-0.9,1c-0.4,0.2-0.8,0.3-1.4,0.3
			c-0.6,0-1.1-0.1-1.5-0.4c-0.4-0.3-0.8-0.7-1-1.2c-0.2-0.5-0.4-1.2-0.4-1.9c0-0.7,0.1-1.4,0.4-1.9c0.2-0.5,0.6-0.9,1-1.2
			c0.4-0.3,0.9-0.4,1.5-0.4c0.3,0,0.7,0.1,0.9,0.2c0.3,0.1,0.5,0.2,0.7,0.4c0.2,0.2,0.4,0.4,0.5,0.6c0.1,0.2,0.3,0.5,0.3,0.8h0.8
			c-0.1-0.4-0.2-0.7-0.4-1c-0.2-0.3-0.4-0.6-0.7-0.9c-0.3-0.3-0.6-0.4-1-0.6c-0.4-0.1-0.8-0.2-1.2-0.2c-0.5,0-1,0.1-1.4,0.3
			c-0.4,0.2-0.8,0.5-1.1,0.9c-0.3,0.4-0.6,0.8-0.7,1.3c-0.2,0.5-0.3,1.1-0.3,1.8c0,0.9,0.2,1.6,0.5,2.3s0.7,1.1,1.3,1.5
			c0.5,0.4,1.2,0.5,1.9,0.5c0.6,0,1.2-0.1,1.7-0.4c0.5-0.3,0.9-0.7,1.2-1.2c0.3-0.5,0.4-1.1,0.4-1.8v-0.7h-3.2V78.3z"/>
		<polygon class="st0" points="154.9,74 157.5,74 157.5,81.6 158.3,81.6 158.3,74 160.9,74 160.9,73.3 154.9,73.3 		"/>
		<polygon class="st0" points="167.5,77.1 162.8,77.1 162.8,73.3 162,73.3 162,81.6 162.8,81.6 162.8,77.8 167.5,77.8 167.5,81.6 
			168.3,81.6 168.3,73.3 167.5,73.3 		"/>
		<polygon class="st0" points="170.7,77.8 174.5,77.8 174.5,77.1 170.7,77.1 170.7,74 174.7,74 174.7,73.3 169.9,73.3 169.9,81.6 
			174.8,81.6 174.8,81 170.7,81 		"/>
		<polygon class="st0" points="185.3,80.5 185.3,80.5 183.4,73.3 182.5,73.3 180.6,80.5 180.6,80.5 178.7,73.3 177.9,73.3 
			180.2,81.6 181,81.6 182.9,74.6 183,74.6 184.9,81.6 185.7,81.6 188,73.3 187.2,73.3 		"/>
		<path class="st0" d="M193.5,73.8c-0.5-0.3-1.2-0.5-1.9-0.5c-0.7,0-1.3,0.2-1.9,0.5c-0.5,0.4-1,0.8-1.3,1.5
			c-0.3,0.6-0.5,1.4-0.5,2.3c0,0.9,0.2,1.6,0.5,2.3c0.3,0.6,0.7,1.1,1.3,1.5c0.5,0.4,1.2,0.5,1.9,0.5c0.7,0,1.3-0.2,1.9-0.5
			c0.5-0.3,1-0.8,1.3-1.5s0.5-1.4,0.5-2.3c0-0.9-0.2-1.6-0.5-2.3S194,74.1,193.5,73.8z M194.1,79.4c-0.2,0.5-0.6,0.9-1,1.2
			c-0.4,0.3-0.9,0.4-1.5,0.4c-0.5,0-1-0.1-1.5-0.4c-0.4-0.3-0.8-0.7-1-1.2c-0.2-0.5-0.4-1.2-0.4-1.9c0-0.7,0.1-1.4,0.4-1.9
			c0.3-0.5,0.6-0.9,1-1.2c0.4-0.3,0.9-0.4,1.5-0.4c0.5,0,1,0.1,1.5,0.4c0.4,0.3,0.8,0.7,1,1.2c0.2,0.5,0.4,1.2,0.4,1.9
			C194.5,78.2,194.4,78.9,194.1,79.4z"/>
		<path class="st0" d="M200.6,78c0.4-0.2,0.7-0.5,0.9-0.9c0.2-0.4,0.3-0.8,0.3-1.3c0-0.5-0.1-0.9-0.3-1.3c-0.2-0.4-0.5-0.7-0.9-0.9
			c-0.4-0.2-0.9-0.3-1.5-0.3h-2.7v8.3h0.8v-3.4h1.9c0.1,0,0.2,0,0.3,0l1.8,3.4h0.9l-1.9-3.5C200.4,78.1,200.5,78,200.6,78z
			 M199.2,77.6h-1.9V74h1.9c0.4,0,0.8,0.1,1.1,0.2s0.5,0.4,0.6,0.6c0.1,0.3,0.2,0.6,0.2,1c0,0.4-0.1,0.7-0.2,0.9
			c-0.1,0.3-0.4,0.5-0.6,0.6C199.9,77.5,199.6,77.6,199.2,77.6z"/>
		<polygon class="st0" points="203.9,73.3 203.1,73.3 203.1,81.6 207.8,81.6 207.8,81 203.9,81 		"/>
		<path class="st0" d="M213.6,73.8c-0.6-0.3-1.2-0.5-2-0.5H209v8.3h2.4c0.8,0,1.5-0.2,2.1-0.5c0.6-0.3,1-0.8,1.3-1.4
			c0.3-0.6,0.5-1.4,0.5-2.2c0-0.9-0.1-1.6-0.4-2.2C214.6,74.6,214.1,74.2,213.6,73.8z M214.2,79.3c-0.2,0.5-0.6,0.9-1.1,1.2
			c-0.5,0.3-1.1,0.4-1.8,0.4h-1.6V74h1.8c0.7,0,1.2,0.1,1.7,0.4c0.5,0.3,0.8,0.7,1,1.2c0.2,0.5,0.4,1.1,0.4,1.8
			C214.6,78.2,214.5,78.8,214.2,79.3z"/>
		<path class="st0" d="M222.4,79.3c0,0.4-0.1,0.7-0.2,1c-0.1,0.3-0.3,0.4-0.5,0.6c-0.2,0.1-0.5,0.2-0.8,0.2c-0.3,0-0.5-0.1-0.8-0.2
			s-0.4-0.3-0.5-0.4s-0.2-0.4-0.2-0.7h-0.7c0,0.4,0.1,0.7,0.3,1c0.2,0.3,0.5,0.5,0.8,0.7c0.3,0.2,0.7,0.2,1.2,0.2
			c0.4,0,0.8-0.1,1.2-0.3c0.3-0.2,0.6-0.4,0.8-0.8c0.2-0.4,0.3-0.8,0.3-1.4v-6h-0.8V79.3z"/>
		<path class="st0" d="M230.3,78.8c0,0.4-0.1,0.8-0.3,1.2c-0.2,0.3-0.5,0.6-0.8,0.8c-0.4,0.2-0.8,0.3-1.3,0.3
			c-0.5,0-0.9-0.1-1.3-0.3c-0.4-0.2-0.6-0.5-0.8-0.8c-0.2-0.3-0.3-0.7-0.3-1.2v-5.4h-0.8v5.5c0,0.6,0.1,1.1,0.4,1.5
			c0.3,0.4,0.6,0.8,1.1,1.1c0.5,0.3,1,0.4,1.6,0.4c0.6,0,1.2-0.1,1.6-0.4c0.5-0.3,0.8-0.6,1.1-1.1c0.3-0.4,0.4-0.9,0.4-1.5v-5.5
			h-0.8V78.8z"/>
		<path class="st0" d="M237.3,77.9c-0.2-0.2-0.5-0.3-0.7-0.4c-0.3-0.1-0.5-0.2-0.8-0.3l-0.9-0.3c-0.2-0.1-0.4-0.1-0.6-0.2
			c-0.2-0.1-0.4-0.2-0.5-0.3s-0.3-0.3-0.4-0.4c-0.1-0.2-0.1-0.4-0.1-0.6c0-0.3,0.1-0.6,0.3-0.8c0.2-0.2,0.4-0.4,0.7-0.5
			c0.3-0.1,0.6-0.2,1-0.2c0.5,0,1,0.1,1.4,0.4c0.4,0.3,0.6,0.6,0.6,1.1h0.7c0-0.4-0.1-0.8-0.4-1.1c-0.2-0.3-0.5-0.6-0.9-0.8
			c-0.4-0.2-0.9-0.3-1.4-0.3c-0.5,0-1,0.1-1.4,0.3c-0.4,0.2-0.7,0.5-1,0.8c-0.2,0.3-0.4,0.7-0.4,1.2c0,0.5,0.2,1,0.5,1.3
			c0.4,0.3,0.9,0.6,1.5,0.8l1,0.3c0.3,0.1,0.6,0.2,0.9,0.3s0.5,0.3,0.6,0.5s0.2,0.4,0.2,0.7c0,0.3-0.1,0.6-0.3,0.9
			c-0.2,0.3-0.4,0.4-0.8,0.6c-0.3,0.1-0.7,0.2-1.1,0.2c-0.4,0-0.7-0.1-1-0.2c-0.3-0.1-0.5-0.3-0.7-0.5c-0.2-0.2-0.3-0.5-0.3-0.8
			h-0.8c0,0.4,0.2,0.8,0.4,1.2c0.2,0.3,0.6,0.6,1,0.8c0.4,0.2,0.9,0.3,1.5,0.3c0.6,0,1.1-0.1,1.5-0.3c0.4-0.2,0.8-0.5,1-0.8
			c0.2-0.4,0.3-0.8,0.3-1.2c0-0.3-0.1-0.6-0.2-0.9C237.7,78.3,237.6,78.1,237.3,77.9z"/>
		<polygon class="st0" points="238.8,74 241.4,74 241.4,81.6 242.2,81.6 242.2,74 244.8,74 244.8,73.3 238.8,73.3 		"/>
		<path class="st0" d="M252,78.3h2.4c0,0.5-0.1,1-0.3,1.4c-0.2,0.4-0.5,0.7-0.9,1c-0.4,0.2-0.8,0.3-1.4,0.3c-0.6,0-1.1-0.1-1.5-0.4
			c-0.4-0.3-0.8-0.7-1-1.2c-0.2-0.5-0.4-1.2-0.4-1.9c0-0.7,0.1-1.4,0.4-1.9c0.2-0.5,0.6-0.9,1-1.2c0.4-0.3,0.9-0.4,1.5-0.4
			c0.3,0,0.7,0.1,0.9,0.2c0.3,0.1,0.5,0.2,0.7,0.4c0.2,0.2,0.4,0.4,0.5,0.6c0.1,0.2,0.3,0.5,0.3,0.8h0.8c-0.1-0.4-0.2-0.7-0.4-1
			c-0.2-0.3-0.4-0.6-0.7-0.9c-0.3-0.3-0.6-0.4-1-0.6c-0.4-0.1-0.8-0.2-1.2-0.2c-0.5,0-1,0.1-1.4,0.3c-0.4,0.2-0.8,0.5-1.1,0.9
			c-0.3,0.4-0.6,0.8-0.7,1.3c-0.2,0.5-0.3,1.1-0.3,1.8c0,0.9,0.2,1.6,0.5,2.3s0.7,1.1,1.3,1.5c0.5,0.4,1.2,0.5,1.9,0.5
			c0.6,0,1.2-0.1,1.7-0.4c0.5-0.3,0.9-0.7,1.2-1.2c0.3-0.5,0.4-1.1,0.4-1.8v-0.7H252V78.3z"/>
		<path class="st0" d="M261.6,73.8c-0.5-0.3-1.2-0.5-1.9-0.5c-0.7,0-1.3,0.2-1.9,0.5c-0.5,0.4-1,0.8-1.3,1.5
			c-0.3,0.6-0.5,1.4-0.5,2.3c0,0.9,0.2,1.6,0.5,2.3c0.3,0.6,0.7,1.1,1.3,1.5c0.5,0.4,1.2,0.5,1.9,0.5c0.7,0,1.3-0.2,1.9-0.5
			c0.5-0.3,1-0.8,1.3-1.5s0.5-1.4,0.5-2.3c0-0.9-0.2-1.6-0.5-2.3S262.1,74.1,261.6,73.8z M262.2,79.4c-0.2,0.5-0.6,0.9-1,1.2
			c-0.4,0.3-0.9,0.4-1.5,0.4c-0.5,0-1-0.1-1.5-0.4c-0.4-0.3-0.8-0.7-1-1.2c-0.2-0.5-0.4-1.2-0.4-1.9c0-0.7,0.1-1.4,0.4-1.9
			c0.3-0.5,0.6-0.9,1-1.2c0.4-0.3,0.9-0.4,1.5-0.4c0.5,0,1,0.1,1.5,0.4c0.4,0.3,0.8,0.7,1,1.2c0.2,0.5,0.4,1.2,0.4,1.9
			C262.6,78.2,262.5,78.9,262.2,79.4z"/>
		<polygon class="st0" points="263.7,74 266.4,74 266.4,81.6 267.1,81.6 267.1,74 269.8,74 269.8,73.3 263.7,73.3 		"/>
		<polygon class="st0" points="274.3,77.8 278.1,77.8 278.1,77.1 274.3,77.1 274.3,74 278.4,74 278.4,73.3 273.5,73.3 273.5,81.6 
			278.4,81.6 278.4,81 274.3,81 		"/>
		<path class="st0" d="M282,73.3l-3,8.3h0.8l0.9-2.5h3.5l0.9,2.5h0.8l-3-8.3H282z M280.9,78.5l1.5-4.1h0.1l1.5,4.1H280.9z"/>
		<path class="st0" d="M291.3,77.9c-0.2-0.2-0.5-0.3-0.7-0.4c-0.3-0.1-0.5-0.2-0.8-0.3l-0.9-0.3c-0.2-0.1-0.4-0.1-0.6-0.2
			c-0.2-0.1-0.4-0.2-0.5-0.3s-0.3-0.3-0.4-0.4c-0.1-0.2-0.1-0.4-0.1-0.6c0-0.3,0.1-0.6,0.3-0.8c0.2-0.2,0.4-0.4,0.7-0.5
			c0.3-0.1,0.6-0.2,1-0.2c0.5,0,1,0.1,1.4,0.4c0.4,0.3,0.6,0.6,0.6,1.1h0.7c0-0.4-0.1-0.8-0.4-1.1c-0.2-0.3-0.5-0.6-0.9-0.8
			c-0.4-0.2-0.9-0.3-1.4-0.3c-0.5,0-1,0.1-1.4,0.3s-0.7,0.5-1,0.8c-0.2,0.3-0.4,0.7-0.4,1.2c0,0.5,0.2,1,0.5,1.3
			c0.4,0.3,0.9,0.6,1.5,0.8l1,0.3c0.3,0.1,0.6,0.2,0.9,0.3s0.5,0.3,0.6,0.5s0.2,0.4,0.2,0.7c0,0.3-0.1,0.6-0.3,0.9
			c-0.2,0.3-0.4,0.4-0.8,0.6c-0.3,0.1-0.7,0.2-1.1,0.2c-0.4,0-0.7-0.1-1-0.2c-0.3-0.1-0.5-0.3-0.7-0.5c-0.2-0.2-0.3-0.5-0.3-0.8
			h-0.8c0,0.4,0.2,0.8,0.4,1.2s0.6,0.6,1,0.8s0.9,0.3,1.5,0.3c0.6,0,1.1-0.1,1.5-0.3c0.4-0.2,0.8-0.5,1-0.8c0.2-0.4,0.3-0.8,0.3-1.2
			c0-0.3-0.1-0.6-0.2-0.9C291.7,78.3,291.5,78.1,291.3,77.9z"/>
		<rect x="293.3" y="73.3" class="st0" width="0.8" height="8.3"/>
		<polygon class="st0" points="296.4,77.8 300.2,77.8 300.2,77.1 296.4,77.1 296.4,74 300.5,74 300.5,73.3 295.7,73.3 295.7,81.6 
			300.6,81.6 300.6,81 296.4,81 		"/>
		<path class="st0" d="M306,78c0.4-0.2,0.7-0.5,0.9-0.9c0.2-0.4,0.3-0.8,0.3-1.3c0-0.5-0.1-0.9-0.3-1.3c-0.2-0.4-0.5-0.7-0.9-0.9
			c-0.4-0.2-0.9-0.3-1.5-0.3h-2.7v8.3h0.8v-3.4h1.9c0.1,0,0.2,0,0.3,0l1.8,3.4h0.9l-1.9-3.5C305.8,78.1,305.9,78,306,78z
			 M304.6,77.6h-1.9V74h1.9c0.4,0,0.8,0.1,1.1,0.2s0.5,0.4,0.6,0.6c0.1,0.3,0.2,0.6,0.2,1c0,0.4-0.1,0.7-0.2,0.9
			c-0.1,0.3-0.4,0.5-0.6,0.6C305.4,77.5,305,77.6,304.6,77.6z"/>
		<path class="st1" d="M66.9,51c0-1.3-0.3-2.4-0.8-3.4c-0.5-1-1.3-1.8-2.4-2.4c-1-0.6-2.3-0.9-3.9-0.9h-7.5v20h3.6v-6.8h3.8
			c1.5,0,2.8-0.3,3.9-0.9c1.1-0.6,1.9-1.4,2.4-2.4C66.6,53.4,66.9,52.3,66.9,51z M62.8,52.9c-0.3,0.5-0.7,1-1.3,1.3
			c-0.6,0.3-1.3,0.5-2.2,0.5h-3.3v-7.3h3.3c0.9,0,1.6,0.2,2.2,0.5c0.6,0.3,1,0.7,1.3,1.3c0.3,0.5,0.4,1.2,0.4,1.9S63,52.4,62.8,52.9
			z"/>
		<path class="st1" d="M72.9,44.4l-7.1,20h3.9l1.7-4.9h7.5l1.7,4.9h3.9l-7.1-20H72.9z M72.3,56.6l2.7-8.1h0.2l2.7,8.1H72.3z"/>
		<path class="st1" d="M98.9,54.9c-0.6-0.5-1.2-0.8-1.9-1.1c-0.7-0.3-1.4-0.5-2.2-0.7l-1.9-0.5c-0.4-0.1-0.8-0.2-1.2-0.4
			c-0.4-0.1-0.8-0.3-1.1-0.5c-0.3-0.2-0.6-0.5-0.8-0.8c-0.2-0.3-0.3-0.7-0.3-1.1c0-0.5,0.2-0.9,0.4-1.3c0.3-0.4,0.7-0.7,1.2-0.9
			c0.5-0.2,1.2-0.3,1.9-0.3c1.1,0,2,0.2,2.6,0.7c0.7,0.5,1.1,1.1,1.1,2h3.5c0-1.1-0.3-2.1-0.9-3c-0.6-0.9-1.5-1.6-2.5-2
			c-1.1-0.5-2.3-0.7-3.7-0.7c-1.4,0-2.7,0.2-3.8,0.7c-1.1,0.5-2,1.2-2.6,2.1c-0.6,0.9-1,1.9-1,3.1c0,1.4,0.5,2.6,1.4,3.4
			c1,0.9,2.3,1.5,3.9,1.9l2.3,0.6c0.7,0.2,1.3,0.4,1.9,0.6c0.5,0.2,1,0.5,1.3,0.9c0.3,0.3,0.5,0.8,0.5,1.3c0,0.6-0.2,1.1-0.5,1.5
			c-0.3,0.4-0.8,0.8-1.4,1c-0.6,0.2-1.3,0.4-2.1,0.4c-0.8,0-1.4-0.1-2-0.3c-0.6-0.2-1.1-0.6-1.5-1c-0.4-0.5-0.6-1-0.6-1.7h-3.6
			c0.1,1.3,0.4,2.5,1,3.4c0.6,0.9,1.5,1.6,2.7,2.1c1.1,0.5,2.5,0.7,4.1,0.7c1.6,0,3-0.2,4.1-0.7c1.1-0.5,2-1.2,2.6-2.1
			c0.6-0.9,0.9-1.9,0.9-3.1c0-0.9-0.2-1.6-0.5-2.3C99.9,55.9,99.4,55.3,98.9,54.9z"/>
		<path class="st1" d="M117,61.9c0.6-0.9,0.9-1.9,0.9-3.1c0-0.9-0.2-1.6-0.5-2.3c-0.3-0.6-0.8-1.2-1.3-1.7c-0.6-0.5-1.2-0.8-1.9-1.1
			c-0.7-0.3-1.4-0.5-2.2-0.7l-1.9-0.5c-0.4-0.1-0.8-0.2-1.2-0.4c-0.4-0.1-0.8-0.3-1.1-0.5c-0.3-0.2-0.6-0.5-0.8-0.8
			c-0.2-0.3-0.3-0.7-0.3-1.1c0-0.5,0.2-0.9,0.4-1.3c0.3-0.4,0.7-0.7,1.2-0.9c0.5-0.2,1.2-0.3,1.9-0.3c1.1,0,2,0.2,2.6,0.7
			c0.7,0.5,1.1,1.1,1.1,2h3.5c0-1.1-0.3-2.1-0.9-3c-0.6-0.9-1.5-1.6-2.5-2c-1.1-0.5-2.3-0.7-3.7-0.7c-1.4,0-2.7,0.2-3.8,0.7
			c-1.1,0.5-2,1.2-2.6,2.1c-0.6,0.9-1,1.9-1,3.1c0,1.4,0.5,2.6,1.4,3.4c1,0.9,2.3,1.5,3.9,1.9l2.3,0.6c0.7,0.2,1.3,0.4,1.9,0.6
			c0.5,0.2,1,0.5,1.3,0.9c0.3,0.3,0.5,0.8,0.5,1.3c0,0.6-0.2,1.1-0.5,1.5c-0.3,0.4-0.8,0.8-1.4,1c-0.6,0.2-1.3,0.4-2.1,0.4
			c-0.8,0-1.4-0.1-2-0.3c-0.6-0.2-1.1-0.6-1.5-1c-0.4-0.5-0.6-1-0.6-1.7h-3.6c0.1,1.3,0.4,2.5,1,3.4c0.6,0.9,1.5,1.6,2.7,2.1
			c1.1,0.5,2.5,0.7,4.1,0.7c1.6,0,3-0.2,4.1-0.7C115.5,63.5,116.4,62.8,117,61.9z"/>
		<path class="st1" d="M134.2,47.6c-0.5-1-1.3-1.8-2.4-2.4c-1-0.6-2.3-0.9-3.9-0.9h-7.5v20h3.6v-6.8h3.8c1.5,0,2.8-0.3,3.9-0.9
			c1.1-0.6,1.9-1.4,2.4-2.4c0.5-1,0.8-2.1,0.8-3.4C135,49.8,134.7,48.6,134.2,47.6z M130.9,52.9c-0.3,0.5-0.7,1-1.3,1.3
			c-0.6,0.3-1.3,0.5-2.2,0.5h-3.3v-7.3h3.3c0.9,0,1.6,0.2,2.2,0.5c0.6,0.3,1,0.7,1.3,1.3s0.4,1.2,0.4,1.9S131.2,52.4,130.9,52.9z"/>
		<path class="st1" d="M154.2,48.9c-0.8-1.5-1.9-2.7-3.3-3.5c-1.4-0.8-3-1.2-4.7-1.2c-1.8,0-3.3,0.4-4.7,1.2c-1.4,0.8-2.5,2-3.3,3.5
			s-1.2,3.4-1.2,5.5c0,2.2,0.4,4,1.2,5.5c0.8,1.5,1.9,2.7,3.3,3.5c1.4,0.8,3,1.2,4.7,1.2c1.8,0,3.3-0.4,4.7-1.2
			c1.4-0.8,2.5-2,3.3-3.5c0.8-1.5,1.2-3.4,1.2-5.5C155.4,52.2,155,50.4,154.2,48.9z M151,58.3c-0.5,1-1.1,1.8-2,2.4
			c-0.8,0.5-1.8,0.8-2.9,0.8c-1.1,0-2.1-0.3-2.9-0.8c-0.8-0.5-1.5-1.3-2-2.4c-0.5-1-0.7-2.3-0.7-3.9c0-1.5,0.2-2.8,0.7-3.9
			c0.5-1,1.1-1.8,2-2.4c0.8-0.5,1.8-0.8,2.9-0.8c1.1,0,2.1,0.3,2.9,0.8c0.8,0.5,1.5,1.3,2,2.4c0.5,1,0.7,2.3,0.7,3.9
			C151.7,55.9,151.5,57.2,151,58.3z"/>
		<path class="st1" d="M169.1,56.5c0.1-0.1,0.3-0.1,0.4-0.2c1.1-0.5,1.9-1.2,2.4-2.2c0.5-0.9,0.8-2.1,0.8-3.3c0-1.3-0.3-2.4-0.8-3.4
			c-0.5-1-1.3-1.7-2.4-2.2c-1-0.5-2.3-0.8-3.9-0.8h-7.5v20h3.6v-7.3h3.7l3.9,7.3h4.1L169.1,56.5z M161.8,47.4h3.3
			c0.9,0,1.6,0.1,2.2,0.4c0.6,0.3,1,0.6,1.3,1.2c0.3,0.5,0.4,1.1,0.4,1.8c0,0.7-0.1,1.3-0.4,1.8c-0.3,0.5-0.7,0.9-1.3,1.1
			c-0.6,0.3-1.3,0.4-2.2,0.4h-3.3V47.4z"/>
		<polygon class="st1" points="180.7,64.4 184.3,64.4 184.3,47.4 190.5,47.4 190.5,44.4 174.5,44.4 174.5,47.4 180.7,47.4 		"/>
		<path class="st2" d="M206.5,57.7c1.5,0,2.8-0.3,3.9-0.9c1.1-0.6,1.9-1.4,2.4-2.4c0.5-1,0.8-2.1,0.8-3.4c0-1.3-0.3-2.4-0.8-3.4
			c-0.5-1-1.3-1.8-2.4-2.4c-1-0.6-2.3-0.9-3.9-0.9H199v20h3.6v-6.8H206.5z M206,47.4c0.9,0,1.6,0.2,2.2,0.5c0.6,0.3,1,0.7,1.3,1.3
			s0.4,1.2,0.4,1.9s-0.1,1.3-0.4,1.9c-0.3,0.5-0.7,1-1.3,1.3c-0.6,0.3-1.3,0.5-2.2,0.5h-3.3v-7.3H206z"/>
		<polygon class="st2" points="219.7,55.9 229,55.9 229,64.4 232.6,64.4 232.6,44.4 229,44.4 229,52.9 219.7,52.9 219.7,44.4 
			216.1,44.4 216.1,64.4 219.7,64.4 		"/>
		<path class="st2" d="M239.9,63.5c1.4,0.8,3,1.2,4.7,1.2c1.8,0,3.3-0.4,4.7-1.2c1.4-0.8,2.5-2,3.3-3.5c0.8-1.5,1.2-3.4,1.2-5.5
			c0-2.2-0.4-4-1.2-5.5c-0.8-1.5-1.9-2.7-3.3-3.5c-1.4-0.8-3-1.2-4.7-1.2c-1.8,0-3.3,0.4-4.7,1.2c-1.4,0.8-2.5,2-3.3,3.5
			s-1.2,3.4-1.2,5.5c0,2.2,0.4,4,1.2,5.5C237.4,61.5,238.5,62.7,239.9,63.5z M239.7,50.6c0.5-1,1.1-1.8,2-2.4
			c0.8-0.5,1.8-0.8,2.9-0.8c1.1,0,2.1,0.3,2.9,0.8c0.8,0.5,1.5,1.3,2,2.4c0.5,1,0.7,2.3,0.7,3.9c0,1.5-0.2,2.8-0.7,3.9
			c-0.5,1-1.1,1.8-2,2.4c-0.8,0.5-1.8,0.8-2.9,0.8c-1.1,0-2.1-0.3-2.9-0.8c-0.8-0.5-1.5-1.3-2-2.4c-0.5-1-0.7-2.3-0.7-3.9
			C239,52.9,239.2,51.6,239.7,50.6z"/>
		<polygon class="st2" points="254.8,47.4 261,47.4 261,64.4 264.6,64.4 264.6,47.4 270.8,47.4 270.8,44.4 254.8,44.4 		"/>
		<path class="st2" d="M276.3,63.5c1.4,0.8,3,1.2,4.7,1.2s3.3-0.4,4.7-1.2c1.4-0.8,2.5-2,3.3-3.5c0.8-1.5,1.2-3.4,1.2-5.5
			c0-2.2-0.4-4-1.2-5.5c-0.8-1.5-1.9-2.7-3.3-3.5c-1.4-0.8-3-1.2-4.7-1.2s-3.3,0.4-4.7,1.2c-1.4,0.8-2.5,2-3.3,3.5
			c-0.8,1.5-1.2,3.4-1.2,5.5c0,2.2,0.4,4,1.2,5.5C273.8,61.5,274.9,62.7,276.3,63.5z M276.1,50.6c0.5-1,1.1-1.8,2-2.4
			c0.8-0.5,1.8-0.8,2.9-0.8s2.1,0.3,2.9,0.8c0.8,0.5,1.5,1.3,2,2.4c0.5,1,0.7,2.3,0.7,3.9c0,1.5-0.2,2.8-0.7,3.9
			c-0.5,1-1.1,1.8-2,2.4c-0.8,0.5-1.8,0.8-2.9,0.8s-2.1-0.3-2.9-0.8c-0.8-0.5-1.5-1.3-2-2.4c-0.5-1-0.7-2.3-0.7-3.9
			C275.4,52.9,275.7,51.6,276.1,50.6z"/>
		<path class="st2" d="M295.9,64c1.1,0.5,2.5,0.7,4.1,0.7c1.6,0,3-0.2,4.1-0.7c1.1-0.5,2-1.2,2.6-2.1c0.6-0.9,0.9-1.9,0.9-3.1
			c0-0.9-0.2-1.6-0.5-2.3c-0.3-0.6-0.8-1.2-1.3-1.7c-0.6-0.5-1.2-0.8-1.9-1.1c-0.7-0.3-1.4-0.5-2.2-0.7l-1.9-0.5
			c-0.4-0.1-0.8-0.2-1.2-0.4c-0.4-0.1-0.8-0.3-1.1-0.5c-0.3-0.2-0.6-0.5-0.8-0.8c-0.2-0.3-0.3-0.7-0.3-1.1c0-0.5,0.2-0.9,0.4-1.3
			c0.3-0.4,0.7-0.7,1.2-0.9c0.5-0.2,1.2-0.3,1.9-0.3c1.1,0,2,0.2,2.6,0.7c0.7,0.5,1.1,1.1,1.1,2h3.5c0-1.1-0.3-2.1-0.9-3
			c-0.6-0.9-1.5-1.6-2.5-2c-1.1-0.5-2.3-0.7-3.7-0.7c-1.4,0-2.7,0.2-3.8,0.7c-1.1,0.5-2,1.2-2.6,2.1c-0.6,0.9-1,1.9-1,3.1
			c0,1.4,0.5,2.6,1.4,3.4c1,0.9,2.3,1.5,3.9,1.9l2.3,0.6c0.7,0.2,1.3,0.4,1.9,0.6c0.5,0.2,1,0.5,1.3,0.9c0.3,0.3,0.5,0.8,0.5,1.3
			c0,0.6-0.2,1.1-0.5,1.5c-0.3,0.4-0.8,0.8-1.4,1c-0.6,0.2-1.3,0.4-2.1,0.4c-0.8,0-1.4-0.1-2-0.3c-0.6-0.2-1.1-0.6-1.5-1
			c-0.4-0.5-0.6-1-0.6-1.7h-3.6c0.1,1.3,0.4,2.5,1,3.4C293.9,62.8,294.8,63.5,295.9,64z"/>
	</g>
	<g>
		<g>
			<g>
				<g>
					<g>
						<polygon class="st1" points="46.1,29.1 32.1,59.4 7.6,2 						"/>
						<polygon class="st3" points="7.6,2 34.7,40.5 65,26.6 						"/>
					</g>
				</g>
			</g>
		</g>
	</g>
</g>
</svg>
