<svg width="318" height="58" viewBox="0 0 318 58" fill="none" xmlns="http://www.w3.org/2000/svg">
<path d="M38.5 27.1L24.5 57.4L0 0L38.5 27.1Z" fill="#1C75BC"/>
<path opacity="0.75" d="M0 0L27.1 38.5L57.4 24.6L0 0Z" fill="#08E1FE"/>
<path d="M130 43.7C129.8 43.5 129.5 43.4 129.3 43.3C129 43.2 128.8 43.1 128.5 43L127.6 42.7C127.4 42.6 127.2 42.6 127 42.5C126.8 42.4 126.6 42.3 126.5 42.2C126.4 42.1 126.2 41.9 126.1 41.8C126 41.6 126 41.4 126 41.2C126 40.9 126.1 40.6 126.3 40.4C126.5 40.2 126.7 40 127 39.9C127.3 39.8 127.6 39.7 128 39.7C128.5 39.7 129 39.8 129.4 40.1C129.8 40.4 130 40.7 130 41.2H130.7C130.7 40.8 130.6 40.4 130.3 40.1C130.1 39.8 129.8 39.5 129.4 39.3C129 39.1 128.5 39 128 39C127.5 39 127 39.1 126.6 39.3C126.2 39.5 125.9 39.8 125.6 40.1C125.4 40.4 125.2 40.8 125.2 41.3C125.2 41.8 125.4 42.3 125.7 42.6C126.1 42.9 126.6 43.2 127.2 43.4L128.2 43.7C128.5 43.8 128.8 43.9 129.1 44C129.4 44.1 129.6 44.3 129.7 44.5C129.8 44.7 129.9 44.9 129.9 45.2C129.9 45.5 129.8 45.8 129.6 46.1C129.4 46.4 129.2 46.5 128.8 46.7C128.5 46.8 128.1 46.9 127.7 46.9C127.3 46.9 127 46.8 126.7 46.7C126.4 46.6 126.2 46.4 126 46.2C125.8 46 125.7 45.7 125.7 45.4H124.9C124.9 45.8 125.1 46.2 125.3 46.6C125.5 46.9 125.9 47.2 126.3 47.4C126.7 47.6 127.2 47.7 127.8 47.7C128.4 47.7 128.9 47.6 129.3 47.4C129.7 47.2 130.1 46.9 130.3 46.6C130.5 46.2 130.6 45.8 130.6 45.4C130.6 45.1 130.5 44.8 130.4 44.5C130.4 44.1 130.3 43.9 130 43.7Z" fill="#231F20"/>
<path d="M132.8 43.6001H136.6V42.9001H132.8V39.8001H136.8V39.1001H132V47.4001H136.9V46.8001H132.8V43.6001Z" fill="#231F20"/>
<path d="M139 43.6001H142.8V42.9001H139V39.8001H143.1V39.1001H138.2V47.4001H143.1V46.8001H139V43.6001Z" fill="#231F20"/>
<path d="M145.2 39.1001H144.4V47.4001H145.2V39.1001Z" fill="#231F20"/>
<path d="M152.6 46.1001H152.5L147.6 39.1001H146.8V47.4001H147.6V40.5001H147.7L152.6 47.4001H153.3V39.1001H152.6V46.1001Z" fill="#231F20"/>
<path d="M158.4 44.1001H160.8C160.8 44.6001 160.7 45.1001 160.5 45.5001C160.3 45.9001 160 46.2001 159.6 46.5001C159.2 46.7001 158.8 46.8001 158.2 46.8001C157.6 46.8001 157.1 46.7001 156.7 46.4001C156.3 46.1001 155.9 45.7001 155.7 45.2001C155.5 44.7001 155.3 44.0001 155.3 43.3001C155.3 42.6001 155.4 41.9001 155.7 41.4001C155.9 40.9001 156.3 40.5001 156.7 40.2001C157.1 39.9001 157.6 39.8001 158.2 39.8001C158.5 39.8001 158.9 39.9001 159.1 40.0001C159.4 40.1001 159.6 40.2001 159.8 40.4001C160 40.6001 160.2 40.8001 160.3 41.0001C160.4 41.2001 160.6 41.5001 160.6 41.8001H161.4C161.3 41.4001 161.2 41.1001 161 40.8001C160.8 40.5001 160.6 40.2001 160.3 39.9001C160 39.6001 159.7 39.5001 159.3 39.3001C158.9 39.2001 158.5 39.1001 158.1 39.1001C157.6 39.1001 157.1 39.2001 156.7 39.4001C156.3 39.6001 155.9 39.9001 155.6 40.3001C155.3 40.7001 155 41.1001 154.9 41.6001C154.7 42.1001 154.6 42.7001 154.6 43.4001C154.6 44.3001 154.8 45.0001 155.1 45.7001C155.4 46.4001 155.8 46.8001 156.4 47.2001C156.9 47.6001 157.6 47.7001 158.3 47.7001C158.9 47.7001 159.5 47.6001 160 47.3001C160.5 47.0001 160.9 46.6001 161.2 46.1001C161.5 45.6001 161.6 45.0001 161.6 44.3001V43.6001H158.4V44.1001Z" fill="#231F20"/>
<path d="M165 39.8001H167.6V47.4001H168.4V39.8001H171V39.1001H165V39.8001Z" fill="#231F20"/>
<path d="M177.6 42.9001H172.9V39.1001H172.1V47.4001H172.9V43.6001H177.6V47.4001H178.4V39.1001H177.6V42.9001Z" fill="#231F20"/>
<path d="M180.8 43.6001H184.6V42.9001H180.8V39.8001H184.8V39.1001H180V47.4001H184.9V46.8001H180.8V43.6001Z" fill="#231F20"/>
<path d="M195.4 46.3001L193.5 39.1001H192.6L190.7 46.3001L188.8 39.1001H188L190.3 47.4001H191.1L193 40.4001H193.1L195 47.4001H195.8L198.1 39.1001H197.3L195.4 46.3001Z" fill="#231F20"/>
<path d="M203.6 39.6001C203.1 39.3001 202.4 39.1001 201.7 39.1001C201 39.1001 200.4 39.3001 199.8 39.6001C199.3 40.0001 198.8 40.4001 198.5 41.1001C198.2 41.7001 198 42.5001 198 43.4001C198 44.3001 198.2 45.0001 198.5 45.7001C198.8 46.3001 199.2 46.8001 199.8 47.2001C200.3 47.6001 201 47.7001 201.7 47.7001C202.4 47.7001 203 47.5001 203.6 47.2001C204.1 46.9001 204.6 46.4001 204.9 45.7001C205.2 45.0001 205.4 44.3001 205.4 43.4001C205.4 42.5001 205.2 41.8001 204.9 41.1001C204.6 40.4001 204.1 39.9001 203.6 39.6001ZM204.2 45.2001C204 45.7001 203.6 46.1001 203.2 46.4001C202.8 46.7001 202.3 46.8001 201.7 46.8001C201.2 46.8001 200.7 46.7001 200.2 46.4001C199.8 46.1001 199.4 45.7001 199.2 45.2001C199 44.7001 198.8 44.0001 198.8 43.3001C198.8 42.6001 198.9 41.9001 199.2 41.4001C199.5 40.9001 199.8 40.5001 200.2 40.2001C200.6 39.9001 201.1 39.8001 201.7 39.8001C202.2 39.8001 202.7 39.9001 203.2 40.2001C203.6 40.5001 204 40.9001 204.2 41.4001C204.4 41.9001 204.6 42.6001 204.6 43.3001C204.6 44.0001 204.5 44.7001 204.2 45.2001Z" fill="#231F20"/>
<path d="M210.7 43.8001C211.1 43.6001 211.4 43.3001 211.6 42.9001C211.8 42.5001 211.9 42.1001 211.9 41.6001C211.9 41.1001 211.8 40.7001 211.6 40.3001C211.4 39.9001 211.1 39.6001 210.7 39.4001C210.3 39.2001 209.8 39.1001 209.2 39.1001H206.5V47.4001H207.3V44.0001H209.2C209.3 44.0001 209.4 44.0001 209.5 44.0001L211.3 47.4001H212.2L210.3 43.9001C210.5 43.9001 210.6 43.8001 210.7 43.8001ZM209.3 43.4001H207.4V39.8001H209.3C209.7 39.8001 210.1 39.9001 210.4 40.0001C210.7 40.1001 210.9 40.4001 211 40.6001C211.1 40.9001 211.2 41.2001 211.2 41.6001C211.2 42.0001 211.1 42.3001 211 42.5001C210.9 42.8001 210.6 43.0001 210.4 43.1001C210 43.3001 209.7 43.4001 209.3 43.4001Z" fill="#231F20"/>
<path d="M214 39.1001H213.2V47.4001H217.9V46.8001H214V39.1001Z" fill="#231F20"/>
<path d="M223.7 39.6001C223.1 39.3001 222.5 39.1001 221.7 39.1001H219.1V47.4001H221.5C222.3 47.4001 223 47.2001 223.6 46.9001C224.2 46.6001 224.6 46.1001 224.9 45.5001C225.2 44.9001 225.4 44.1001 225.4 43.3001C225.4 42.4001 225.3 41.7001 225 41.1001C224.7 40.4001 224.2 40.0001 223.7 39.6001ZM224.3 45.1001C224.1 45.6001 223.7 46.0001 223.2 46.3001C222.7 46.6001 222.1 46.7001 221.4 46.7001H219.8V39.8001H221.6C222.3 39.8001 222.8 39.9001 223.3 40.2001C223.8 40.5001 224.1 40.9001 224.3 41.4001C224.5 41.9001 224.7 42.5001 224.7 43.2001C224.7 44.0001 224.6 44.6001 224.3 45.1001Z" fill="#231F20"/>
<path d="M232.5 45.1C232.5 45.5 232.4 45.8 232.3 46.1C232.2 46.4 232 46.5 231.8 46.7C231.6 46.8 231.3 46.9 231 46.9C230.7 46.9 230.5 46.8 230.2 46.7C229.9 46.6 229.8 46.4 229.7 46.3C229.6 46.2 229.5 45.9 229.5 45.6H228.8C228.8 46 228.9 46.3 229.1 46.6C229.3 46.9 229.6 47.1 229.9 47.3C230.2 47.5 230.6 47.5 231.1 47.5C231.5 47.5 231.9 47.4 232.3 47.2C232.6 47 232.9 46.8 233.1 46.4C233.3 46 233.4 45.6 233.4 45V39H232.6V45.1H232.5Z" fill="#231F20"/>
<path d="M240.4 44.6002C240.4 45.0002 240.3 45.4002 240.1 45.8002C239.9 46.1002 239.6 46.4002 239.3 46.6002C238.9 46.8002 238.5 46.9002 238 46.9002C237.5 46.9002 237.1 46.8002 236.7 46.6002C236.3 46.4002 236.1 46.1002 235.9 45.8002C235.7 45.5002 235.6 45.1002 235.6 44.6002V39.2002H234.8V44.7002C234.8 45.3002 234.9 45.8002 235.2 46.2002C235.5 46.6002 235.8 47.0002 236.3 47.3002C236.8 47.6002 237.3 47.7002 237.9 47.7002C238.5 47.7002 239.1 47.6002 239.5 47.3002C240 47.0002 240.3 46.7002 240.6 46.2002C240.9 45.8002 241 45.3002 241 44.7002V39.2002H240.2V44.6002H240.4Z" fill="#231F20"/>
<path d="M247.4 43.7C247.2 43.5 246.9 43.4 246.7 43.3C246.4 43.2 246.2 43.1 245.9 43L245 42.7C244.8 42.6 244.6 42.6 244.4 42.5C244.2 42.4 244 42.3 243.9 42.2C243.8 42.1 243.6 41.9 243.5 41.8C243.4 41.6 243.4 41.4 243.4 41.2C243.4 40.9 243.5 40.6 243.7 40.4C243.9 40.2 244.1 40 244.4 39.9C244.7 39.8 245 39.7 245.4 39.7C245.9 39.7 246.4 39.8 246.8 40.1C247.2 40.4 247.4 40.7 247.4 41.2H248.1C248.1 40.8 248 40.4 247.7 40.1C247.5 39.8 247.2 39.5 246.8 39.3C246.4 39.1 245.9 39 245.4 39C244.9 39 244.4 39.1 244 39.3C243.6 39.5 243.3 39.8 243 40.1C242.8 40.4 242.6 40.8 242.6 41.3C242.6 41.8 242.8 42.3 243.1 42.6C243.5 42.9 244 43.2 244.6 43.4L245.6 43.7C245.9 43.8 246.2 43.9 246.5 44C246.8 44.1 247 44.3 247.1 44.5C247.2 44.7 247.3 44.9 247.3 45.2C247.3 45.5 247.2 45.8 247 46.1C246.8 46.4 246.6 46.5 246.2 46.7C245.9 46.8 245.5 46.9 245.1 46.9C244.7 46.9 244.4 46.8 244.1 46.7C243.8 46.6 243.6 46.4 243.4 46.2C243.2 46 243.1 45.7 243.1 45.4H242.3C242.3 45.8 242.5 46.2 242.7 46.6C242.9 46.9 243.3 47.2 243.7 47.4C244.1 47.6 244.6 47.7 245.2 47.7C245.8 47.7 246.3 47.6 246.7 47.4C247.1 47.2 247.5 46.9 247.7 46.6C247.9 46.2 248 45.8 248 45.4C248 45.1 247.9 44.8 247.8 44.5C247.8 44.1 247.7 43.9 247.4 43.7Z" fill="#231F20"/>
<path d="M248.9 39.8001H251.5V47.4001H252.3V39.8001H254.9V39.1001H248.9V39.8001Z" fill="#231F20"/>
<path d="M262.1 44.1001H264.5C264.5 44.6001 264.4 45.1001 264.2 45.5001C264 45.9001 263.7 46.2001 263.3 46.5001C262.9 46.7001 262.5 46.8001 261.9 46.8001C261.3 46.8001 260.8 46.7001 260.4 46.4001C260 46.1001 259.6 45.7001 259.4 45.2001C259.2 44.7001 259 44.0001 259 43.3001C259 42.6001 259.1 41.9001 259.4 41.4001C259.6 40.9001 260 40.5001 260.4 40.2001C260.8 39.9001 261.3 39.8001 261.9 39.8001C262.2 39.8001 262.6 39.9001 262.8 40.0001C263.1 40.1001 263.3 40.2001 263.5 40.4001C263.7 40.6001 263.9 40.8001 264 41.0001C264.1 41.2001 264.3 41.5001 264.3 41.8001H265.1C265 41.4001 264.9 41.1001 264.7 40.8001C264.5 40.5001 264.3 40.2001 264 39.9001C263.7 39.6001 263.4 39.5001 263 39.3001C262.6 39.2001 262.2 39.1001 261.8 39.1001C261.3 39.1001 260.8 39.2001 260.4 39.4001C260 39.6001 259.6 39.9001 259.3 40.3001C259 40.7001 258.7 41.1001 258.6 41.6001C258.4 42.1001 258.3 42.7001 258.3 43.4001C258.3 44.3001 258.5 45.0001 258.8 45.7001C259.1 46.4001 259.5 46.8001 260.1 47.2001C260.6 47.6001 261.3 47.7001 262 47.7001C262.6 47.7001 263.2 47.6001 263.7 47.3001C264.2 47.0001 264.6 46.6001 264.9 46.1001C265.2 45.6001 265.3 45.0001 265.3 44.3001V43.6001H262.1V44.1001Z" fill="#231F20"/>
<path d="M271.7 39.6001C271.2 39.3001 270.5 39.1001 269.8 39.1001C269.1 39.1001 268.5 39.3001 267.9 39.6001C267.4 40.0001 266.9 40.4001 266.6 41.1001C266.3 41.7001 266.1 42.5001 266.1 43.4001C266.1 44.3001 266.3 45.0001 266.6 45.7001C266.9 46.3001 267.3 46.8001 267.9 47.2001C268.4 47.6001 269.1 47.7001 269.8 47.7001C270.5 47.7001 271.1 47.5001 271.7 47.2001C272.2 46.9001 272.7 46.4001 273 45.7001C273.3 45.0001 273.5 44.3001 273.5 43.4001C273.5 42.5001 273.3 41.8001 273 41.1001C272.7 40.4001 272.2 39.9001 271.7 39.6001ZM272.3 45.2001C272.1 45.7001 271.7 46.1001 271.3 46.4001C270.9 46.7001 270.4 46.8001 269.8 46.8001C269.3 46.8001 268.8 46.7001 268.3 46.4001C267.9 46.1001 267.5 45.7001 267.3 45.2001C267.1 44.7001 266.9 44.0001 266.9 43.3001C266.9 42.6001 267 41.9001 267.3 41.4001C267.6 40.9001 267.9 40.5001 268.3 40.2001C268.7 39.9001 269.2 39.8001 269.8 39.8001C270.3 39.8001 270.8 39.9001 271.3 40.2001C271.7 40.5001 272.1 40.9001 272.3 41.4001C272.5 41.9001 272.7 42.6001 272.7 43.3001C272.7 44.0001 272.6 44.7001 272.3 45.2001Z" fill="#231F20"/>
<path d="M273.8 39.8001H276.5V47.4001H277.2V39.8001H279.9V39.1001H273.8V39.8001Z" fill="#231F20"/>
<path d="M284.4 43.6001H288.2V42.9001H284.4V39.8001H288.5V39.1001H283.6V47.4001H288.5V46.8001H284.4V43.6001Z" fill="#231F20"/>
<path d="M292.1 39.1001L289.1 47.4001H289.9L290.8 44.9001H294.3L295.2 47.4001H296L293 39.1001H292.1ZM291 44.3001L292.5 40.2001H292.6L294.1 44.3001H291Z" fill="#231F20"/>
<path d="M301.4 43.7C301.2 43.5 300.9 43.4 300.7 43.3C300.4 43.2 300.2 43.1 299.9 43L299 42.7C298.8 42.6 298.6 42.6 298.4 42.5C298.2 42.4 298 42.3 297.9 42.2C297.8 42.1 297.6 41.9 297.5 41.8C297.4 41.6 297.4 41.4 297.4 41.2C297.4 40.9 297.5 40.6 297.7 40.4C297.9 40.2 298.1 40 298.4 39.9C298.7 39.8 299 39.7 299.4 39.7C299.9 39.7 300.4 39.8 300.8 40.1C301.2 40.4 301.4 40.7 301.4 41.2H302.1C302.1 40.8 302 40.4 301.7 40.1C301.5 39.8 301.2 39.5 300.8 39.3C300.4 39.1 299.9 39 299.4 39C298.9 39 298.4 39.1 298 39.3C297.6 39.5 297.3 39.8 297 40.1C296.8 40.4 296.6 40.8 296.6 41.3C296.6 41.8 296.8 42.3 297.1 42.6C297.5 42.9 298 43.2 298.6 43.4L299.6 43.7C299.9 43.8 300.2 43.9 300.5 44C300.8 44.1 301 44.3 301.1 44.5C301.2 44.7 301.3 44.9 301.3 45.2C301.3 45.5 301.2 45.8 301 46.1C300.8 46.4 300.6 46.5 300.2 46.7C299.9 46.8 299.5 46.9 299.1 46.9C298.7 46.9 298.4 46.8 298.1 46.7C297.8 46.6 297.6 46.4 297.4 46.2C297.2 46 297.1 45.7 297.1 45.4H296.3C296.3 45.8 296.5 46.2 296.7 46.6C296.9 47 297.3 47.2 297.7 47.4C298.1 47.6 298.6 47.7 299.2 47.7C299.8 47.7 300.3 47.6 300.7 47.4C301.1 47.2 301.5 46.9 301.7 46.6C301.9 46.2 302 45.8 302 45.4C302 45.1 301.9 44.8 301.8 44.5C301.8 44.1 301.6 43.9 301.4 43.7Z" fill="#231F20"/>
<path d="M304.2 39.1001H303.4V47.4001H304.2V39.1001Z" fill="#231F20"/>
<path d="M306.5 43.6001H310.3V42.9001H306.5V39.8001H310.6V39.1001H305.8V47.4001H310.7V46.8001H306.5V43.6001Z" fill="#231F20"/>
<path d="M316.1 43.8001C316.5 43.6001 316.8 43.3001 317 42.9001C317.2 42.5001 317.3 42.1001 317.3 41.6001C317.3 41.1001 317.2 40.7001 317 40.3001C316.8 39.9001 316.5 39.6001 316.1 39.4001C315.7 39.2001 315.2 39.1001 314.6 39.1001H311.9V47.4001H312.7V44.0001H314.6C314.7 44.0001 314.8 44.0001 314.9 44.0001L316.7 47.4001H317.6L315.7 43.9001C315.9 43.9001 316 43.8001 316.1 43.8001ZM314.7 43.4001H312.8V39.8001H314.7C315.1 39.8001 315.5 39.9001 315.8 40.0001C316.1 40.1001 316.3 40.4001 316.4 40.6001C316.5 40.9001 316.6 41.2001 316.6 41.6001C316.6 42.0001 316.5 42.3001 316.4 42.5001C316.3 42.8001 316 43.0001 315.8 43.1001C315.5 43.3001 315.1 43.4001 314.7 43.4001Z" fill="#231F20"/>
<path d="M76.9999 16.8001C76.9999 15.5001 76.6999 14.4001 76.1999 13.4001C75.6999 12.4001 74.8999 11.6001 73.7999 11.0001C72.7999 10.4001 71.4999 10.1001 69.8999 10.1001H62.3999V30.1001H65.9999V23.3001H69.7999C71.2999 23.3001 72.5999 23.0001 73.6999 22.4001C74.7999 21.8001 75.5999 21.0001 76.0999 20.0001C76.6999 19.2001 76.9999 18.1001 76.9999 16.8001ZM72.8999 18.7001C72.5999 19.2001 72.1999 19.7001 71.5999 20.0001C70.9999 20.3001 70.2999 20.5001 69.3999 20.5001H66.0999V13.2001H69.3999C70.2999 13.2001 70.9999 13.4001 71.5999 13.7001C72.1999 14.0001 72.5999 14.4001 72.8999 15.0001C73.1999 15.5001 73.2999 16.2001 73.2999 16.9001C73.2999 17.6001 73.0999 18.2001 72.8999 18.7001Z" fill="#1C75BC"/>
<path d="M82.9999 10.2002L75.8999 30.2002H79.7999L81.4999 25.3002H88.9999L90.6999 30.2002H94.5999L87.4999 10.2002H82.9999ZM82.3999 22.4002L85.0999 14.3002H85.2999L87.9999 22.4002H82.3999Z" fill="#1C75BC"/>
<path d="M109 20.7001C108.4 20.2001 107.8 19.9001 107.1 19.6001C106.4 19.3001 105.7 19.1001 104.9 18.9001L103 18.4001C102.6 18.3001 102.2 18.2001 101.8 18.0001C101.4 17.9001 101 17.7001 100.7 17.5001C100.4 17.3001 100.1 17.0001 99.8999 16.7001C99.6999 16.4001 99.5999 16.0001 99.5999 15.6001C99.5999 15.1001 99.7999 14.7001 99.9999 14.3001C100.3 13.9001 100.7 13.6001 101.2 13.4001C101.7 13.2001 102.4 13.1001 103.1 13.1001C104.2 13.1001 105.1 13.3001 105.7 13.8001C106.4 14.3001 106.8 14.9001 106.8 15.8001H110.3C110.3 14.7001 110 13.7001 109.4 12.8001C108.8 11.9001 107.9 11.2001 106.9 10.8001C105.8 10.3001 104.6 10.1001 103.2 10.1001C101.8 10.1001 100.5 10.3001 99.3999 10.8001C98.2999 11.3001 97.3999 12.0001 96.7999 12.9001C96.1999 13.8001 95.7999 14.8001 95.7999 16.0001C95.7999 17.4001 96.2999 18.6001 97.1999 19.4001C98.1999 20.3001 99.4999 20.9001 101.1 21.3001L103.4 21.9001C104.1 22.1001 104.7 22.3001 105.3 22.5001C105.8 22.7001 106.3 23.0001 106.6 23.4001C106.9 23.7001 107.1 24.2001 107.1 24.7001C107.1 25.3001 106.9 25.8001 106.6 26.2001C106.3 26.6001 105.8 27.0001 105.2 27.2001C104.6 27.4001 103.9 27.6001 103.1 27.6001C102.3 27.6001 101.7 27.5001 101.1 27.3001C100.5 27.1001 99.9999 26.7001 99.5999 26.3001C99.1999 25.8001 98.9999 25.3001 98.9999 24.6001H95.3999C95.4999 25.9001 95.7999 27.1001 96.3999 28.0001C96.9999 28.9001 97.8999 29.6001 99.0999 30.1001C100.2 30.6001 101.6 30.8001 103.2 30.8001C104.8 30.8001 106.2 30.6001 107.3 30.1001C108.4 29.6001 109.3 28.9001 109.9 28.0001C110.5 27.1001 110.8 26.1001 110.8 24.9001C110.8 24.0001 110.6 23.3001 110.3 22.6001C110 21.7001 109.5 21.1001 109 20.7001Z" fill="#1C75BC"/>
<path d="M127.1 27.7C127.7 26.8 128 25.8 128 24.6C128 23.7 127.8 23 127.5 22.3C127.2 21.7 126.7 21.1 126.2 20.6C125.6 20.1 125 19.8 124.3 19.5C123.6 19.2 122.9 19 122.1 18.8L120.2 18.3C119.8 18.2 119.4 18.1 119 17.9C118.6 17.8 118.2 17.6 117.9 17.4C117.6 17.2 117.3 16.9 117.1 16.6C116.9 16.3 116.8 15.9 116.8 15.5C116.8 15 117 14.6 117.2 14.2C117.5 13.8 117.9 13.5 118.4 13.3C118.9 13.1 119.6 13 120.3 13C121.4 13 122.3 13.2 122.9 13.7C123.6 14.2 124 14.8 124 15.7H127.5C127.5 14.6 127.2 13.6 126.6 12.7C126 11.8 125.1 11.1 124.1 10.7C123 10.2 121.8 10 120.4 10C119 10 117.7 10.2 116.6 10.7C115.5 11.2 114.6 11.9 114 12.8C113.4 13.7 113 14.7 113 15.9C113 17.3 113.5 18.5 114.4 19.3C115.4 20.2 116.7 20.8 118.3 21.2L120.6 21.8C121.3 22 121.9 22.2 122.5 22.4C123 22.6 123.5 22.9 123.8 23.3C124.1 23.6 124.3 24.1 124.3 24.6C124.3 25.2 124.1 25.7 123.8 26.1C123.5 26.5 123 26.9 122.4 27.1C121.8 27.3 121.1 27.5 120.3 27.5C119.5 27.5 118.9 27.4 118.3 27.2C117.7 27 117.2 26.6 116.8 26.2C116.4 25.7 116.2 25.2 116.2 24.5H112.6C112.7 25.8 113 27 113.6 27.9C114.2 28.8 115.1 29.5 116.3 30C117.4 30.5 118.8 30.7 120.4 30.7C122 30.7 123.4 30.5 124.5 30C125.6 29.3 126.5 28.6 127.1 27.7Z" fill="#1C75BC"/>
<path d="M144.3 13.4001C143.8 12.4001 143 11.6001 141.9 11.0001C140.9 10.4001 139.6 10.1001 138 10.1001H130.5V30.1001H134.1V23.3001H137.9C139.4 23.3001 140.7 23.0001 141.8 22.4001C142.9 21.8001 143.7 21.0001 144.2 20.0001C144.7 19.0001 145 17.9001 145 16.6001C145.1 15.6001 144.8 14.4001 144.3 13.4001ZM141 18.7001C140.7 19.2001 140.3 19.7001 139.7 20.0001C139.1 20.3001 138.4 20.5001 137.5 20.5001H134.2V13.2001H137.5C138.4 13.2001 139.1 13.4001 139.7 13.7001C140.3 14.0001 140.7 14.4001 141 15.0001C141.3 15.6001 141.4 16.2001 141.4 16.9001C141.4 17.6001 141.3 18.2001 141 18.7001Z" fill="#1C75BC"/>
<path d="M164.3 14.7C163.5 13.2 162.4 12 161 11.2C159.6 10.4 158 10 156.3 10C154.5 10 153 10.4 151.6 11.2C150.2 12 149.1 13.2 148.3 14.7C147.5 16.2 147.1 18.1 147.1 20.2C147.1 22.4 147.5 24.2 148.3 25.7C149.1 27.2 150.2 28.4 151.6 29.2C153 30 154.6 30.4 156.3 30.4C158.1 30.4 159.6 30 161 29.2C162.4 28.4 163.5 27.2 164.3 25.7C165.1 24.2 165.5 22.3 165.5 20.2C165.5 18 165.1 16.2 164.3 14.7ZM161.1 24.1C160.6 25.1 160 25.9 159.1 26.5C158.3 27 157.3 27.3 156.2 27.3C155.1 27.3 154.1 27 153.3 26.5C152.5 26 151.8 25.2 151.3 24.1C150.8 23.1 150.6 21.8 150.6 20.2C150.6 18.7 150.8 17.4 151.3 16.3C151.8 15.3 152.4 14.5 153.3 13.9C154.1 13.4 155.1 13.1 156.2 13.1C157.3 13.1 158.3 13.4 159.1 13.9C159.9 14.4 160.6 15.2 161.1 16.3C161.6 17.3 161.8 18.6 161.8 20.2C161.8 21.7 161.6 23 161.1 24.1Z" fill="#1C75BC"/>
<path d="M179.2 22.3002C179.3 22.2002 179.5 22.2002 179.6 22.1002C180.7 21.6002 181.5 20.9002 182 19.9002C182.5 19.0002 182.8 17.8002 182.8 16.6002C182.8 15.3002 182.5 14.2002 182 13.2002C181.5 12.2002 180.7 11.5002 179.6 11.0002C178.6 10.5002 177.3 10.2002 175.7 10.2002H168.2V30.2002H171.8V22.9002H175.5L179.4 30.2002H183.5L179.2 22.3002ZM171.9 13.2002H175.2C176.1 13.2002 176.8 13.3002 177.4 13.6002C178 13.9002 178.4 14.2002 178.7 14.8002C179 15.3002 179.1 15.9002 179.1 16.6002C179.1 17.3002 179 17.9002 178.7 18.4002C178.4 18.9002 178 19.3002 177.4 19.5002C176.8 19.8002 176.1 19.9002 175.2 19.9002H171.9V13.2002Z" fill="#1C75BC"/>
<path d="M190.8 30.2002H194.4V13.2002H200.6V10.2002H184.6V13.2002H190.8V30.2002Z" fill="#1C75BC"/>
<path d="M216.6 23.5001C218.1 23.5001 219.4 23.2001 220.5 22.6001C221.6 22.0001 222.4 21.2001 222.9 20.2001C223.4 19.2001 223.7 18.1001 223.7 16.8001C223.7 15.5001 223.4 14.4001 222.9 13.4001C222.4 12.4001 221.6 11.6001 220.5 11.0001C219.5 10.4001 218.2 10.1001 216.6 10.1001H209.1V30.1001H212.7V23.3001H216.6V23.5001ZM216.1 13.2001C217 13.2001 217.7 13.4001 218.3 13.7001C218.9 14.0001 219.3 14.4001 219.6 15.0001C219.9 15.6001 220 16.2001 220 16.9001C220 17.6001 219.9 18.2001 219.6 18.8001C219.3 19.3001 218.9 19.8001 218.3 20.1001C217.7 20.4001 217 20.6001 216.1 20.6001H212.8V13.3001H216.1V13.2001Z" fill="#0DC6ED"/>
<path d="M229.8 21.7002H239.1V30.2002H242.7V10.2002H239.1V18.7002H229.8V10.2002H226.2V30.2002H229.8V21.7002Z" fill="#0DC6ED"/>
<path d="M250 29.3001C251.4 30.1001 253 30.5001 254.7 30.5001C256.5 30.5001 258 30.1001 259.4 29.3001C260.8 28.5001 261.9 27.3001 262.7 25.8001C263.5 24.3001 263.9 22.4001 263.9 20.3001C263.9 18.1001 263.5 16.3001 262.7 14.8001C261.9 13.3001 260.8 12.1001 259.4 11.3001C258 10.5001 256.4 10.1001 254.7 10.1001C252.9 10.1001 251.4 10.5001 250 11.3001C248.6 12.1001 247.5 13.3001 246.7 14.8001C245.9 16.3001 245.5 18.2001 245.5 20.3001C245.5 22.5001 245.9 24.3001 246.7 25.8001C247.5 27.3001 248.6 28.5001 250 29.3001ZM249.8 16.4001C250.3 15.4001 250.9 14.6001 251.8 14.0001C252.6 13.5001 253.6 13.2001 254.7 13.2001C255.8 13.2001 256.8 13.5001 257.6 14.0001C258.4 14.5001 259.1 15.3001 259.6 16.4001C260.1 17.4001 260.3 18.7001 260.3 20.3001C260.3 21.8001 260.1 23.1001 259.6 24.2001C259.1 25.2001 258.5 26.0001 257.6 26.6001C256.8 27.1001 255.8 27.4001 254.7 27.4001C253.6 27.4001 252.6 27.1001 251.8 26.6001C251 26.1001 250.3 25.3001 249.8 24.2001C249.3 23.2001 249.1 21.9001 249.1 20.3001C249.1 18.7001 249.3 17.4001 249.8 16.4001Z" fill="#0DC6ED"/>
<path d="M264.9 13.2002H271.1V30.2002H274.7V13.2002H280.9V10.2002H264.9V13.2002Z" fill="#0DC6ED"/>
<path d="M286.4 29.3001C287.8 30.1001 289.4 30.5001 291.1 30.5001C292.8 30.5001 294.4 30.1001 295.8 29.3001C297.2 28.5001 298.3 27.3001 299.1 25.8001C299.9 24.3001 300.3 22.4001 300.3 20.3001C300.3 18.1001 299.9 16.3001 299.1 14.8001C298.3 13.3001 297.2 12.1001 295.8 11.3001C294.4 10.5001 292.8 10.1001 291.1 10.1001C289.4 10.1001 287.8 10.5001 286.4 11.3001C285 12.1001 283.9 13.3001 283.1 14.8001C282.3 16.3001 281.9 18.2001 281.9 20.3001C281.9 22.5001 282.3 24.3001 283.1 25.8001C283.9 27.3001 285 28.5001 286.4 29.3001ZM286.2 16.4001C286.7 15.4001 287.3 14.6001 288.2 14.0001C289 13.5001 290 13.2001 291.1 13.2001C292.2 13.2001 293.2 13.5001 294 14.0001C294.8 14.5001 295.5 15.3001 296 16.4001C296.5 17.4001 296.7 18.7001 296.7 20.3001C296.7 21.8001 296.5 23.1001 296 24.2001C295.5 25.2001 294.9 26.0001 294 26.6001C293.2 27.1001 292.2 27.4001 291.1 27.4001C290 27.4001 289 27.1001 288.2 26.6001C287.4 26.1001 286.7 25.3001 286.2 24.2001C285.7 23.2001 285.5 21.9001 285.5 20.3001C285.5 18.7001 285.8 17.4001 286.2 16.4001Z" fill="#0DC6ED"/>
<path d="M306 29.8C307.1 30.3 308.5 30.5 310.1 30.5C311.7 30.5 313.1 30.3 314.2 29.8C315.3 29.3 316.2 28.6 316.8 27.7C317.4 26.8 317.7 25.8 317.7 24.6C317.7 23.7 317.5 23 317.2 22.3C316.9 21.7 316.4 21.1 315.9 20.6C315.3 20.1 314.7 19.8 314 19.5C313.3 19.2 312.6 19 311.8 18.8L309.9 18.3C309.5 18.2 309.1 18.1 308.7 17.9C308.3 17.8 307.9 17.6 307.6 17.4C307.3 17.2 307 16.9 306.8 16.6C306.6 16.3 306.5 15.9 306.5 15.5C306.5 15 306.7 14.6 306.9 14.2C307.2 13.8 307.6 13.5 308.1 13.3C308.6 13.1 309.3 13 310 13C311.1 13 312 13.2 312.6 13.7C313.3 14.2 313.7 14.8 313.7 15.7H317.2C317.2 14.6 316.9 13.6 316.3 12.7C315.7 11.8 314.8 11.1 313.8 10.7C312.7 10.2 311.5 10 310.1 10C308.7 10 307.4 10.2 306.3 10.7C305.2 11.2 304.3 11.9 303.7 12.8C303.1 13.7 302.7 14.7 302.7 15.9C302.7 17.3 303.2 18.5 304.1 19.3C305.1 20.2 306.4 20.8 308 21.2L310.3 21.8C311 22 311.6 22.2 312.2 22.4C312.7 22.6 313.2 22.9 313.5 23.3C313.8 23.6 314 24.1 314 24.6C314 25.2 313.8 25.7 313.5 26.1C313.2 26.5 312.7 26.9 312.1 27.1C311.5 27.3 310.8 27.5 310 27.5C309.2 27.5 308.6 27.4 308 27.2C307.4 27 306.9 26.6 306.5 26.2C306.1 25.7 305.9 25.2 305.9 24.5H302.3C302.4 25.8 302.7 27 303.3 27.9C304 28.6 304.9 29.3 306 29.8Z" fill="#0DC6ED"/>
</svg>
