<?xml version="1.0" encoding="utf-8"?>
<!-- Generator: Adobe Illustrator 24.2.0, SVG Export Plug-In . SVG Version: 6.00 Build 0)  -->
<svg version="1.1" id="Слой_1" xmlns="http://www.w3.org/2000/svg" xmlns:xlink="http://www.w3.org/1999/xlink" x="0px" y="0px"
	 viewBox="0 0 86.7 16" style="enable-background:new 0 0 86.7 16;" xml:space="preserve">
<style type="text/css">
	.st0{fill-rule:evenodd;clip-rule:evenodd;fill:#009EE3;}
	.st1{fill-rule:evenodd;clip-rule:evenodd;fill:#113984;}
	.st2{fill-rule:evenodd;clip-rule:evenodd;fill:#172C70;}
</style>
<path class="st0" d="M26.4,3.8h4.5c2.4,0,3.3,1.2,3.2,3c-0.2,3-2,4.6-4.4,4.6h-1.2c-0.3,0-0.5,0.2-0.6,0.8l-0.5,3.4
	c0,0.2-0.2,0.3-0.3,0.4h-2.8c-0.3,0-0.4-0.2-0.3-0.6l1.7-10.9C25.7,4,25.9,3.8,26.4,3.8z"/>
<path class="st1" d="M46,3.6c1.5,0,2.9,0.8,2.7,2.9c-0.2,2.4-1.5,3.8-3.6,3.8h-1.8c-0.3,0-0.4,0.2-0.5,0.6l-0.3,2.2
	c-0.1,0.3-0.2,0.5-0.5,0.5h-1.7c-0.3,0-0.4-0.2-0.3-0.6l1.4-8.9c0.1-0.4,0.2-0.6,0.5-0.6H46L46,3.6z M43.2,8.3h1.4
	c0.9,0,1.4-0.6,1.5-1.7c0-0.7-0.4-1.1-1.1-1.1l-1.3,0L43.2,8.3z M53.3,12.9c0.2-0.1,0.3-0.2,0.3,0l-0.1,0.4c0,0.2,0.1,0.3,0.3,0.3
	h1.5c0.3,0,0.4-0.1,0.4-0.5l0.9-5.8c0-0.3,0-0.4-0.2-0.4h-1.6c-0.1,0-0.2,0.1-0.3,0.3l-0.1,0.4c0,0.2-0.1,0.2-0.2,0
	c-0.3-0.7-1-1-2-0.9c-2.3,0-3.9,1.8-4,4c-0.1,1.7,1.1,3.1,2.8,3.1C52.2,13.8,52.7,13.5,53.3,12.9L53.3,12.9z M52,12.1
	c-1,0-1.7-0.8-1.5-1.8c0.1-1,1.1-1.8,2.1-1.8c1,0,1.7,0.8,1.5,1.8C54,11.3,53,12.1,52,12.1z M59.5,6.9H58c-0.3,0-0.4,0.2-0.3,0.5
	l1.9,5.5l-1.8,2.6c-0.2,0.2,0,0.4,0.2,0.4h1.7c0.1,0,0.2,0,0.3,0c0.1,0,0.2-0.1,0.2-0.2l5.8-8.3c0.2-0.3,0.1-0.5-0.2-0.5h-1.6
	c-0.3,0-0.4,0.1-0.5,0.3l-2.4,3.5l-1.1-3.5C60,7,59.8,6.9,59.5,6.9L59.5,6.9z"/>
<path class="st0" d="M71.9,3.6c1.5,0,2.9,0.8,2.7,2.9c-0.2,2.4-1.5,3.8-3.6,3.8h-1.8c-0.3,0-0.4,0.2-0.5,0.6l-0.3,2.2
	c-0.1,0.3-0.2,0.5-0.5,0.5h-1.7c-0.3,0-0.4-0.2-0.3-0.6l1.4-8.9c0.1-0.4,0.2-0.6,0.5-0.6L71.9,3.6L71.9,3.6z M69.2,8.3h1.4
	c0.9,0,1.4-0.6,1.5-1.7c0-0.7-0.4-1.1-1.1-1.1l-1.3,0L69.2,8.3z M79.2,12.9c0.2-0.1,0.3-0.2,0.3,0l-0.1,0.4c0,0.2,0.1,0.3,0.3,0.3
	h1.5c0.3,0,0.4-0.1,0.4-0.5l0.9-5.8c0-0.3,0-0.4-0.2-0.4h-1.6c-0.1,0-0.2,0.1-0.3,0.3l-0.1,0.4c0,0.2-0.1,0.2-0.2,0
	c-0.3-0.7-1-1-2-0.9c-2.3,0-3.9,1.8-4,4c-0.1,1.7,1.1,3.1,2.8,3.1C78.1,13.8,78.6,13.5,79.2,12.9L79.2,12.9z M78,12.1
	c-1,0-1.7-0.8-1.5-1.8c0.1-1,1.1-1.8,2.1-1.8c1,0,1.7,0.8,1.5,1.8C79.9,11.3,79,12.1,78,12.1z M84.9,13.7h-1.7c0,0-0.1,0-0.1,0
	c0,0-0.1,0-0.1-0.1c0,0,0,0,0-0.1c0,0,0-0.1,0-0.1l1.5-9.6c0-0.1,0.1-0.1,0.1-0.2c0.1,0,0.1-0.1,0.2-0.1h1.7c0,0,0.1,0,0.1,0
	c0,0,0.1,0,0.1,0.1c0,0,0,0,0,0.1c0,0,0,0.1,0,0.1l-1.5,9.6c0,0.1-0.1,0.1-0.1,0.2C85,13.6,84.9,13.7,84.9,13.7L84.9,13.7z"/>
<path class="st1" d="M23.6,0h4.5c1.3,0,2.8,0,3.8,0.9c0.7,0.6,1,1.5,0.9,2.6c-0.3,3.4-2.3,5.4-5.1,5.4h-2.2c-0.4,0-0.6,0.3-0.7,0.9
	l-0.6,4c0,0.3-0.2,0.4-0.3,0.4H21c-0.3,0-0.4-0.2-0.3-0.7l2-12.7C22.7,0.2,23,0,23.6,0z"/>
<path class="st2" d="M24.8,9.4l0.8-5c0.1-0.4,0.3-0.6,0.8-0.6h4.5c0.7,0,1.4,0.1,1.8,0.3c-0.5,3.1-2.4,4.8-5,4.8h-2.2
	C25.2,8.9,24.9,9,24.8,9.4z"/>
</svg>
