<svg width="20" height="20" viewBox="0 0 20 20" fill="none" xmlns="http://www.w3.org/2000/svg">
<path fill-rule="evenodd" clip-rule="evenodd" d="M6.08984 7.49609C7.16702 5.97029 7.83939 4.21946 8.10913 2.23734C8.13483 2.04853 8.26892 1.89152 8.45297 1.83475C10.308 1.26252 11.3626 2.17183 11.3452 4.24523C11.3418 4.6477 11.3232 5.00543 11.2835 5.55257C11.1949 6.77468 11.202 7.10818 11.3392 7.33259C11.4712 7.54832 11.8996 7.62197 12.9127 7.43023C13.2324 7.36973 13.5531 7.30115 13.9083 7.21879C14.0651 7.18244 15.1945 6.90774 15.4832 6.8456C16.0339 6.72708 16.4291 6.67691 16.7765 6.69816C17.7178 6.7557 18.2173 7.3598 18.3037 8.51719C18.4557 10.5554 17.986 14.6495 17.5174 16.1575C17.0386 17.6985 16.2036 18.2802 14.1993 18.3153C12.9106 18.3379 10.9286 18.3379 8.244 18.3152C7.55869 18.2994 6.93763 18.1671 6.3852 17.9198C6.54027 17.5997 6.62711 17.2412 6.62711 16.8627V9.01957C6.62711 8.4438 6.42619 7.9144 6.08984 7.49609Z" fill="#1565D8"/>
<path d="M3.15431 7.54907C2.33235 7.54907 1.66602 8.20748 1.66602 9.01966V16.8628C1.66602 17.675 2.33235 18.3334 3.15431 18.3334H4.14651C4.96847 18.3334 5.63481 17.675 5.63481 16.8628V9.01966C5.63481 8.20748 4.96847 7.54907 4.14651 7.54907H3.15431Z" fill="#B4CCEF"/>
</svg>
