<svg width="200" height="199" viewBox="0 0 200 199" fill="none" xmlns="http://www.w3.org/2000/svg">
<path opacity="0.093657" fill-rule="evenodd" clip-rule="evenodd" d="M97.9528 14.3574C102.623 11.661 108.377 11.661 113.047 14.3574L179.792 52.8926C184.462 55.589 187.339 60.572 187.339 65.9647V143.035C187.339 148.428 184.462 153.411 179.792 156.107L113.047 194.643C108.377 197.339 102.623 197.339 97.9528 194.643L31.2078 156.107C26.5376 153.411 23.6606 148.428 23.6606 143.035V65.9647C23.6606 60.572 26.5376 55.589 31.2078 52.8926L97.9528 14.3574Z" fill="#1565D8"/>
<g opacity="0.2">
<mask id="mask0" mask-type="alpha" maskUnits="userSpaceOnUse" x="12" y="2" width="165" height="185">
<path fill-rule="evenodd" clip-rule="evenodd" d="M86.9174 4.35736C91.5876 1.66102 97.3415 1.66102 102.012 4.35736L168.726 42.8749C173.396 45.5713 176.273 50.5543 176.273 55.947V132.982C176.273 138.375 173.396 143.358 168.726 146.054L102.012 184.572C97.3415 187.268 91.5876 187.268 86.9174 184.572L20.203 146.054C15.5328 143.358 12.6559 138.375 12.6559 132.982V55.947C12.6559 50.5543 15.5328 45.5713 20.203 42.8749L86.9174 4.35736Z" fill="white"/>
</mask>
<g mask="url(#mask0)">
<path fill-rule="evenodd" clip-rule="evenodd" d="M125.513 -62.2412L304.306 321.18L305.882 320.445L127.09 -62.9764L125.513 -62.2412ZM295.607 321.18L116.815 -62.2412L118.392 -62.9764L297.184 320.445L295.607 321.18ZM108.117 -62.2412L286.909 321.18L288.486 320.445L109.693 -62.9764L108.117 -62.2412ZM278.211 321.18L99.4182 -62.2412L100.995 -62.9764L279.787 320.445L278.211 321.18ZM90.7199 -62.2412L269.512 321.18L271.089 320.445L92.2965 -62.9764L90.7199 -62.2412ZM260.814 321.18L82.0215 -62.2412L83.5982 -62.9764L262.391 320.445L260.814 321.18ZM73.3232 -62.2412L252.116 321.18L253.692 320.445L74.8998 -62.9764L73.3232 -62.2412ZM243.417 321.18L64.6248 -62.2412L66.2015 -62.9764L244.994 320.445L243.417 321.18ZM55.9264 -62.2412L234.719 321.18L236.295 320.445L57.5031 -62.9764L55.9264 -62.2412ZM226.02 321.18L47.2281 -62.2412L48.8047 -62.9764L227.597 320.445L226.02 321.18ZM38.5297 -62.2412L217.322 321.18L218.899 320.445L40.1064 -62.9764L38.5297 -62.2412ZM208.624 321.18L29.8314 -62.2412L31.4081 -62.9764L210.2 320.445L208.624 321.18ZM21.133 -62.2412L199.925 321.18L201.502 320.445L22.7097 -62.9764L21.133 -62.2412ZM191.227 321.18L12.4347 -62.2412L14.0114 -62.9764L192.804 320.445L191.227 321.18ZM3.7363 -62.2412L182.529 321.18L184.105 320.445L5.31299 -62.9764L3.7363 -62.2412ZM173.83 321.18L-4.96207 -62.2412L-3.38538 -62.9764L175.407 320.445L173.83 321.18ZM-13.6604 -62.2412L165.132 321.18L166.709 320.445L-12.0837 -62.9764L-13.6604 -62.2412ZM156.434 321.18L-22.3588 -62.2412L-20.7821 -62.9764L158.01 320.445L156.434 321.18ZM-31.0571 -62.2412L147.735 321.18L149.312 320.445L-29.4804 -62.9764L-31.0571 -62.2412ZM139.037 321.18L-39.7555 -62.2412L-38.1788 -62.9764L140.614 320.445L139.037 321.18ZM-48.4538 -62.2412L130.339 321.18L131.915 320.445L-46.8771 -62.9764L-48.4538 -62.2412ZM121.64 321.18L-57.1522 -62.2412L-55.5755 -62.9764L123.217 320.445L121.64 321.18ZM-65.8505 -62.2412L112.942 321.18L114.519 320.445L-64.2738 -62.9764L-65.8505 -62.2412ZM104.243 321.18L-74.5489 -62.2412L-72.9722 -62.9764L105.82 320.445L104.243 321.18ZM-83.2473 -62.2412L95.5451 321.18L97.1218 320.445L-81.6706 -62.9764L-83.2473 -62.2412ZM-91.9456 -62.2412L86.8468 321.18L88.4235 320.445L-90.3689 -62.9764L-91.9456 -62.2412Z" fill="#1565D8"/>
</g>
</g>
</svg>
