<svg width="18" height="18" viewBox="0 0 18 18" xmlns="http://www.w3.org/2000/svg">
<path d="M7.371 3.75L5.871 5.25H3V14.25H15V5.25H12.129L10.629 3.75H7.371ZM6.75 2.25H11.25L12.75 3.75H15.75C15.9489 3.75 16.1397 3.82902 16.2803 3.96967C16.421 4.11032 16.5 4.30109 16.5 4.5V15C16.5 15.1989 16.421 15.3897 16.2803 15.5303C16.1397 15.671 15.9489 15.75 15.75 15.75H2.25C2.05109 15.75 1.86032 15.671 1.71967 15.5303C1.57902 15.3897 1.5 15.1989 1.5 15V4.5C1.5 4.30109 1.57902 4.11032 1.71967 3.96967C1.86032 3.82902 2.05109 3.75 2.25 3.75H5.25L6.75 2.25ZM9 13.5C7.90598 13.5 6.85677 13.0654 6.08318 12.2918C5.3096 11.5182 4.875 10.469 4.875 9.375C4.875 8.28098 5.3096 7.23177 6.08318 6.45818C6.85677 5.6846 7.90598 5.25 9 5.25C10.094 5.25 11.1432 5.6846 11.9168 6.45818C12.6904 7.23177 13.125 8.28098 13.125 9.375C13.125 10.469 12.6904 11.5182 11.9168 12.2918C11.1432 13.0654 10.094 13.5 9 13.5ZM9 12C9.69619 12 10.3639 11.7234 10.8562 11.2312C11.3484 10.7389 11.625 10.0712 11.625 9.375C11.625 8.67881 11.3484 8.01113 10.8562 7.51884C10.3639 7.02656 9.69619 6.75 9 6.75C8.30381 6.75 7.63613 7.02656 7.14385 7.51884C6.65156 8.01113 6.375 8.67881 6.375 9.375C6.375 10.0712 6.65156 10.7389 7.14385 11.2312C7.63613 11.7234 8.30381 12 9 12Z"/>
</svg>
