<svg width="16" height="16" viewBox="0 0 16 16" xmlns="http://www.w3.org/2000/svg">
<path d="M7.99999 14.6668C4.31799 14.6668 1.33332 11.6822 1.33332 8.00016C1.33332 4.31816 4.31799 1.3335 7.99999 1.3335C11.682 1.3335 14.6667 4.31816 14.6667 8.00016C14.6667 11.6822 11.682 14.6668 7.99999 14.6668ZM7.99999 13.3335C9.41448 13.3335 10.771 12.7716 11.7712 11.7714C12.7714 10.7712 13.3333 9.41465 13.3333 8.00016C13.3333 6.58567 12.7714 5.22912 11.7712 4.22893C10.771 3.22873 9.41448 2.66683 7.99999 2.66683C6.5855 2.66683 5.22895 3.22873 4.22875 4.22893C3.22856 5.22912 2.66665 6.58567 2.66665 8.00016C2.66665 9.41465 3.22856 10.7712 4.22875 11.7714C5.22895 12.7716 6.5855 13.3335 7.99999 13.3335ZM7.99999 7.0575L9.88532 5.1715L10.8287 6.11483L8.94265 8.00016L10.8287 9.8855L9.88532 10.8288L7.99999 8.94283L6.11465 10.8288L5.17132 9.8855L7.05732 8.00016L5.17132 6.11483L6.11465 5.1715L7.99999 7.0575Z"/>
</svg>
