<svg width="18" height="18" viewBox="0 0 18 18" xmlns="http://www.w3.org/2000/svg">
	<path d="M5.3,9c0-0.5-0.4-0.8-0.8-0.8H1.2C0.8,8.2,0.4,8.5,0.4,9s0.4,0.8,0.8,0.8h3.3C5,9.8,5.3,9.5,5.3,9z"/>
	<path d="M16.8,8.2h-1.6c-0.5,0-0.8,0.4-0.8,0.8s0.4,0.8,0.8,0.8h1.6c0.5,0,0.8-0.4,0.8-0.8S17.2,8.2,16.8,8.2z"/>
	<path d="M9.4,4.9c0.5,0,0.8-0.4,0.8-0.8V0.8C10.2,0.4,9.9,0,9.4,0S8.6,0.4,8.6,0.8v3.3C8.6,4.5,9,4.9,9.4,4.9z"/>
	<path d="M9.4,13.1c-0.5,0-0.8,0.4-0.8,0.8v3.3C8.6,17.6,9,18,9.4,18c0.5,0,0.8-0.4,0.8-0.8v-3.3
		C10.2,13.5,9.9,13.1,9.4,13.1z"/>
	<path d="M4.2,2.6C3.9,2.3,3.4,2.3,3,2.6C2.7,3,2.7,3.5,3,3.8l2.3,2.3c0.2,0.2,0.4,0.2,0.6,0.2c0.2,0,0.4-0.1,0.6-0.2
		c0.3-0.3,0.3-0.8,0-1.2L4.2,2.6z"/>
	<path d="M13.5,11.9c-0.3-0.3-0.8-0.3-1.2,0c-0.3,0.3-0.3,0.8,0,1.2l2.3,2.3c0.2,0.2,0.4,0.2,0.6,0.2s0.4-0.1,0.6-0.2
		c0.3-0.3,0.3-0.8,0-1.2L13.5,11.9z"/>
	<path d="M5.4,11.9L3,14.2c-0.3,0.3-0.3,0.8,0,1.2c0.2,0.2,0.4,0.2,0.6,0.2s0.4-0.1,0.6-0.2L6.5,13
		c0.3-0.3,0.3-0.8,0-1.2C6.2,11.6,5.7,11.6,5.4,11.9z"/>
</svg>