<svg width="23" height="22" viewBox="0 0 23 22" xmlns="http://www.w3.org/2000/svg">
<path d="M1.4165 13.2914C1.41594 12.2789 1.67356 11.283 2.16501 10.3978C2.65646 9.51255 3.36552 8.76725 4.22517 8.23233C4.45206 6.46324 5.31582 4.83746 6.65481 3.65922C7.99381 2.48099 9.71626 1.83105 11.4998 1.83105C13.2834 1.83105 15.0059 2.48099 16.3449 3.65922C17.6839 4.83746 18.5476 6.46324 18.7745 8.23233C19.8408 8.89571 20.6702 9.87903 21.1444 11.0419C21.6185 12.2048 21.7131 13.4877 21.4146 14.7075C21.1162 15.9273 20.44 17.0217 19.4825 17.8343C18.525 18.6469 17.3353 19.1362 16.0832 19.2323L6.9165 19.2497C3.84017 18.9986 1.4165 16.4282 1.4165 13.2914ZM15.9438 17.4045C16.8108 17.3378 17.6346 16.9989 18.2975 16.4361C18.9603 15.8733 19.4284 15.1154 19.6348 14.2706C19.8411 13.4259 19.7753 12.5376 19.4466 11.7325C19.118 10.9274 18.5433 10.2468 17.8047 9.78791L17.0649 9.32683L16.9549 8.46333C16.7836 7.13754 16.1353 5.91952 15.1313 5.03691C14.1273 4.1543 12.8362 3.6675 11.4994 3.6675C10.1626 3.6675 8.8715 4.1543 7.86748 5.03691C6.86345 5.91952 6.21519 7.13754 6.04384 8.46333L5.93384 9.32683L5.19592 9.78791C4.45736 10.2468 3.88269 10.9273 3.55398 11.7323C3.22528 12.5373 3.15935 13.4256 3.36562 14.2702C3.57189 15.1149 4.0398 15.8728 4.70253 16.4357C5.36525 16.9986 6.1889 17.3377 7.05584 17.4045L7.21442 17.4164H15.7853L15.9438 17.4045ZM12.4165 11.9164V15.5831H10.5832V11.9164H7.83317L11.4998 7.33308L15.1665 11.9164H12.4165Z"/>
</svg>