<!-- Generated by IcoMoon.io -->
<svg version="1.1" xmlns="http://www.w3.org/2000/svg" width="32" height="32" viewBox="0 0 32 32">
<title>info</title>
<path d="M16 29.334c-7.364 0-13.333-5.969-13.333-13.333s5.969-13.333 13.333-13.333c7.364 0 13.333 5.969 13.333 13.333s-5.969 13.333-13.333 13.333zM16 26.667c2.829 0 5.542-1.124 7.543-3.124s3.124-4.713 3.124-7.542c0-2.829-1.124-5.542-3.124-7.543s-4.714-3.124-7.543-3.124-5.542 1.124-7.542 3.124c-2 2-3.124 4.713-3.124 7.543s1.124 5.542 3.124 7.542 4.713 3.124 7.542 3.124zM14.667 9.334h2.667v2.667h-2.667v-2.667zM14.667 14.667h2.667v8h-2.667v-8z"></path>
</svg>
