<!-- Generated by IcoMoon.io -->
<svg version="1.1" xmlns="http://www.w3.org/2000/svg" width="32" height="32" viewBox="0 0 32 32">
<title>location</title>
<path d="M16 30.324l-8.533-8.533c-1.676-1.676-2.895-3.81-3.352-6.095s-0.152-4.724 0.762-7.010c0.914-2.133 2.438-4.114 4.419-5.333 1.981-1.371 4.267-1.981 6.705-1.981s4.724 0.762 6.705 1.981 3.505 3.2 4.419 5.333 1.219 4.571 0.61 6.857c-0.457 2.286-1.676 4.419-3.352 6.095l-8.381 8.686zM22.552 19.962c1.371-1.371 2.133-2.895 2.59-4.724 0.305-1.829 0.152-3.657-0.457-5.333-0.762-1.676-1.829-3.2-3.505-4.114s-3.352-1.524-5.181-1.524c-1.829-0.305-3.657 0.305-5.181 1.219s-2.743 2.59-3.505 4.267-0.914 3.657-0.457 5.333c0.305 1.829 1.219 3.505 2.59 4.724l6.552 6.552 6.552-6.4zM16 16c-0.762 0-1.371-0.305-1.829-0.762s-0.762-1.219-0.762-1.829c0-0.762 0.305-1.371 0.762-1.829s1.219-0.762 1.829-0.762 1.371 0.305 1.829 0.762 0.762 1.219 0.762 1.829c0 0.762-0.305 1.371-0.762 1.829s-1.067 0.762-1.829 0.762z"></path>
</svg>
