<svg width="24" height="24" viewBox="0 0 24 24" xmlns="http://www.w3.org/2000/svg">
<path d="M15.199 9.9454C14.7653 9.53451 14.4863 8.9868 14.409 8.3944L14.006 5.3114L11.276 6.7974C10.7511 7.08341 10.1436 7.17983 9.55597 7.0704L6.49997 6.5004L7.06997 9.5564C7.1794 10.1441 7.08299 10.7515 6.79697 11.2764L5.31097 14.0064L8.39397 14.4094C8.98603 14.4869 9.53335 14.7659 9.94397 15.1994L12.082 17.4564L13.418 14.6494C13.6744 14.11 14.1087 13.6753 14.648 13.4184L17.456 12.0824L15.199 9.9454ZM15.224 15.5084L13.011 20.1584C12.9691 20.2463 12.9065 20.3227 12.8285 20.381C12.7505 20.4393 12.6594 20.4778 12.5633 20.493C12.4671 20.5083 12.3686 20.4999 12.2764 20.4686C12.1842 20.4373 12.101 20.384 12.034 20.3134L8.49197 16.5744C8.39735 16.4746 8.27131 16.4104 8.13497 16.3924L3.02797 15.7244C2.93149 15.7117 2.83954 15.6757 2.76006 15.6195C2.68058 15.5634 2.61596 15.4887 2.57177 15.402C2.52758 15.3153 2.50514 15.2191 2.5064 15.1218C2.50765 15.0245 2.53256 14.9289 2.57897 14.8434L5.04097 10.3194C5.10642 10.1984 5.12831 10.0586 5.10297 9.9234L4.15997 4.8604C4.14207 4.76456 4.14778 4.66581 4.17662 4.57268C4.20546 4.47956 4.25656 4.39486 4.3255 4.32592C4.39444 4.25699 4.47913 4.20589 4.57226 4.17704C4.66539 4.1482 4.76414 4.14249 4.85997 4.1604L9.92297 5.1034C10.0582 5.12873 10.198 5.10685 10.319 5.0414L14.843 2.5794C14.9286 2.53297 15.0242 2.50808 15.1216 2.50688C15.219 2.50568 15.3152 2.5282 15.4019 2.5725C15.4887 2.61681 15.5633 2.68155 15.6194 2.76115C15.6755 2.84076 15.7114 2.93282 15.724 3.0294L16.392 8.1354C16.4099 8.27174 16.4742 8.39777 16.574 8.4924L20.313 12.0344C20.3836 12.1014 20.4369 12.1846 20.4682 12.2768C20.4995 12.3691 20.5079 12.4675 20.4926 12.5637C20.4774 12.6599 20.4389 12.7509 20.3806 12.8289C20.3223 12.9069 20.2459 12.9695 20.158 13.0114L15.508 15.2244C15.3835 15.2836 15.2832 15.3839 15.224 15.5084ZM16.021 17.4354L17.435 16.0214L21.678 20.2634L20.263 21.6784L16.021 17.4354Z"/>
</svg>
