<svg width="17" height="17" viewBox="0 0 17 17" xmlns="http://www.w3.org/2000/svg">
<path d="M8.44727 0.169922C4.03607 0.169922 0.447266 3.75872 0.447266 8.16992C0.447266 12.5811 4.03607 16.1699 8.44727 16.1699C12.8585 16.1699 16.4473 12.5811 16.4473 8.16992C16.4473 3.75872 12.8585 0.169922 8.44727 0.169922ZM8.44727 14.5699C4.91847 14.5699 2.04727 11.6987 2.04727 8.16992C2.04727 4.64112 4.91847 1.76992 8.44727 1.76992C11.9761 1.76992 14.8473 4.64112 14.8473 8.16992C14.8473 11.6987 11.9761 14.5699 8.44727 14.5699Z"/>
<path d="M6.84722 9.43957L5.00802 7.60355L3.87842 8.73637L6.84882 11.7004L12.2137 6.33555L11.0825 5.20435L6.84722 9.43957Z"/>
</svg>
