<svg width="14" height="14" viewBox="0 0 14 14" xmlns="http://www.w3.org/2000/svg">
<path d="M3.18659 2.58625C4.24508 1.66905 5.59925 1.16504 6.99984 1.167C10.2216 1.167 12.8332 3.77858 12.8332 7.00033C12.8332 8.24633 12.4423 9.40133 11.7773 10.3487L9.9165 7.00033H11.6665C11.6666 6.08544 11.3977 5.19072 10.8934 4.4274C10.3891 3.66408 9.67146 3.06584 8.82986 2.70707C7.98825 2.3483 7.05975 2.24482 6.15981 2.40951C5.25987 2.57419 4.42819 2.99977 3.76817 3.63333L3.18659 2.58625ZM10.8131 11.4144C9.7546 12.3316 8.40043 12.8356 6.99984 12.8337C3.77809 12.8337 1.1665 10.2221 1.1665 7.00033C1.1665 5.75433 1.55734 4.59933 2.22234 3.652L4.08317 7.00033H2.33317C2.3331 7.91522 2.60194 8.80995 3.10628 9.57327C3.61062 10.3366 4.32821 10.9348 5.16982 11.2936C6.01142 11.6524 6.93992 11.7558 7.83986 11.5912C8.73981 11.4265 9.57149 11.0009 10.2315 10.3673L10.8131 11.4144Z"/>
</svg>
