<!-- Generated by IcoMoon.io -->
<svg version="1.1" xmlns="http://www.w3.org/2000/svg" width="32" height="32" viewBox="0 0 32 32">
<title>user</title>
<path d="M5.79 29.41c0-2.743 1.067-5.333 3.048-7.162 1.981-1.981 4.419-3.048 7.162-3.048s5.333 1.067 7.162 3.048c1.981 1.981 3.048 4.419 3.048 7.162h-2.59c0-1.981-0.762-3.962-2.286-5.333-1.371-1.371-3.352-2.286-5.333-2.286s-3.962 0.762-5.333 2.286c-1.371 1.371-2.286 3.352-2.286 5.333h-2.59zM16 17.981c-4.267 0-7.619-3.352-7.619-7.619s3.352-7.619 7.619-7.619c4.267 0 7.619 3.352 7.619 7.619s-3.352 7.619-7.619 7.619zM16 15.39c2.743 0 5.029-2.286 5.029-5.029s-2.286-5.029-5.029-5.029c-2.743 0-5.029 2.286-5.029 5.029s2.286 5.029 5.029 5.029z"></path>
</svg>
