<svg width="27" height="27" viewBox="0 0 27 27" fill="none" xmlns="http://www.w3.org/2000/svg">
<path d="M6.74995 2.69922C5.67582 2.69922 4.64569 3.12591 3.88617 3.88544C3.12665 4.64496 2.69995 5.67509 2.69995 6.74922V11.4742C2.69995 11.6532 2.77107 11.8249 2.89765 11.9515C3.02424 12.0781 3.19593 12.1492 3.37495 12.1492C3.55397 12.1492 3.72566 12.0781 3.85225 11.9515C3.97884 11.8249 4.04995 11.6532 4.04995 11.4742V6.74922C4.04995 6.03313 4.33441 5.34638 4.84076 4.84003C5.34711 4.33368 6.03387 4.04922 6.74995 4.04922H11.475C11.654 4.04922 11.8257 3.9781 11.9522 3.85152C12.0788 3.72493 12.15 3.55324 12.15 3.37422C12.15 3.1952 12.0788 3.02351 11.9522 2.89692C11.8257 2.77033 11.654 2.69922 11.475 2.69922H6.74995ZM15.525 2.69922C15.3459 2.69922 15.1742 2.77033 15.0477 2.89692C14.9211 3.02351 14.85 3.1952 14.85 3.37422C14.85 3.55324 14.9211 3.72493 15.0477 3.85152C15.1742 3.9781 15.3459 4.04922 15.525 4.04922H20.25C20.966 4.04922 21.6528 4.33368 22.1591 4.84003C22.6655 5.34638 22.95 6.03313 22.95 6.74922V11.4742C22.95 11.6532 23.0211 11.8249 23.1477 11.9515C23.2742 12.0781 23.4459 12.1492 23.625 12.1492C23.804 12.1492 23.9757 12.0781 24.1022 11.9515C24.2288 11.8249 24.3 11.6532 24.3 11.4742V6.74922C24.3 5.67509 23.8733 4.64496 23.1137 3.88544C22.3542 3.12591 21.3241 2.69922 20.25 2.69922H15.525ZM3.37495 14.8492C3.55397 14.8492 3.72566 14.9203 3.85225 15.0469C3.97884 15.1735 4.04995 15.3452 4.04995 15.5242V20.2492C4.04995 20.9653 4.33441 21.6521 4.84076 22.1584C5.34711 22.6648 6.03387 22.9492 6.74995 22.9492H11.475C11.654 22.9492 11.8257 23.0203 11.9522 23.1469C12.0788 23.2735 12.15 23.4452 12.15 23.6242C12.15 23.8032 12.0788 23.9749 11.9522 24.1015C11.8257 24.2281 11.654 24.2992 11.475 24.2992H6.74995C5.67582 24.2992 4.64569 23.8725 3.88617 23.113C3.12665 22.3535 2.69995 21.3233 2.69995 20.2492V15.5242C2.69995 15.3452 2.77107 15.1735 2.89765 15.0469C3.02424 14.9203 3.19593 14.8492 3.37495 14.8492ZM24.3 15.5242C24.3 15.3452 24.2288 15.1735 24.1022 15.0469C23.9757 14.9203 23.804 14.8492 23.625 14.8492C23.4459 14.8492 23.2742 14.9203 23.1477 15.0469C23.0211 15.1735 22.95 15.3452 22.95 15.5242V20.2492C22.95 20.9653 22.6655 21.6521 22.1591 22.1584C21.6528 22.6648 20.966 22.9492 20.25 22.9492H15.525C15.3459 22.9492 15.1742 23.0203 15.0477 23.1469C14.9211 23.2735 14.85 23.4452 14.85 23.6242C14.85 23.8032 14.9211 23.9749 15.0477 24.1015C15.1742 24.2281 15.3459 24.2992 15.525 24.2992H20.25C21.3241 24.2992 22.3542 23.8725 23.1137 23.113C23.8733 22.3535 24.3 21.3233 24.3 20.2492V15.5242Z" fill="black"/>
</svg>
