<svg width="27" height="27" viewBox="0 0 27 27" fill="none" xmlns="http://www.w3.org/2000/svg">
<path d="M16.875 8.64844H5.0625C4.67089 8.64844 4.29532 8.804 4.01841 9.08091C3.7415 9.35782 3.58594 9.73339 3.58594 10.125V21.9375C3.58594 22.3291 3.7415 22.7047 4.01841 22.9816C4.29532 23.2585 4.67089 23.4141 5.0625 23.4141H16.875C17.2666 23.4141 17.6422 23.2585 17.9191 22.9816C18.196 22.7047 18.3516 22.3291 18.3516 21.9375V10.125C18.3516 9.73339 18.196 9.35782 17.9191 9.08091C17.6422 8.804 17.2666 8.64844 16.875 8.64844ZM17.0859 21.9375C17.0859 21.9934 17.0637 22.0471 17.0242 22.0867C16.9846 22.1262 16.9309 22.1484 16.875 22.1484H5.0625C5.00656 22.1484 4.9529 22.1262 4.91334 22.0867C4.87379 22.0471 4.85156 21.9934 4.85156 21.9375V10.125C4.85156 10.0691 4.87379 10.0154 4.91334 9.97584C4.9529 9.93629 5.00656 9.91406 5.0625 9.91406H16.875C16.9309 9.91406 16.9846 9.93629 17.0242 9.97584C17.0637 10.0154 17.0859 10.0691 17.0859 10.125V21.9375ZM14.5547 4.21875C14.5547 4.05092 14.6214 3.88996 14.74 3.77128C14.8587 3.65261 15.0197 3.58594 15.1875 3.58594H16.875C17.0428 3.58594 17.2038 3.65261 17.3225 3.77128C17.4411 3.88996 17.5078 4.05092 17.5078 4.21875C17.5078 4.38658 17.4411 4.54754 17.3225 4.66622C17.2038 4.78489 17.0428 4.85156 16.875 4.85156H15.1875C15.0197 4.85156 14.8587 4.78489 14.74 4.66622C14.6214 4.54754 14.5547 4.38658 14.5547 4.21875ZM23.4141 5.0625V5.90625C23.4141 6.07408 23.3474 6.23504 23.2287 6.35372C23.11 6.47239 22.9491 6.53906 22.7812 6.53906C22.6134 6.53906 22.4525 6.47239 22.3338 6.35372C22.2151 6.23504 22.1484 6.07408 22.1484 5.90625V5.0625C22.1484 5.00656 22.1262 4.9529 22.0867 4.91334C22.0471 4.87379 21.9934 4.85156 21.9375 4.85156H21.0938C20.9259 4.85156 20.765 4.78489 20.6463 4.66622C20.5276 4.54754 20.4609 4.38658 20.4609 4.21875C20.4609 4.05092 20.5276 3.88996 20.6463 3.77128C20.765 3.65261 20.9259 3.58594 21.0938 3.58594H21.9375C22.3291 3.58594 22.7047 3.7415 22.9816 4.01841C23.2585 4.29532 23.4141 4.67089 23.4141 5.0625ZM23.4141 10.125V11.8125C23.4141 11.9803 23.3474 12.1413 23.2287 12.26C23.11 12.3786 22.9491 12.4453 22.7812 12.4453C22.6134 12.4453 22.4525 12.3786 22.3338 12.26C22.2151 12.1413 22.1484 11.9803 22.1484 11.8125V10.125C22.1484 9.95717 22.2151 9.79621 22.3338 9.67753C22.4525 9.55886 22.6134 9.49219 22.7812 9.49219C22.9491 9.49219 23.11 9.55886 23.2287 9.67753C23.3474 9.79621 23.4141 9.95717 23.4141 10.125ZM23.4141 16.0312V16.875C23.4141 17.2666 23.2585 17.6422 22.9816 17.9191C22.7047 18.196 22.3291 18.3516 21.9375 18.3516H21.0938C20.9259 18.3516 20.765 18.2849 20.6463 18.1662C20.5276 18.0475 20.4609 17.8866 20.4609 17.7188C20.4609 17.5509 20.5276 17.39 20.6463 17.2713C20.765 17.1526 20.9259 17.0859 21.0938 17.0859H21.9375C21.9934 17.0859 22.0471 17.0637 22.0867 17.0242C22.1262 16.9846 22.1484 16.9309 22.1484 16.875V16.0312C22.1484 15.8634 22.2151 15.7025 22.3338 15.5838C22.4525 15.4651 22.6134 15.3984 22.7812 15.3984C22.9491 15.3984 23.11 15.4651 23.2287 15.5838C23.3474 15.7025 23.4141 15.8634 23.4141 16.0312ZM8.64844 5.90625V5.0625C8.64844 4.67089 8.804 4.29532 9.08091 4.01841C9.35782 3.7415 9.73339 3.58594 10.125 3.58594H10.9688C11.1366 3.58594 11.2975 3.65261 11.4162 3.77128C11.5349 3.88996 11.6016 4.05092 11.6016 4.21875C11.6016 4.38658 11.5349 4.54754 11.4162 4.66622C11.2975 4.78489 11.1366 4.85156 10.9688 4.85156H10.125C10.0691 4.85156 10.0154 4.87379 9.97584 4.91334C9.93629 4.9529 9.91406 5.00656 9.91406 5.0625V5.90625C9.91406 6.07408 9.84739 6.23504 9.72872 6.35372C9.61004 6.47239 9.44908 6.53906 9.28125 6.53906C9.11342 6.53906 8.95246 6.47239 8.83378 6.35372C8.71511 6.23504 8.64844 6.07408 8.64844 5.90625Z" fill="black"/>
</svg>
