<svg width="27" height="27" viewBox="0 0 27 27" fill="none" xmlns="http://www.w3.org/2000/svg">
<path d="M17.6875 19.8409C17.2874 20.2129 16.9365 20.5568 16.5715 20.8866C16.4031 21.041 16.2136 21.1744 16.0452 21.3218C15.5398 21.7429 14.9924 21.9605 14.3116 21.9113C13.6238 21.8552 12.929 21.8903 12.2341 21.9043C11.9394 21.9113 11.6656 21.8552 11.4481 21.6727C10.7954 21.1463 10.1567 20.6059 9.51098 20.0655C9.44079 20.0093 9.39166 19.9391 9.30042 19.8479C9.28638 19.9462 9.27937 20.0023 9.27937 20.0655C9.27937 20.627 9.27937 21.1884 9.27937 21.7499C9.27235 22.6763 8.76702 23.4343 7.88971 23.7572C5.7561 24.5362 3.62249 25.2942 1.48888 26.0592C1.20112 26.1645 0.969515 26.0663 0.885293 25.8276C0.801072 25.589 0.927404 25.3714 1.21516 25.2662C3.26455 24.5292 5.32096 23.7923 7.37035 23.0553C8.17747 22.7676 8.43715 22.4026 8.43715 21.5464C8.43715 20.7112 8.43715 19.883 8.43715 19.0478C8.43715 18.9495 8.42311 18.8232 8.35995 18.76C7.41246 17.7354 7.09663 16.458 6.86502 15.1455C6.82291 14.8859 6.71763 14.7244 6.48602 14.5841C5.58064 14.0296 5.11742 13.2014 5.07531 12.1416C5.06127 11.7556 5.06829 11.3696 5.07531 10.9836C5.07531 10.2396 5.4122 9.8045 6.12808 9.615C6.16317 9.60798 6.19125 9.59394 6.24739 9.57289C6.23336 9.34128 6.22634 9.10265 6.20528 8.87104C5.95262 5.78994 7.11768 3.40366 9.75662 1.78942C11.0691 0.982297 12.5359 0.764725 14.0589 0.848946C17.0348 1.01739 19.5965 3.01765 20.4949 5.86012C20.8177 6.88482 20.8528 7.92355 20.7756 8.98334C20.7616 9.13072 20.7545 9.27811 20.7475 9.43252C20.7475 9.47463 20.7475 9.51674 20.7475 9.57289C20.8247 9.59394 20.8879 9.615 20.9581 9.62903C21.4915 9.79046 21.8494 10.1414 21.8845 10.6888C21.9266 11.3486 21.9336 12.0293 21.8284 12.6821C21.688 13.5594 21.1616 14.2121 20.3826 14.6472C20.2492 14.7244 20.1931 14.8157 20.158 14.9631C19.9755 15.7281 19.8281 16.5071 19.5474 17.2441C19.3509 17.7564 18.9719 18.1986 18.6841 18.6758C18.6139 18.7881 18.5507 18.9215 18.5507 19.0548C18.5367 19.9321 18.5437 20.8094 18.5437 21.6867C18.5437 22.3605 18.8455 22.7886 19.4842 23.0132C21.5266 23.7502 23.5689 24.4801 25.6183 25.217C25.6955 25.2451 25.7657 25.2662 25.8429 25.3013C26.0745 25.4065 26.1798 25.6241 26.1026 25.8347C26.0184 26.0592 25.7938 26.1715 25.5481 26.0803C24.9656 25.8768 24.3901 25.6732 23.8146 25.4627C22.2705 24.9082 20.7335 24.3538 19.1894 23.7993C18.2349 23.4554 17.7085 22.7114 17.7015 21.7008C17.6875 21.0902 17.6875 20.4936 17.6875 19.8409ZM13.4624 21.0551C13.8554 21.0551 14.2555 21.0691 14.6485 21.0481C14.8239 21.041 15.0134 20.9919 15.1608 20.9007C15.975 20.3953 16.6347 19.7146 17.2804 19.0197C18.2068 18.0231 18.9368 16.9423 19.1894 15.5526C19.6386 13.1242 19.8702 10.6748 19.9615 8.21131C20.0457 6.00049 19.1403 4.22482 17.3857 2.89834C15.9469 1.82451 14.3116 1.55079 12.564 1.72625C9.54607 2.03507 7.05452 4.70208 7.00539 7.72703C6.99135 8.47801 7.06153 9.236 7.11066 9.98698C7.22998 11.7907 7.3914 13.5874 7.74934 15.3631C7.88971 16.072 8.01604 16.8089 8.42311 17.4265C9.30744 18.739 10.3672 19.89 11.6516 20.8165C11.8832 20.9849 12.1289 21.0832 12.4307 21.0621C12.7746 21.034 13.1185 21.0551 13.4624 21.0551ZM6.28249 10.4432C6.00877 10.4923 5.90349 10.6537 5.90349 10.8924C5.90349 11.3275 5.88945 11.7697 5.91051 12.2048C5.93858 12.7452 6.14914 13.2084 6.59832 13.6296C6.48602 12.5347 6.38074 11.503 6.28249 10.4432ZM20.3685 13.6155C20.7335 13.2786 20.9581 12.9277 21.0002 12.5136C21.0563 11.9521 21.0493 11.3836 21.0493 10.8152C21.0493 10.6186 20.916 10.4853 20.6914 10.4502C20.5791 11.4959 20.4738 12.5206 20.3685 13.6155Z" fill="black"/>
<path d="M6.28098 10.4434C6.38626 11.5031 6.48451 12.5278 6.58979 13.6227C6.14061 13.2016 5.93006 12.7384 5.90198 12.198C5.88093 11.7628 5.89496 11.3207 5.89496 10.8855C5.89496 10.6539 6.00726 10.4995 6.28098 10.4434Z" fill="white"/>
<path d="M20.366 13.6155C20.4783 12.5206 20.5835 11.4889 20.6888 10.4502C20.9204 10.4853 21.0468 10.6186 21.0468 10.8152C21.0468 11.3837 21.0538 11.9521 20.9976 12.5136C20.9555 12.9277 20.7239 13.2786 20.366 13.6155Z" fill="white"/>
<path d="M3.20781 8.01959C3.20781 11.3383 3.20781 14.6522 3.20781 18.009C3.34468 17.8138 3.46485 17.6424 3.58503 17.471C3.73191 17.2615 3.83873 17.2329 3.93888 17.371C4.03902 17.5091 4.01565 17.6662 3.87211 17.8757C3.64512 18.1995 3.41812 18.5233 3.19112 18.847C3.04758 19.0518 2.95745 19.0518 2.81057 18.8423C2.56688 18.4995 2.32653 18.1519 2.08619 17.8043C1.98604 17.6567 1.97936 17.5043 2.05948 17.3758C2.14293 17.2472 2.26311 17.2472 2.36659 17.3996C2.50346 17.5948 2.63699 17.7995 2.77051 17.9995C2.78053 17.99 2.7872 17.9805 2.79722 17.9709C2.79722 14.6522 2.79722 11.3383 2.79722 8.00054C2.76717 8.03863 2.74047 8.06244 2.72044 8.09101C2.61362 8.24337 2.5068 8.39574 2.39997 8.54334C2.26645 8.7338 2.15629 8.7576 2.05948 8.62428C1.96601 8.49097 1.9827 8.33384 2.10955 8.14814C2.34323 7.81484 2.5769 7.48155 2.80723 7.15301C2.94744 6.95303 3.04091 6.94827 3.17777 7.14349C3.42146 7.48631 3.66515 7.82913 3.90216 8.18147C3.95223 8.25289 3.98895 8.38145 3.98227 8.47668C3.97893 8.55286 3.90549 8.66714 3.85208 8.68142C3.78866 8.70047 3.69185 8.66714 3.64178 8.60048C3.4949 8.41002 3.36471 8.19576 3.22784 7.99102C3.22451 8.00054 3.21449 8.01006 3.20781 8.01959Z" fill="black"/>
</svg>
