<svg width="27" height="30" viewBox="0 0 27 30" fill="none" xmlns="http://www.w3.org/2000/svg">
<g clip-path="url(#clip0_1946_6828)">
<g clip-path="url(#clip1_1946_6828)">
<path d="M18.8279 22.0089C18.4278 22.3808 18.0769 22.7247 17.7119 23.0546C17.5435 23.209 17.354 23.3424 17.1855 23.4898C16.6802 23.9109 16.1328 24.1284 15.452 24.0793C14.7642 24.0232 14.0693 24.0582 13.3745 24.0723C13.0797 24.0793 12.806 24.0232 12.5885 23.8407C11.9357 23.3143 11.2971 22.7739 10.6514 22.2334C10.5812 22.1773 10.532 22.1071 10.4408 22.0159C10.4268 22.1141 10.4197 22.1703 10.4197 22.2334C10.4197 22.7949 10.4197 23.3564 10.4197 23.9179C10.4127 24.8443 9.9074 25.6023 9.03009 25.9252C6.89648 26.7042 4.76287 27.4622 2.62926 28.2272C2.3415 28.3325 2.1099 28.2342 2.02567 27.9956C1.94145 27.757 2.06778 27.5394 2.35554 27.4341C4.40493 26.6972 6.46134 25.9603 8.51073 25.2233C9.31785 24.9356 9.57753 24.5706 9.57753 23.7143C9.57753 22.8791 9.57753 22.051 9.57753 21.2158C9.57753 21.1175 9.5635 20.9912 9.50033 20.928C8.55284 19.9033 8.23701 18.626 8.0054 17.3135C7.96329 17.0538 7.85801 16.8924 7.6264 16.752C6.72102 16.1976 6.2578 15.3694 6.21569 14.3096C6.20166 13.9236 6.20867 13.5376 6.21569 13.1516C6.21569 12.4076 6.55258 11.9725 7.26846 11.783C7.30355 11.7759 7.33163 11.7619 7.38777 11.7409C7.37374 11.5092 7.36672 11.2706 7.34566 11.039C7.093 7.95791 8.25806 5.57163 10.897 3.95739C12.2095 3.15027 13.6763 2.93269 15.1993 3.01691C18.1751 3.18536 20.7369 5.18562 21.6352 8.02809C21.9581 9.05279 21.9932 10.0915 21.916 11.1513C21.9019 11.2987 21.8949 11.4461 21.8879 11.6005C21.8879 11.6426 21.8879 11.6847 21.8879 11.7409C21.9651 11.7619 22.0283 11.783 22.0985 11.797C22.6319 11.9584 22.9898 12.3094 23.0249 12.8568C23.067 13.5165 23.074 14.1973 22.9687 14.85C22.8284 15.7273 22.302 16.3801 21.5229 16.8152C21.3896 16.8924 21.3334 16.9836 21.2984 17.131C21.1159 17.896 20.9685 18.6751 20.6877 19.412C20.4912 19.9244 20.1122 20.3665 19.8245 20.8438C19.7543 20.9561 19.6911 21.0894 19.6911 21.2228C19.6771 22.1001 19.6841 22.9774 19.6841 23.8547C19.6841 24.5285 19.9859 24.9566 20.6246 25.1812C22.667 25.9181 24.7093 26.6481 26.7587 27.385C26.8359 27.4131 26.9061 27.4341 26.9833 27.4692C27.2149 27.5745 27.3202 27.7921 27.243 28.0026C27.1588 28.2272 26.9342 28.3395 26.6885 28.2483C26.106 28.0447 25.5305 27.8412 24.955 27.6306C23.4109 27.0762 21.8739 26.5217 20.3298 25.9673C19.3753 25.6234 18.8489 24.8794 18.8419 23.8688C18.8279 23.2581 18.8279 22.6616 18.8279 22.0089ZM14.6027 23.2231C14.9958 23.2231 15.3958 23.2371 15.7889 23.216C15.9643 23.209 16.1538 23.1599 16.3012 23.0686C17.1154 22.5633 17.7751 21.8825 18.4208 21.1877C19.3472 20.1911 20.0771 19.1102 20.3298 17.7206C20.779 15.2922 21.0106 12.8428 21.1018 10.3793C21.1861 8.16846 20.2807 6.39279 18.5261 5.0663C17.0873 3.99248 15.452 3.71876 13.7044 3.89422C10.6864 4.20303 8.1949 6.87005 8.14577 9.895C8.13173 10.646 8.20192 11.404 8.25104 12.1549C8.37036 13.9587 8.53178 15.7554 8.88972 17.5311C9.03009 18.2399 9.15642 18.9769 9.5635 19.5945C10.4478 20.907 11.5076 22.058 12.792 22.9844C13.0236 23.1529 13.2692 23.2511 13.571 23.2301C13.9149 23.202 14.2588 23.2231 14.6027 23.2231ZM7.42287 12.6111C7.14915 12.6603 7.04387 12.8217 7.04387 13.0603C7.04387 13.4955 7.02983 13.9376 7.05089 14.3728C7.07896 14.9132 7.28952 15.3764 7.7387 15.7975C7.6264 14.7026 7.52112 13.6709 7.42287 12.6111ZM21.5089 15.7835C21.8739 15.4466 22.0985 15.0957 22.1406 14.6816C22.1967 14.1201 22.1897 13.5516 22.1897 12.9831C22.1897 12.7866 22.0563 12.6533 21.8318 12.6182C21.7195 13.6639 21.6142 14.6886 21.5089 15.7835Z" fill="black"/>
<path d="M8.28098 12.4434C8.38626 13.5031 8.48451 14.5278 8.58979 15.6227C8.14061 15.2016 7.93006 14.7384 7.90198 14.198C7.88093 13.7628 7.89496 13.3207 7.89496 12.8855C7.89496 12.6539 8.00726 12.4995 8.28098 12.4434Z" fill="white"/>
<path d="M22.366 15.6155C22.4783 14.5206 22.5835 13.4889 22.6888 12.4502C22.9204 12.4853 23.0468 12.6186 23.0468 12.8152C23.0468 13.3837 23.0538 13.9521 22.9976 14.5136C22.9555 14.9277 22.7239 15.2786 22.366 15.6155Z" fill="white"/>
</g>
<path d="M19.0654 1.20781C16.0232 1.20781 12.9855 1.20781 9.90839 1.20781C10.0873 1.34468 10.2445 1.46485 10.4016 1.58503C10.5936 1.73191 10.6198 1.83873 10.4933 1.93888C10.3667 2.03902 10.2226 2.01565 10.0306 1.87211C9.73381 1.64512 9.43701 1.41812 9.14022 1.19112C8.95254 1.04758 8.95254 0.957451 9.14458 0.810571C9.45884 0.566884 9.77745 0.326535 10.0961 0.0861858C10.2314 -0.0139597 10.371 -0.020636 10.4889 0.0594803C10.6067 0.142935 10.6067 0.263109 10.4671 0.366593C10.2881 0.503458 10.1004 0.636986 9.91712 0.770513C9.92585 0.780528 9.93458 0.787204 9.94331 0.797218C12.9855 0.797218 16.0232 0.797218 19.0828 0.797218C19.0479 0.767175 19.0261 0.740469 18.9999 0.72044C18.8602 0.613618 18.7206 0.506797 18.5853 0.399975C18.4107 0.266448 18.3889 0.156288 18.5111 0.0594803C18.6333 -0.0339888 18.7773 -0.0172979 18.9475 0.109553C19.2531 0.343226 19.5586 0.576898 19.8597 0.807233C20.0431 0.947437 20.0474 1.04091 19.8685 1.17777C19.5542 1.42146 19.24 1.66515 18.917 1.90216C18.8515 1.95223 18.7337 1.98895 18.6464 1.98227C18.5765 1.97893 18.4718 1.90549 18.4587 1.85208C18.4412 1.78866 18.4718 1.69185 18.5329 1.64178C18.7075 1.4949 18.9039 1.36471 19.0916 1.22784C19.0828 1.22451 19.0741 1.21449 19.0654 1.20781Z" fill="black"/>
</g>
<defs>
<clipPath id="clip0_1946_6828">
<rect width="27" height="30" fill="white"/>
</clipPath>
<clipPath id="clip1_1946_6828">
<rect width="27" height="27" fill="white" transform="translate(0 3)"/>
</clipPath>
</defs>
</svg>
