<svg width="26" height="26" viewBox="0 0 26 26" fill="none" xmlns="http://www.w3.org/2000/svg">
<path d="M12.5235 19.4081C12.5235 20.9765 12.5235 22.5516 12.5235 24.12C12.5235 25.0394 12.0166 25.5396 11.0975 25.5396C8.00884 25.5396 4.91344 25.5396 1.8248 25.5396C0.925918 25.5396 0.405513 25.0259 0.405513 24.1335C0.405513 21.5376 0.405513 18.9484 0.405513 16.3524C0.405513 16.0077 0.547441 15.8454 0.831299 15.8522C1.04757 15.8589 1.17598 15.9806 1.20978 16.1902C1.22329 16.2713 1.21653 16.3592 1.21653 16.4403C1.21653 18.9889 1.21653 21.5443 1.21653 24.093C1.21653 24.6067 1.3855 24.769 1.89914 24.769C4.96751 24.769 8.02911 24.769 11.0975 24.769C11.6044 24.769 11.7598 24.6135 11.7598 24.0997C11.7598 21.0103 11.7598 17.9141 11.7598 14.8246C11.7598 14.3379 11.5976 14.1756 11.1042 14.1756C8.0156 14.1756 4.9202 14.1756 1.83156 14.1756C1.39901 14.1756 1.28412 14.277 1.21653 14.7029C1.18274 14.9463 1.01378 15.0815 0.783989 15.068C0.540683 15.0612 0.405513 14.9057 0.405513 14.6489C0.391996 13.9661 0.952952 13.3847 1.65584 13.3779C2.50741 13.3712 3.35898 13.3779 4.21731 13.3779C6.54224 13.3779 8.86041 13.3914 11.1853 13.3712C11.9153 13.3644 12.5573 13.8647 12.5438 14.7232C12.4965 16.2848 12.5235 17.8465 12.5235 19.4081Z" fill="black"/>
<path d="M15.8148 0.398438C18.5858 0.398438 21.3568 0.398438 24.1278 0.398438C25.047 0.398438 25.5471 0.898698 25.5471 1.82486C25.5471 2.27103 25.5471 2.71721 25.5471 3.17015C25.5471 3.48112 25.3984 3.64337 25.1416 3.64337C24.8848 3.64337 24.7428 3.48112 24.7361 3.17015C24.7361 2.70369 24.7361 2.24399 24.7361 1.77753C24.7361 1.37868 24.5739 1.21643 24.1616 1.21643C23.4587 1.21643 22.7626 1.21643 22.0597 1.21643C17.2206 1.21643 12.3815 1.21643 7.54243 1.21643C7.02203 1.21643 6.89361 1.34488 6.89361 1.8519C6.89361 5.20499 6.89361 8.55809 6.89361 11.9112C6.89361 12.1343 6.8801 12.3438 6.62327 12.425C6.34618 12.5128 6.10963 12.3574 6.08259 12.0667C6.07584 11.9991 6.08259 11.9315 6.08259 11.8639C6.08259 8.51753 6.08259 5.17119 6.08259 1.82486C6.08259 0.905458 6.58272 0.405198 7.50864 0.405198C10.2729 0.398437 13.0439 0.398438 15.8148 0.398438Z" fill="black"/>
<path d="M23.0261 3.41327C22.9721 3.48764 22.9315 3.57552 22.8639 3.63636C19.7145 6.79341 16.5582 9.9437 13.402 13.1007C13.3074 13.1954 13.1993 13.2765 13.0776 13.3306C12.9154 13.405 12.76 13.3576 12.6518 13.2089C12.5369 13.0602 12.5234 12.8979 12.6383 12.7425C12.6991 12.6613 12.7735 12.5937 12.8411 12.5194C15.9838 9.37583 19.1265 6.23231 22.2624 3.09554C22.3368 3.02118 22.4179 2.96034 22.4922 2.89949C22.4855 2.87921 22.4787 2.85217 22.4719 2.83189C22.3841 2.83189 22.303 2.83189 22.2151 2.83189C21.0932 2.83189 19.9713 2.83189 18.8426 2.83189C18.775 2.83189 18.7074 2.83189 18.6399 2.83189C18.3763 2.81837 18.2276 2.66288 18.2276 2.41951C18.2344 2.1829 18.383 2.03418 18.6331 2.02742C19.0048 2.02066 19.3765 2.02742 19.7483 2.02742C20.9648 2.02742 22.1813 2.02742 23.3979 2.02742C23.7831 2.02742 23.9047 2.1491 23.9047 2.52092C23.9047 4.08254 23.9047 5.64416 23.9047 7.21255C23.9047 7.5438 23.7628 7.70605 23.4925 7.70605C23.2289 7.70605 23.0937 7.53704 23.0937 7.20579C23.0937 6.05654 23.0937 4.90729 23.0937 3.75805C23.0937 3.6634 23.0937 3.57552 23.0937 3.48088C23.0802 3.45384 23.0532 3.43356 23.0261 3.41327Z" fill="black"/>
<path d="M25.5404 12.9992C25.5404 14.8245 25.5404 16.6498 25.5404 18.475C25.5404 19.3268 24.9998 19.8677 24.1482 19.8677C20.7419 19.8677 17.3424 19.8677 13.9361 19.8609C13.7874 19.8609 13.5981 19.8068 13.5103 19.7054C13.4292 19.6175 13.4224 19.4147 13.463 19.2863C13.4968 19.1849 13.6522 19.1105 13.7671 19.0632C13.8482 19.0294 13.9496 19.0497 14.0442 19.0497C17.3829 19.0497 20.7149 19.0497 24.0536 19.0497C24.6078 19.0497 24.7362 18.9212 24.7362 18.3601C24.7362 14.7366 24.7362 11.1131 24.7362 7.4896C24.7362 7.40848 24.7294 7.32059 24.7429 7.23947C24.77 7.01638 24.9051 6.8947 25.1349 6.88794C25.358 6.88118 25.5202 7.01638 25.5472 7.24623C25.554 7.32735 25.554 7.41524 25.554 7.49636C25.5404 9.33516 25.5404 11.1672 25.5404 12.9992Z" fill="black"/>
<path d="M2.83187 23.1124C2.98056 23.1124 3.10221 23.1056 3.23062 23.1124C3.4942 23.1259 3.64965 23.2813 3.64289 23.5246C3.64289 23.7612 3.4942 23.9099 3.24414 23.9234C2.96704 23.9302 2.68994 23.9302 2.41284 23.9234C2.17629 23.9166 2.03437 23.7747 2.03437 23.5382C2.02761 22.9907 2.02761 22.4433 2.03437 21.8958C2.04112 21.6458 2.19657 21.4971 2.43312 21.4971C2.67642 21.4971 2.83187 21.6458 2.83863 21.9093C2.83863 22.3013 2.83187 22.6933 2.83187 23.1124Z" fill="black"/>
<path d="M8.50904 2.83167C8.50904 2.98712 8.5158 3.10877 8.50904 3.23042C8.49552 3.49401 8.34008 3.64269 8.09677 3.64269C7.86698 3.63593 7.71153 3.49401 7.70478 3.24394C7.69802 2.96684 7.69802 2.68974 7.70478 2.41265C7.71153 2.1761 7.85346 2.04093 8.09001 2.03417C8.37387 2.02741 8.66448 2.02065 8.94834 2.03417C9.17813 2.04769 9.32006 2.20313 9.32006 2.43292C9.32006 2.65595 9.18489 2.81816 8.9551 2.83843C8.81993 2.83843 8.68476 2.83167 8.50904 2.83167Z" fill="black"/>
<path d="M23.1142 17.4341C23.1142 17.2651 23.1075 17.1367 23.1142 17.015C23.1277 16.7717 23.2832 16.623 23.5197 16.623C23.7563 16.623 23.9117 16.7717 23.9185 17.0218C23.9253 17.2989 23.9253 17.576 23.9185 17.8531C23.9117 18.0896 23.7766 18.2316 23.5333 18.2383C23.2494 18.2519 22.9588 18.2519 22.6749 18.2383C22.4451 18.2316 22.3032 18.0694 22.3032 17.8463C22.2964 17.6098 22.4451 17.4543 22.6884 17.4341C22.8169 17.4273 22.952 17.4341 23.1142 17.4341Z" fill="black"/>
<path d="M25.5405 5.2857C25.5405 5.42763 25.5472 5.56956 25.5405 5.71824C25.5269 5.96831 25.3715 6.117 25.1417 6.12376C24.9119 6.13051 24.743 5.97507 24.7362 5.73176C24.7227 5.43439 24.7227 5.14377 24.7362 4.84639C24.743 4.60309 24.9119 4.4544 25.1417 4.46116C25.3783 4.46792 25.5269 4.60985 25.5405 4.85991C25.5472 5.00184 25.5405 5.14377 25.5405 5.2857Z" fill="black"/>
</svg>
