<?xml version="1.0" encoding="utf-8"?>
<!-- Generator: Adobe Illustrator 23.0.2, SVG Export Plug-In . SVG Version: 6.00 Build 0)  -->
<svg version="1.1" id="Слой_1" xmlns="http://www.w3.org/2000/svg" xmlns:xlink="http://www.w3.org/1999/xlink" x="0px" y="0px"
	 width="725.2px" height="588.9px" viewBox="0 0 725.2 588.9" style="enable-background:new 0 0 725.2 588.9;" xml:space="preserve"
	>
<style type="text/css">
	.st0{fill-rule:evenodd;clip-rule:evenodd;fill:#1565D8;}
	.st1{fill-rule:evenodd;clip-rule:evenodd;fill:#FFFFFF;filter:url(#Adobe_OpacityMaskFilter);}
	.st2{mask:url(#mask0_1_);}
	.st3{opacity:0.1;fill-rule:evenodd;clip-rule:evenodd;fill:#FFFFFF;enable-background:new    ;}
	.st4{opacity:0.1013;fill-rule:evenodd;clip-rule:evenodd;fill:url(#SVGID_1_);enable-background:new    ;}
</style>
<path class="st0" d="M725.2,385c-2,3.7-4,7.4-6.1,11C612.6,580.4,377,643.6,192.7,537.2c-15.2-8.8-29.5-18.4-43-28.8
	c-40.1-30.9-72.7-68.6-97.1-110.5c-67.3-115.5-72.5-263-0.8-387.1C53.8,7.2,56,3.6,58.2,0l240.5,138.9l119.3,68.9L725.2,385z"/>
<defs>
	<filter id="Adobe_OpacityMaskFilter" filterUnits="userSpaceOnUse" x="52.6" y="138.9" width="365.5" height="369.6">
		<feColorMatrix  type="matrix" values="1 0 0 0 0  0 1 0 0 0  0 0 1 0 0  0 0 0 1 0"/>
	</filter>
</defs>
<mask maskUnits="userSpaceOnUse" x="52.6" y="138.9" width="365.5" height="369.6" id="mask0_1_">
	<path class="st1" d="M192.7,537.2C8.4,430.8-54.7,195.2,51.7,10.8C53.8,7.2,56,3.6,58.2,0l667,385c-2,3.7-4,7.4-6.1,11
		C612.6,580.4,377,643.6,192.7,537.2z"/>
</mask>
<g class="st2">
	<path class="st3" d="M118.7,288.4c-0.5-1.9-2.5-3.1-4.5-2.6s-3.1,2.5-2.6,4.5c0.5,1.9,2.5,3.1,4.5,2.6
		C118,292.3,119.2,290.3,118.7,288.4z M113.7,269.9c-0.5-1.9-2.5-3.1-4.5-2.6c-1.9,0.5-3.1,2.5-2.6,4.5c0.5,2,2.5,3.1,4.5,2.6
		S114.2,271.8,113.7,269.9z M108.8,251.4c-0.5-1.9-2.5-3.1-4.5-2.6c-1.9,0.5-3.1,2.5-2.6,4.5c0.5,1.9,2.5,3.1,4.5,2.6
		C108.1,255.4,109.3,253.4,108.8,251.4z M103.8,232.9c-0.5-1.9-2.5-3.1-4.5-2.6c-1.9,0.5-3.1,2.5-2.6,4.5c0.5,1.9,2.5,3.1,4.5,2.6
		S104.3,234.9,103.8,232.9z M98.9,214.5c-0.5-2-2.5-3.1-4.5-2.6c-1.9,0.5-3.1,2.5-2.6,4.5c0.5,1.9,2.5,3.1,4.5,2.6
		C98.2,218.4,99.4,216.4,98.9,214.5z M93.9,196c-0.5-2-2.5-3.1-4.5-2.6c-1.9,0.5-3.1,2.5-2.6,4.5c0.5,1.9,2.5,3.1,4.5,2.6
		C93.3,200,94.4,198,93.9,196z M137.1,283.4c-0.5-1.9-2.5-3.1-4.5-2.6s-3.1,2.5-2.6,4.5c0.5,1.9,2.5,3.1,4.5,2.6
		C136.5,287.3,137.6,285.4,137.1,283.4z M132.2,264.9c-0.5-2-2.5-3.1-4.5-2.6c-1.9,0.5-3.1,2.5-2.6,4.5c0.5,1.9,2.5,3.1,4.5,2.6
		C131.5,268.9,132.7,266.9,132.2,264.9z M127.2,246.5c-0.5-2-2.5-3.1-4.5-2.6c-1.9,0.5-3.1,2.5-2.6,4.5c0.5,1.9,2.5,3.1,4.5,2.6
		C126.6,250.4,127.7,248.4,127.2,246.5z M122.3,228c-0.5-1.9-2.5-3.1-4.4-2.6c-2,0.5-3.1,2.5-2.6,4.5c0.5,2,2.5,3.1,4.5,2.6
		C121.6,231.9,122.8,229.9,122.3,228z M117.3,209.5c-0.5-1.9-2.5-3.1-4.5-2.6c-1.9,0.5-3.1,2.5-2.6,4.5c0.5,2,2.5,3.1,4.5,2.6
		C116.7,213.5,117.9,211.5,117.3,209.5z M112.4,191.1c-0.5-1.9-2.5-3.1-4.5-2.6c-1.9,0.5-3.1,2.5-2.6,4.5c0.5,1.9,2.5,3.1,4.5,2.6
		C111.8,195,112.9,193,112.4,191.1z M155.6,278.5c-0.5-1.9-2.5-3.1-4.5-2.6c-1.9,0.5-3.1,2.5-2.6,4.5s2.5,3.1,4.5,2.6
		C154.9,282.4,156.1,280.4,155.6,278.5z M150.6,260c-0.5-1.9-2.5-3.1-4.5-2.6c-1.9,0.5-3.1,2.5-2.6,4.5c0.5,2,2.5,3.1,4.5,2.6
		S151.1,261.9,150.6,260z M145.7,241.5c-0.5-1.9-2.5-3.1-4.5-2.6s-3.1,2.5-2.6,4.5c0.5,1.9,2.5,3.1,4.5,2.6
		C145,245.5,146.2,243.5,145.7,241.5z M140.7,223.1c-0.5-1.9-2.5-3.1-4.5-2.6c-1.9,0.5-3.1,2.5-2.6,4.5c0.5,1.9,2.5,3.1,4.4,2.6
		S141.3,225,140.7,223.1z M135.8,204.6c-0.5-2-2.5-3.1-4.5-2.6s-3.1,2.5-2.6,4.5c0.5,1.9,2.5,3.1,4.5,2.6
		C135.2,208.5,136.3,206.5,135.8,204.6z M130.8,186.1c-0.5-1.9-2.5-3.1-4.5-2.6c-1.9,0.5-3.1,2.5-2.6,4.5s2.5,3.1,4.5,2.6
		S131.4,188.1,130.8,186.1z M174,273.5c-0.5-1.9-2.5-3.1-4.4-2.6c-2,0.5-3.1,2.5-2.6,4.5c0.5,1.9,2.5,3.1,4.5,2.6
		C173.4,277.5,174.5,275.5,174,273.5z M169.1,255.1c-0.5-1.9-2.5-3.1-4.5-2.6c-1.9,0.5-3.1,2.5-2.6,4.5c0.5,1.9,2.5,3.1,4.5,2.6
		S169.6,257,169.1,255.1z M164.1,236.6c-0.5-1.9-2.5-3.1-4.5-2.6c-1.9,0.5-3.1,2.5-2.6,4.5c0.5,2,2.5,3.1,4.5,2.6
		C163.5,240.5,164.7,238.5,164.1,236.6z M159.2,218.1c-0.5-1.9-2.5-3.1-4.5-2.6c-1.9,0.5-3.1,2.5-2.6,4.5c0.5,2,2.5,3.1,4.5,2.6
		C158.6,222.1,159.7,220.1,159.2,218.1z M154.2,199.6c-0.5-1.9-2.5-3.1-4.5-2.6s-3.1,2.5-2.6,4.5c0.5,1.9,2.5,3.1,4.5,2.6
		C153.6,203.6,154.8,201.6,154.2,199.6z M149.3,181.2c-0.5-1.9-2.5-3.1-4.5-2.6c-1.9,0.5-3.1,2.5-2.6,4.5c0.5,1.9,2.5,3.1,4.5,2.6
		C148.7,185.1,149.8,183.1,149.3,181.2z M192.5,268.6c-0.5-1.9-2.5-3.1-4.5-2.6c-1.9,0.5-3.1,2.5-2.6,4.5c0.5,2,2.5,3.1,4.4,2.6
		C191.8,272.5,193,270.5,192.5,268.6z M187.5,250.1c-0.5-1.9-2.5-3.1-4.5-2.6c-1.9,0.5-3.1,2.5-2.6,4.5c0.5,1.9,2.5,3.1,4.5,2.6
		C186.9,254,188.1,252,187.5,250.1z M182.6,231.6c-0.5-1.9-2.5-3.1-4.5-2.6c-1.9,0.5-3.1,2.5-2.6,4.5c0.5,1.9,2.5,3.1,4.5,2.6
		S183.1,233.6,182.6,231.6z M177.6,213.2c-0.5-2-2.5-3.1-4.5-2.6s-3.1,2.5-2.6,4.5c0.5,1.9,2.5,3.1,4.5,2.6
		C177,217.1,178.2,215.1,177.6,213.2z M172.7,194.7c-0.5-1.9-2.5-3.1-4.5-2.6c-1.9,0.5-3.1,2.5-2.6,4.5c0.5,2,2.5,3.1,4.5,2.6
		C172.1,198.6,173.2,196.6,172.7,194.7z M167.7,176.2c-0.5-1.9-2.5-3.1-4.5-2.6c-1.9,0.5-3.1,2.5-2.6,4.5c0.5,1.9,2.5,3.1,4.5,2.6
		C167.1,180.2,168.3,178.2,167.7,176.2z M210.9,263.6c-0.5-2-2.5-3.1-4.5-2.6c-1.9,0.5-3.1,2.5-2.6,4.5c0.5,1.9,2.5,3.1,4.5,2.6
		C210.3,267.6,211.5,265.6,210.9,263.6z M206,245.2c-0.5-1.9-2.5-3.1-4.5-2.6s-3.1,2.5-2.6,4.5c0.5,1.9,2.5,3.1,4.5,2.6
		C205.4,249.1,206.5,247.1,206,245.2z M201,226.7c-0.5-1.9-2.5-3.1-4.5-2.6c-1.9,0.5-3.1,2.5-2.6,4.5c0.5,2,2.5,3.1,4.5,2.6
		S201.6,228.6,201,226.7z M196.1,208.2c-0.5-1.9-2.5-3.1-4.5-2.6c-1.9,0.5-3.1,2.5-2.6,4.5c0.5,1.9,2.5,3.1,4.5,2.6
		C195.5,212.2,196.6,210.2,196.1,208.2z M191.1,189.8c-0.5-1.9-2.5-3.1-4.5-2.6c-1.9,0.5-3.1,2.5-2.6,4.5c0.5,1.9,2.5,3.1,4.5,2.6
		S191.7,191.7,191.1,189.8z M186.2,171.3c-0.5-2-2.5-3.1-4.5-2.6s-3.1,2.5-2.6,4.5s2.5,3.1,4.5,2.6
		C185.6,175.2,186.7,173.2,186.2,171.3z M229.4,258.7c-0.5-1.9-2.5-3.1-4.5-2.6c-1.9,0.5-3.1,2.5-2.6,4.4c0.5,2,2.5,3.1,4.5,2.6
		S229.9,260.6,229.4,258.7z M224.4,240.2c-0.5-1.9-2.5-3.1-4.5-2.6c-1.9,0.5-3.1,2.5-2.6,4.5c0.5,1.9,2.5,3.1,4.5,2.6
		C223.8,244.2,225,242.2,224.4,240.2z M219.5,221.8c-0.5-2-2.5-3.1-4.5-2.6c-1.9,0.5-3.1,2.5-2.6,4.5c0.5,1.9,2.5,3.1,4.5,2.6
		C218.9,225.7,220,223.7,219.5,221.8z M214.5,203.3c-0.5-1.9-2.5-3.1-4.5-2.6s-3.1,2.5-2.6,4.5c0.5,1.9,2.5,3.1,4.5,2.6
		C213.9,207.2,215.1,205.2,214.5,203.3z M209.6,184.8c-0.5-1.9-2.5-3.1-4.5-2.6c-1.9,0.5-3.1,2.5-2.6,4.5c0.5,2,2.5,3.1,4.5,2.6
		C209,188.8,210.1,186.8,209.6,184.8z M204.6,166.3c-0.5-1.9-2.5-3.1-4.5-2.6s-3.1,2.5-2.6,4.5c0.5,1.9,2.5,3.1,4.5,2.6
		C204,170.3,205.2,168.3,204.6,166.3z M218.1,142.9c-0.5-1.9-2.5-3.1-4.4-2.6c-2,0.5-3.1,2.5-2.6,4.5c0.5,2,2.5,3.1,4.5,2.6
		S218.7,144.9,218.1,142.9z M223.1,161.4c-0.5-2-2.5-3.1-4.5-2.6s-3.1,2.5-2.6,4.5c0.5,1.9,2.5,3.1,4.5,2.6
		C222.5,165.3,223.6,163.3,223.1,161.4z M228,179.9c-0.5-1.9-2.5-3.1-4.5-2.6c-1.9,0.5-3.1,2.5-2.6,4.5c0.5,1.9,2.5,3.1,4.5,2.6
		C227.4,183.8,228.6,181.8,228,179.9z M233,198.3c-0.5-1.9-2.5-3.1-4.5-2.6s-3.1,2.5-2.6,4.5c0.5,1.9,2.5,3.1,4.5,2.6
		C232.4,202.3,233.5,200.3,233,198.3z M237.9,216.8c-0.5-1.9-2.5-3.1-4.5-2.6c-1.9,0.5-3.1,2.5-2.6,4.5c0.5,1.9,2.5,3.1,4.5,2.6
		C237.3,220.7,238.5,218.7,237.9,216.8z M242.9,235.3c-0.5-1.9-2.5-3.1-4.5-2.6c-1.9,0.5-3.1,2.5-2.6,4.5c0.5,2,2.5,3.1,4.5,2.6
		C242.3,239.2,243.4,237.2,242.9,235.3z M247.8,253.7c-0.5-1.9-2.5-3.1-4.5-2.6c-1.9,0.5-3.1,2.5-2.6,4.5c0.5,1.9,2.5,3.1,4.5,2.6
		S248.4,255.7,247.8,253.7z M199.7,147.9c-0.5-1.9-2.5-3.1-4.5-2.6c-1.9,0.5-3.1,2.5-2.6,4.5c0.5,1.9,2.5,3.1,4.5,2.6
		S200.2,149.8,199.7,147.9z M181.2,152.8c-0.5-1.9-2.5-3.1-4.5-2.6c-1.9,0.5-3.1,2.5-2.6,4.5c0.5,2,2.5,3.1,4.5,2.6
		C180.6,156.8,181.8,154.8,181.2,152.8z M162.8,157.8c-0.5-1.9-2.5-3.1-4.5-2.6c-1.9,0.5-3.1,2.5-2.6,4.5c0.5,1.9,2.5,3.1,4.4,2.6
		C162.2,161.7,163.3,159.7,162.8,157.8z M144.3,162.7c-0.5-2-2.5-3.1-4.5-2.6c-1.9,0.5-3.1,2.5-2.6,4.5s2.5,3.1,4.5,2.6
		C143.7,166.7,144.9,164.7,144.3,162.7z M125.9,167.7c-0.5-1.9-2.5-3.1-4.5-2.6c-1.9,0.5-3.1,2.5-2.6,4.5c0.5,2,2.5,3.1,4.5,2.6
		C125.3,171.6,126.4,169.6,125.9,167.7z M107.4,172.6c-0.5-2-2.5-3.1-4.5-2.6s-3.1,2.5-2.6,4.5c0.5,1.9,2.5,3.1,4.5,2.6
		C106.8,176.5,108,174.5,107.4,172.6z M89,177.5c-0.5-1.9-2.5-3.1-4.5-2.6s-3.1,2.5-2.6,4.5c0.5,1.9,2.5,3.1,4.4,2.6
		C88.3,181.5,89.5,179.5,89,177.5z"/>
	
		<linearGradient id="SVGID_1_" gradientUnits="userSpaceOnUse" x1="212.7434" y1="287.315" x2="252.4363" y2="535.7316" gradientTransform="matrix(1 0 0 -1 0 731.676)">
		<stop  offset="0" style="stop-color:#FFFFFF"/>
		<stop  offset="1" style="stop-color:#FFFFFF;stop-opacity:1.000000e-02"/>
	</linearGradient>
	<path class="st4" d="M298.8,138.9c8.9,113.3-63.8,220.4-177.5,250.9c-23,6.2-46,8.8-68.6,8.2c24.4,41.9,57,79.6,97.1,110.5
		c1-0.3,2.1-0.5,3.1-0.8c144.9-38.8,245.6-160.1,265.3-299.9L298.8,138.9z"/>
</g>
</svg>
